<svg xmlns="http://www.w3.org/2000/svg" width="580.282" height="316.993" viewBox="0 0 153.533 83.871" xmlns:v="https://vecta.io/nano"><path d="M76.758 0a20.82 20.82 0 0 1-2.084 2.977c-2.067 2.456-4.961 5.13-8.453 7.953-6.985 5.647-16.366 11.869-26.16 17.68A341.63 341.63 0 0 1 18.549 40.36v11.888l5.709 1.406.074.02c-.141-.643-.291-1.231-.451-1.739-.341-1.083-.764-1.819-.975-2.029l-1.199-1.197 1.453-.873C36.723 39.696 56.737 35.74 76.758 35.74s40.035 3.956 53.598 12.094l1.453.873-1.199 1.197c-.21.21-.634.946-.975 2.029-.275.875-.524 1.979-.737 3.226l.037-.01.257-1.44c4.633-1.188 9.116-2.24 13.228-3.122 4.187-.897 7.927-1.605 11.113-2.109-3.276-1.132-7.173-2.742-11.471-4.714-8.612-3.953-18.813-9.344-28.607-15.155S94.28 16.576 87.295 10.93c-3.493-2.823-6.386-5.497-8.453-7.953A20.82 20.82 0 0 1 76.758 0zm0 38.385c-19.166 0-38.288 3.809-51.188 11.162.268.529.629.935.836 1.594.404 1.283.722 2.818.977 4.539.51 3.442.758 7.623.758 11.81s-.248 8.369-.758 11.811c-.083.561-.221.961-.319 1.481 1.966-1.41 4.281-2.563 6.84-3.461 4.893-1.717 10.643-2.555 16.395-2.555s11.503.838 16.396 2.555c4.199 1.473 7.723 3.643 10.062 6.551 2.34-2.908 5.864-5.077 10.062-6.551 4.893-1.717 10.644-2.555 16.396-2.555s11.502.838 16.395 2.555c2.559.898 4.874 2.051 6.84 3.461-.097-.519-.236-.919-.319-1.481-.51-3.442-.758-7.624-.758-11.811s.248-8.369.758-11.81c.255-1.721.573-3.256.977-4.539.207-.658.568-1.065.836-1.594-12.899-7.353-32.022-11.162-51.188-11.162zm-60.854 3.463l-2.646 1.324v21.887l-1.133 3.396 2.455 2.455 2.455-2.455-1.131-3.396zm-5.293 2.298C6.655 45.939 3.057 47.414 0 48.47c3.057.48 6.637 1.155 10.611 1.994z" fill="#fff"/></svg>