<svg xmlns="http://www.w3.org/2000/svg" width="580.282" height="421.353" viewBox="0 0 153.533 111.483" xmlns:v="https://vecta.io/nano"><path d="M76.758 0a20.82 20.82 0 0 1-2.084 2.977c-2.067 2.456-4.961 5.13-8.453 7.953-6.985 5.647-16.366 11.869-26.16 17.68A341.63 341.63 0 0 1 18.549 40.36v11.888l5.709 1.406.074.02c-.141-.643-.291-1.231-.451-1.739-.341-1.083-.764-1.819-.975-2.029l-1.199-1.197 1.453-.873C36.723 39.696 56.737 35.74 76.758 35.74s40.035 3.956 53.598 12.094l1.453.873-1.199 1.197c-.21.21-.634.946-.975 2.029-.275.875-.524 1.979-.737 3.226l.037-.01.257-1.44c4.633-1.188 9.116-2.24 13.228-3.122 4.187-.897 7.927-1.605 11.113-2.109-3.276-1.132-7.173-2.742-11.471-4.714-8.612-3.953-18.813-9.344-28.607-15.155S94.28 16.576 87.295 10.93c-3.493-2.823-6.386-5.497-8.453-7.953A20.82 20.82 0 0 1 76.758 0zm0 38.385c-19.166 0-38.288 3.809-51.188 11.162.268.529.629.935.836 1.594.404 1.283.722 2.818.977 4.539.51 3.442.758 7.623.758 11.81s-.248 8.369-.758 11.811c-.083.561-.221.961-.319 1.481 1.966-1.41 4.281-2.563 6.84-3.461 4.893-1.717 10.643-2.555 16.395-2.555s11.503.838 16.396 2.555c4.199 1.473 7.723 3.643 10.062 6.551 2.34-2.908 5.864-5.077 10.062-6.551 4.893-1.717 10.644-2.555 16.396-2.555s11.502.838 16.395 2.555c2.559.898 4.874 2.051 6.84 3.461-.097-.519-.236-.919-.319-1.481-.51-3.442-.758-7.624-.758-11.811s.248-8.369.758-11.81c.255-1.721.573-3.256.977-4.539.207-.658.568-1.065.836-1.594-12.899-7.353-32.022-11.162-51.188-11.162zm-60.854 3.463l-2.646 1.324v21.887l-1.133 3.396 2.455 2.455 2.455-2.455-1.131-3.396zm-5.293 2.298C6.655 45.939 3.057 47.414 0 48.47c3.057.48 6.637 1.155 10.611 1.994z" fill="#fff"/><path d="M29.881 111.12q-1.154 0-1.73-.544-.541-.544-.541-1.74V88.352q0-1.015.577-1.632.613-.616 1.694-.616h7.102q2.055 0 3.533.471 1.514.471 2.488 1.305.973.834 1.442 1.994.505 1.124.505 2.502 0 1.74-.793 3.082-.793 1.341-2.091 1.994 2.163.906 3.1 2.465.937 1.559.937 3.589 0 3.553-2.271 5.583-2.271 2.03-6.309 2.03zm2.271-14.901h5.227q1.37 0 2.127-.906.793-.943.793-2.212 0-1.378-.865-2.139-.829-.798-2.451-.798h-4.831zm0 10.877h5.408q1.839 0 2.848-.979 1.045-.979 1.045-2.719 0-3.408-4.002-3.408h-5.3zm21.595-4.133q.288 2.175 1.586 3.336 1.334 1.16 3.317 1.16.757 0 1.406-.145.685-.181 1.226-.435.541-.254.937-.508.433-.29.685-.471.649-.29.973-.29.829 0 1.37.616.577.616.577 1.378 0 .544-.288 1.015-.288.435-.649.725-1.045.87-2.704 1.523-1.658.616-3.894.616-1.983 0-3.641-.689-1.658-.725-2.848-1.994-1.19-1.269-1.875-3.009-.649-1.74-.649-3.807 0-1.994.685-3.771.685-1.777 1.875-3.082 1.226-1.305 2.884-2.067 1.658-.761 3.569-.761 1.875 0 3.389.689 1.55.653 2.632 1.777 1.082 1.088 1.658 2.538.613 1.45.613 3.009 0 1.16-.397 1.922-.361.725-1.586.725zm8.508-2.647q.036-.689-.216-1.378-.252-.725-.793-1.305-.505-.58-1.262-.906-.757-.363-1.73-.363-1.73 0-2.92 1.051-1.19 1.015-1.55 2.9zm23.577 6.49q0 1.124-.757 1.885-.433.508-1.045 1.015-.613.508-1.406.906-.793.399-1.803.616-1.009.254-2.271.254-2.055 0-3.713-.725-1.658-.761-2.848-2.03-1.154-1.305-1.803-3.046-.613-1.777-.613-3.807 0-2.03.685-3.771.685-1.74 1.875-3.009 1.19-1.305 2.812-2.03 1.658-.761 3.605-.761 2.163 0 3.894.761 1.767.761 2.92 2.284.685.906.685 1.777 0 1.051-.649 1.523-.613.435-1.262.435-.613 0-.973-.218-.361-.218-.613-.471-.216-.218-.541-.544-.324-.363-.829-.689-.469-.326-1.118-.544-.613-.254-1.478-.254-1.082 0-1.911.471-.829.435-1.406 1.233-.577.761-.865 1.777-.288.979-.288 2.067 0 1.088.288 2.103.288.979.865 1.777.577.761 1.37 1.233.829.435 1.911.435 1.154 0 2.091-.508.937-.544 1.803-1.378.433-.399.793-.508.397-.145.649-.145.649 0 1.298.471.649.471.649 1.414zm16.908.689q-.865 1.922-2.451 2.973-1.55 1.015-3.677 1.015-1.622 0-3.064-.653-1.442-.689-2.524-1.922-1.082-1.233-1.73-2.973-.613-1.777-.613-3.952 0-2.175.649-3.952.685-1.813 1.803-3.082 1.154-1.269 2.632-1.958 1.514-.689 3.172-.689 2.235 0 3.605 1.015 1.406.979 2.199 2.683v-1.45q0-.834.613-1.341.613-.544 1.622-.544 1.009 0 1.586.544.613.508.613 1.341v10.913q0 1.632.901 1.632.541 0 .829.471.324.435.324 1.269 0 2.284-2.776 2.284-1.803 0-2.632-.943-.829-.979-1.045-2.248zm-8.148-1.523q.649.725 1.514 1.124.865.363 1.875.363.973 0 1.839-.363.901-.399 1.55-1.088.649-.725 1.009-1.74.397-1.015.397-2.284 0-2.538-1.334-4.061-1.298-1.559-3.461-1.559-2.235 0-3.497 1.559-1.262 1.559-1.262 4.061 0 1.269.361 2.284.361.979 1.009 1.704zm19.973 4.895q-1.55-.616-2.524-1.668-.397-.399-.541-.798-.144-.399-.144-.798 0-.689.505-1.341.541-.653 1.262-.653.505 0 .901.218.397.181.649.363.721.58 1.586 1.015.901.399 2.019.399 1.262 0 1.983-.399.721-.399.721-1.305 0-.761-.685-1.233-.685-.508-1.658-.834-.973-.363-1.947-.725-.18-.036-.865-.29-.685-.254-1.73-.906-1.045-.653-1.73-1.632-.685-.979-.685-2.538 0-1.16.505-2.139.505-1.015 1.406-1.74.901-.725 2.163-1.124 1.262-.435 2.74-.435 2.127 0 3.497.58 1.37.58 2.199 1.414.397.399.541.834.18.435.18.798 0 .616-.469 1.305-.433.653-1.226.653-.361 0-.757-.181-.361-.181-.721-.435-.469-.326-1.226-.689-.757-.399-1.911-.399-.973 0-1.694.363-.685.326-.685 1.16 0 .689.685 1.124.685.399 1.658.761 1.009.363 2.091.761.108.036.757.29.649.218 1.694.87 1.045.616 1.73 1.595.685.979.685 2.429 0 1.269-.541 2.357-.505 1.088-1.442 1.885-.937.798-2.271 1.269-1.298.435-2.92.435-2.235 0-3.785-.616z" fill="#fff"/></svg>