<svg xmlns="http://www.w3.org/2000/svg" xmlns:xlink="http://www.w3.org/1999/xlink" width="140.489" height="42.214" viewBox="0 0 37.171 11.169" xmlns:v="https://vecta.io/nano"><g fill="#fff"><path d="M35.436.001l-.304.014c-.835.057-1.859.278-2.935.676-.069.026-.104.102-.078.17s.101.104.17.08c1.055-.39 2.058-.607 2.861-.662s1.403.069 1.631.274a.34.34 0 0 1 .117.371c-.036.164-.166.387-.424.65-.515.526-1.521 1.209-3.156 2.017-.046.018-.078.061-.083.111a.13.13 0 0 0 .062.124c.043.026.096.027.139.001 1.649-.816 2.674-1.504 3.229-2.071.277-.284.439-.536.492-.777a.64.64 0 0 0-.197-.625c-.301-.27-.834-.372-1.522-.355zm-2.814 1.034c-.686.031-1.536.208-2.5.582-.045.017-.078.056-.085.103s.011.095.048.125.088.037.133.019c.942-.365 1.765-.535 2.416-.564s1.127.088 1.362.262c.117.087.174.181.189.283s-.013.226-.111.375c-.196.297-.673.667-1.486 1.024-.046.017-.078.059-.084.107s.014.096.054.125.092.033.136.012c.839-.368 1.355-.747 1.601-1.121.123-.187.179-.38.152-.561s-.135-.339-.295-.457c-.32-.236-.843-.346-1.529-.315zm-8.406 9.29l2.475-.647 6.329.056-1.856 1.435zm5.137-7.043l-4.661.933.623.641.541.558zm.444.019l-3.761 2.292 2.33 2.313zm-5.295 1.074l-.646 2.205 1.781-1.037zm1.315 1.35l-1.473.856-.378.22 4.036 1.092-1.02-1.012zM4.509 9.262q.392-.233.762-.667.18-.191.434-.191.254 0 .413.201.159.201.159.402 0 .127-.042.265-.042.138-.159.286-.148.18-.381.402-.233.212-.561.402-.317.18-.751.307-.423.127-.953.127-.762 0-1.397-.265-.624-.265-1.079-.751-.455-.497-.709-1.185Q0 7.907 0 7.06q0-.836.243-1.535.254-.698.709-1.196.455-.497 1.079-.773.635-.275 1.397-.275.593 0 1.048.148.466.148.794.36.339.201.55.423.212.212.307.349.085.138.127.286.042.138.042.254 0 .159-.064.286-.053.116-.148.201-.095.074-.212.116-.106.032-.201.032-.116 0-.243-.032-.116-.042-.222-.159-.18-.212-.36-.381-.18-.18-.392-.307-.201-.127-.455-.201-.243-.074-.572-.074-.476 0-.857.18-.381.18-.656.508-.265.328-.413.794-.138.455-.138 1.005 0 .54.148.984.148.445.423.762.275.317.677.497.413.18.921.18.582 0 .974-.233z"/><use xlink:href="#B"/><use xlink:href="#C"/><use xlink:href="#C" x="1.892"/><path d="M13.804 5.405q.037.278.204.426.171.148.426.148.097 0 .18-.019.088-.023.157-.056.069-.032.12-.065.056-.037.088-.06.083-.037.125-.037.106 0 .176.079.074.079.074.176 0 .069-.037.13-.037.056-.083.093-.134.111-.347.194-.213.079-.5.079-.255 0-.467-.088-.213-.093-.366-.255-.153-.162-.241-.384-.083-.222-.083-.486 0-.255.088-.481.088-.227.241-.393.157-.167.37-.264.213-.097.458-.097.241 0 .435.088.199.083.338.227.139.139.213.324.079.185.079.384 0 .148-.051.245-.046.093-.204.093zm1.092-.338q.005-.088-.028-.176-.032-.093-.102-.167-.065-.074-.162-.116-.097-.046-.222-.046-.222 0-.375.134-.153.13-.199.37z"/><use xlink:href="#B" x="8.979"/><use xlink:href="#D"/><path d="M8.906 9.331q.041.309.227.474.191.165.474.165.108 0 .201-.021.098-.026.175-.062.077-.036.134-.072.062-.041.098-.067.093-.041.139-.041.119 0 .196.088.082.088.082.196 0 .077-.041.144-.041.062-.093.103-.149.124-.387.216-.237.088-.557.088-.284 0-.521-.098-.237-.103-.407-.284-.17-.18-.268-.428-.093-.247-.093-.541 0-.284.098-.536.098-.253.268-.438.175-.186.412-.294.237-.108.51-.108.268 0 .485.098.222.093.376.253.155.155.237.361.088.206.088.428 0 .165-.057.273-.052.103-.227.103zm1.216-.376q.005-.098-.031-.196-.036-.103-.113-.186-.072-.082-.18-.129-.108-.052-.247-.052-.247 0-.418.149-.17.144-.222.412zm1.831 1.231q0 .129-.088.216-.088.088-.227.088-.129 0-.222-.082-.093-.088-.093-.222V8.14q0-.098.077-.186.077-.088.242-.088.165 0 .237.082.072.082.072.186v.16q.098-.232.304-.356.206-.124.469-.124.448 0 .696.284.247.278.247.768v1.32q0 .129-.093.216-.088.088-.227.088-.134 0-.227-.088-.088-.088-.088-.216V9.088q0-.34-.144-.515-.139-.18-.392-.18-.258 0-.402.186-.144.18-.144.526zm4.572-.309q0 .16-.108.268-.062.072-.149.144-.088.072-.201.129-.113.057-.258.088-.144.036-.325.036-.294 0-.531-.103-.237-.108-.407-.289-.165-.186-.258-.433-.088-.253-.088-.541 0-.289.098-.536.098-.247.268-.428.17-.186.402-.289.237-.108.515-.108.309 0 .557.108.253.108.418.325.098.129.098.253 0 .149-.093.216-.088.062-.18.062-.088 0-.139-.031-.052-.031-.088-.067-.031-.031-.077-.077-.046-.052-.119-.098-.067-.046-.16-.077-.088-.036-.211-.036-.155 0-.273.067-.119.062-.201.175-.082.108-.124.253-.041.139-.041.294 0 .155.041.299.041.139.124.253.082.108.196.175.119.062.273.062.165 0 .299-.072.134-.077.258-.196.062-.057.113-.072.057-.021.093-.021.093 0 .186.067.093.067.093.201z"/><use xlink:href="#D" x="10.031"/><path d="M20.308 9.975q-.124.273-.351.423-.222.144-.526.144-.232 0-.438-.093-.206-.098-.361-.273-.155-.175-.247-.423-.088-.253-.088-.562 0-.309.093-.562.098-.258.258-.438.165-.18.376-.278.216-.098.454-.098.32 0 .515.144.201.139.314.381v-.206q0-.119.088-.191.088-.077.232-.077.144 0 .227.077.088.072.088.191v1.552q0 .232.129.232.077 0 .119.067.046.062.046.18 0 .325-.397.325-.258 0-.376-.134-.119-.139-.149-.32zm-1.165-.216q.093.103.216.16.124.052.268.052.139 0 .263-.052.129-.057.222-.155.093-.103.144-.247.057-.144.057-.325 0-.361-.191-.577-.186-.222-.495-.222-.32 0-.5.222-.18.222-.18.577 0 .18.052.325.052.139.144.242zm2.856.695q-.222-.088-.361-.237-.057-.057-.077-.113-.021-.057-.021-.113 0-.098.072-.191.077-.093.18-.093.072 0 .129.031.057.026.093.052.103.082.227.144.129.057.289.057.18 0 .284-.057.103-.057.103-.186 0-.108-.098-.175-.098-.072-.237-.119-.139-.052-.278-.103-.026-.005-.124-.041-.098-.036-.247-.129-.149-.093-.247-.232-.098-.139-.098-.361 0-.165.072-.304.072-.144.201-.247.129-.103.309-.16.18-.062.392-.062.304 0 .5.082.196.082.314.201.057.057.077.119.026.062.026.113 0 .088-.067.186-.062.093-.175.093-.052 0-.108-.026-.052-.026-.103-.062-.067-.046-.175-.098-.108-.057-.273-.057-.139 0-.242.052-.098.046-.098.165 0 .098.098.16.098.057.237.108.144.052.299.108.015.005.108.041.093.031.242.124.149.088.247.227.098.139.098.345 0 .18-.077.335-.072.155-.206.268-.134.113-.325.18-.186.062-.418.062-.32 0-.541-.088z"/></g><defs ><path id="B" d="M7.565 6.4q-.218-.097-.375-.259-.153-.167-.241-.389-.088-.222-.088-.481 0-.259.088-.481.088-.227.241-.389.157-.167.375-.259.218-.097.481-.097.259 0 .477.097.218.093.375.259.157.162.245.389.088.222.088.481 0 .259-.088.481-.088.222-.245.389-.157.162-.375.259-.218.093-.477.093-.264 0-.481-.093zm.032-.634q.079.097.19.157.111.056.259.056.148 0 .259-.056.111-.056.185-.153.079-.097.116-.222.042-.13.042-.273 0-.148-.042-.278-.037-.13-.116-.227-.074-.097-.185-.153-.111-.056-.259-.056-.148 0-.259.056-.111.051-.19.148-.074.093-.116.222-.037.125-.037.273 0 .143.037.273.042.13.116.231z"/><path id="C" d="M10.301 6.173q0 .125-.083.199-.083.074-.199.074-.12 0-.204-.074-.079-.074-.079-.199V4.345q0-.106.065-.18.069-.074.199-.074.268 0 .268.255v.157q.097-.194.268-.324.176-.134.421-.134.162 0 .227.074.069.074.069.176 0 .116-.065.194-.065.079-.208.079-.13 0-.255.046-.12.042-.218.13-.093.088-.153.227-.056.134-.056.319z"/><path id="D" d="M7.133 7.511q-.093-.082-.093-.247 0-.16.093-.247.093-.093.242-.093.149 0 .247.088.098.088.098.253 0 .175-.098.253-.098.077-.247.077-.144 0-.242-.082zm.552 2.165q0 .103.026.175.031.067.108.067.088 0 .124.077.036.077.036.165 0 .149-.093.242-.088.088-.268.088-.263 0-.412-.175-.149-.18-.149-.598V8.176q0-.129.088-.216.088-.093.227-.093.139 0 .227.093.088.088.088.216z"/></defs></svg>