<svg xmlns="http://www.w3.org/2000/svg" width="26.03" height="28.766" viewBox="0 0 6.887 7.611" xmlns:v="https://vecta.io/nano"><path d="M1.169 7.266c-.114.364-.663.482-.88.148-.143-.204-.088-.458.024-.659l.485-1.119c-.262-.003-.612.049-.744-.241-.169-.32.076-.776.458-.733h.71l.72-1.64c-.28-.008-.65.063-.804-.241-.186-.33.101-.787.485-.733h.742L3.162.244c.183-.376.825-.304.896.113.048.321-.169.592-.271.882l-.354.809h1.556L5.791.244a.5.5 0 0 1 .865.015c.146.333-.111.639-.217.942l-.37.847c.256.002.571-.043.732.211.236.312-.045.806-.435.763h-.72l-.72 1.64c.273.011.619-.065.79.211.22.312-.036.808-.43.763h-.784l-.743 1.703c-.175.337-.736.364-.884-.009-.14-.334.112-.639.219-.942l.328-.751H1.878l-.709 1.63zm1.132-2.603h1.545l.72-1.64H3.01l-.709 1.64z" fill="#fff"/></svg>