<svg xmlns="http://www.w3.org/2000/svg" width="636.801" height="519.961" viewBox="0 0 168.487 137.573" fill="#fff" xmlns:v="https://vecta.io/nano"><path d="M26.402 32.943c21.029-1.256 38.54-14.071 56.621-23.45 13.802-7.426 30.049-11.987 45.635-8.039 14.818 3.397 29.611 12.003 35.767 26.556 4.544 10.626 5.481 23.075 1.768 34.079-6.998 16.815-29.624 24.824-45.404 15.382-10.098-5.199-14.536-17.228-13.46-28.074-.073-7.354 3.992-15.4 11.68-17.107 5.03-1.899 14.017 1.054 16.335 1.905-10.669-6.587-23.812-3.916-35.149-.804-17.609 5.018-36.103 10.483-54.509 6.503-6.725-1.353-13.217-3.764-19.285-6.95zM0 72.227c4.076-1.85 6.573-5.725 9.446-8.962 2.172-2.524 5.048-4.666 8.44-5.069 3.198-.454 6.787.127 9.116 2.544 1.71 1.762 2.844 4.16 2.945 6.625-.108 3.868-3.986 7.18-7.835 6.508-2.399-.262-4.195-2.311-4.807-4.544-.574-1.453-.381-3.359 1.014-4.283.853-.76 2.861-.858 3.385-.866-2.618-.494-5.021 1.036-7.033 2.517-3.111 2.336-6.363 4.828-10.317 5.44-1.437.244-2.908.26-4.354.09zm10.089 8.341c5.991-1.291 11.899.933 17.699 2.148 4.448 1.003 9.357 1.012 13.416-1.312 3.887-2.109 7.36-5.677 7.948-10.236.443-3.333-.267-6.895-2.167-9.688-3.275-4.165-10.241-4.642-13.925-.764-2.424 2.246-2.728 5.963-1.579 8.919.554 2.067 2.322 4.004 4.61 3.882 1.558.139 3.846-1.39 4.429-1.81-2.475 2.679-6.367 2.958-9.787 2.971-5.327-.031-10.936-.117-15.783 2.436-1.779.904-3.41 2.087-4.861 3.454zm8.156-28.378c8.773.382 16.583-4.18 24.482-7.292 6.041-2.486 12.973-3.68 19.265-1.375 5.998 2.044 11.761 6.248 13.689 12.545 1.428 4.601 1.282 9.802-.73 14.205-3.623 6.671-13.348 9.021-19.485 4.429-3.964-2.589-5.287-7.767-4.376-12.217.285-3.052 2.316-6.214 5.577-6.591 2.167-.572 5.766 1.039 6.691 1.491-4.141-3.189-9.704-2.646-14.538-1.842-7.516 1.325-15.418 2.797-22.878.357-2.73-.849-5.318-2.128-7.697-3.709zM34.29 88.235c11.372-.495 21.496 5.418 31.736 9.453 7.831 3.223 16.817 4.771 24.974 1.782 7.775-2.65 15.247-8.099 17.745-16.263 1.851-5.964 1.662-12.707-.946-18.414-4.697-8.648-17.303-11.694-25.258-5.741-5.138 3.356-6.854 10.068-5.672 15.837.37 3.957 3.003 8.055 7.229 8.544 2.809.741 7.475-1.346 8.673-1.933-5.368 4.134-12.58 3.43-18.846 2.388-9.743-1.717-19.987-3.625-29.658-.462-3.539 1.101-6.894 2.758-9.978 4.808zm-16.52 46.417q0 1.12-.72 1.84-.68.68-1.8.68-1.12 0-1.84-.68-.68-.72-.68-1.84v-22.565q0-1.12.68-1.8.72-.72 1.84-.72 1.12 0 1.8.72.72.68.72 1.8zm25.125-.04q0 1.36-.68 1.96-.68.6-1.84.6-1.2 0-1.8-.68-.6-.72-.6-1.68v-1.64q-1 2.08-2.641 3.241-1.64 1.16-4.001 1.16-1.8 0-3.441-.68-1.6-.72-2.841-2.08-1.24-1.36-1.96-3.281-.72-1.96-.72-4.441 0-2.481.72-4.441.76-2 2.04-3.361 1.28-1.4 2.961-2.12 1.68-.76 3.561-.76 2.561 0 4.041 1.16 1.48 1.12 2.28 2.921v-8.522q0-1.04.72-1.72.72-.68 1.76-.68 1.04 0 1.72.68.72.68.72 1.72zm-13.963-3.121q.72.76 1.68 1.2.96.44 2.08.44 1.08 0 2.04-.4 1-.44 1.72-1.2.72-.8 1.12-1.92.44-1.16.44-2.561 0-2.801-1.52-4.481-1.48-1.68-3.801-1.68-2.481 0-3.881 1.72-1.4 1.68-1.4 4.441 0 1.4.4 2.521.4 1.12 1.12 1.92zm20.084-17.443q-.72-.64-.72-1.92 0-1.24.72-1.92.72-.72 1.88-.72 1.16 0 1.92.68.76.68.76 1.96 0 1.36-.76 1.96-.76.6-1.92.6-1.12 0-1.88-.64zm4.281 16.804q0 .8.2 1.36.24.52.84.52.68 0 .96.6.28.6.28 1.28 0 1.16-.72 1.88-.68.68-2.08.68-2.04 0-3.201-1.36-1.16-1.4-1.16-4.641v-11.963q0-1 .68-1.68.68-.72 1.76-.72 1.08 0 1.76.72.68.68.68 1.68zm10.643 5.921q-1.88-.84-3.241-2.24-1.32-1.44-2.08-3.361-.76-1.92-.76-4.161 0-2.24.76-4.161.76-1.96 2.08-3.361 1.36-1.44 3.241-2.24 1.88-.84 4.161-.84 2.24 0 4.121.84 1.88.8 3.241 2.24 1.36 1.4 2.12 3.361.76 1.92.76 4.161 0 2.24-.76 4.161-.76 1.92-2.12 3.361-1.36 1.4-3.241 2.24-1.88.8-4.121.8-2.28 0-4.161-.8zm.28-5.481q.68.84 1.64 1.36.96.48 2.24.48 1.28 0 2.24-.48.96-.48 1.6-1.32.68-.84 1-1.92.36-1.12.36-2.361 0-1.28-.36-2.401-.32-1.12-1-1.96-.64-.84-1.6-1.32-.96-.48-2.24-.48-1.28 0-2.24.48-.96.44-1.64 1.28-.64.8-1 1.92-.32 1.08-.32 2.361 0 1.24.32 2.36.36 1.12 1 2zm23.365 3.52q0 1-.68 1.68-.68.68-1.76.68-1.04 0-1.76-.64-.68-.68-.68-1.72v-15.603q0-1.08.68-1.72.68-.68 1.88-.68 1 0 1.64.56.68.56.68 1.64v1.12q.64-1.52 1.92-2.601 1.28-1.12 3.441-1.12 2.04 0 3.481 1.04 1.44 1 2.12 2.921.68-1.84 1.92-2.881 1.28-1.08 3.401-1.08 3.321 0 5.121 2.12 1.8 2.08 1.8 5.841v10.442q0 1-.72 1.68-.68.68-1.76.68-1.08 0-1.76-.68-.68-.68-.68-1.68V124.81q0-1.88-.92-2.881-.88-1.04-2.441-1.04-1.56 0-2.441 1.04-.88 1-.88 2.881v9.962q0 1.04-.68 1.72-.68.68-1.76.68-1.08 0-1.8-.68-.68-.68-.68-1.72v-9.962q0-1.88-.88-2.881-.88-1.04-2.481-1.04-1.56 0-2.441 1.04-.88 1-.88 2.881zm42.889-1.64q-.96 2.12-2.721 3.281-1.72 1.12-4.081 1.12-1.8 0-3.401-.72-1.6-.76-2.801-2.12-1.2-1.36-1.92-3.281-.68-1.96-.68-4.361 0-2.401.72-4.361.76-2 2-3.401 1.28-1.4 2.921-2.16 1.68-.76 3.521-.76 2.481 0 4.001 1.12 1.56 1.08 2.441 2.961v-1.6q0-.92.68-1.48.68-.6 1.8-.6 1.12 0 1.76.6.68.56.68 1.48v12.043q0 1.8 1 1.8.6 0 .92.52.36.48.36 1.4 0 2.521-3.081 2.521-2 0-2.921-1.04-.92-1.08-1.16-2.481zm-9.042-1.68q.72.8 1.68 1.24.96.4 2.08.4 1.08 0 2.04-.4 1-.44 1.72-1.2.72-.8 1.12-1.92.44-1.12.44-2.521 0-2.801-1.48-4.481-1.44-1.72-3.841-1.72-2.481 0-3.881 1.72-1.4 1.72-1.4 4.481 0 1.4.4 2.521.4 1.08 1.12 1.88zm22.164 5.401q-1.72-.68-2.801-1.84-.44-.44-.6-.88-.16-.44-.16-.88 0-.76.56-1.48.6-.72 1.4-.72.56 0 1 .24.44.2.72.4.8.64 1.76 1.12 1 .44 2.24.44 1.4 0 2.2-.44.8-.44.8-1.44 0-.84-.76-1.36-.76-.56-1.84-.92-1.08-.4-2.16-.8-.2-.04-.96-.32-.76-.28-1.92-1-1.16-.72-1.92-1.8-.76-1.08-.76-2.801 0-1.28.56-2.361.56-1.12 1.56-1.92 1-.8 2.401-1.24 1.4-.48 3.041-.48 2.361 0 3.881.64 1.52.64 2.441 1.56.44.44.6.92.2.48.2.88 0 .68-.52 1.44-.48.72-1.36.72-.4 0-.84-.2-.4-.2-.8-.48-.52-.36-1.36-.76-.84-.44-2.12-.44-1.08 0-1.88.4-.76.36-.76 1.28 0 .76.76 1.24.76.44 1.84.84 1.12.4 2.32.84.12.04.84.32.72.24 1.88.96 1.16.68 1.92 1.76.76 1.08.76 2.681 0 1.4-.6 2.601-.56 1.2-1.6 2.08-1.04.88-2.521 1.4-1.44.48-3.241.48-2.481 0-4.201-.68z"/></svg>