<svg xmlns="http://www.w3.org/2000/svg" width="636.801" height="381.997" viewBox="0 0 168.487 101.07" fill="#fff" xmlns:v="https://vecta.io/nano"><path d="M26.402 32.943c21.029-1.256 38.54-14.071 56.621-23.45 13.802-7.426 30.049-11.987 45.635-8.039 14.818 3.397 29.611 12.003 35.767 26.556 4.544 10.626 5.481 23.075 1.768 34.079-6.998 16.815-29.624 24.824-45.404 15.382-10.098-5.199-14.536-17.228-13.46-28.074-.073-7.354 3.992-15.4 11.68-17.107 5.03-1.899 14.017 1.054 16.335 1.905-10.669-6.587-23.812-3.916-35.149-.804-17.609 5.018-36.103 10.483-54.509 6.503-6.725-1.353-13.217-3.764-19.285-6.95zM0 72.227c4.076-1.85 6.573-5.725 9.446-8.962 2.172-2.524 5.048-4.666 8.44-5.069 3.198-.454 6.787.127 9.116 2.544 1.71 1.762 2.844 4.16 2.945 6.625-.108 3.868-3.986 7.18-7.835 6.508-2.399-.262-4.195-2.311-4.807-4.544-.574-1.453-.381-3.359 1.014-4.283.853-.76 2.861-.858 3.385-.866-2.618-.494-5.021 1.036-7.033 2.517-3.111 2.336-6.363 4.828-10.317 5.44-1.437.244-2.908.26-4.354.09zm10.089 8.341c5.991-1.291 11.899.933 17.699 2.148 4.448 1.003 9.357 1.012 13.416-1.312 3.887-2.109 7.36-5.677 7.948-10.236.443-3.333-.267-6.895-2.167-9.688-3.275-4.165-10.241-4.642-13.925-.764-2.424 2.246-2.728 5.963-1.579 8.919.554 2.067 2.322 4.004 4.61 3.882 1.558.139 3.846-1.39 4.429-1.81-2.475 2.679-6.367 2.958-9.787 2.971-5.327-.031-10.936-.117-15.783 2.436-1.779.904-3.41 2.087-4.861 3.454zm8.156-28.378c8.773.382 16.583-4.18 24.482-7.292 6.041-2.486 12.973-3.68 19.265-1.375 5.998 2.044 11.761 6.248 13.689 12.545 1.428 4.601 1.282 9.802-.73 14.205-3.623 6.671-13.348 9.021-19.485 4.429-3.964-2.589-5.287-7.767-4.376-12.217.285-3.052 2.316-6.214 5.577-6.591 2.167-.572 5.766 1.039 6.691 1.491-4.141-3.189-9.704-2.646-14.538-1.842-7.516 1.325-15.418 2.797-22.878.357-2.73-.849-5.318-2.128-7.697-3.709zM34.29 88.235c11.372-.495 21.496 5.418 31.736 9.453 7.831 3.223 16.817 4.771 24.974 1.782 7.775-2.65 15.247-8.099 17.745-16.263 1.851-5.964 1.662-12.707-.946-18.414-4.697-8.648-17.303-11.694-25.258-5.741-5.138 3.356-6.854 10.068-5.672 15.837.37 3.957 3.003 8.055 7.229 8.544 2.809.741 7.475-1.346 8.673-1.933-5.368 4.134-12.58 3.43-18.846 2.388-9.743-1.717-19.987-3.625-29.658-.462-3.539 1.101-6.894 2.758-9.978 4.808z"/></svg>