<svg xmlns="http://www.w3.org/2000/svg" width="26.956" height="16.891" viewBox="0 0 7.132 4.469" fill="#fff" xmlns:v="https://vecta.io/nano"><path d="M.237 0a.25.25 0 1 0 .025.5h6.615a.25.25 0 0 0 .219-.376A.25.25 0 0 0 6.878 0H.263a.25.25 0 0 0-.025 0zm1.325 1.323a.25.25 0 1 0 .023.5h3.969a.25.25 0 0 0 .219-.376.25.25 0 0 0-.219-.124H1.585a.25.25 0 0 0-.023 0zm.023 1.322a.25.25 0 0 0-.219.376.25.25 0 0 0 .219.124h3.969a.25.25 0 0 0 .219-.376.25.25 0 0 0-.219-.124zM.237 3.969a.25.25 0 1 0 .025.5h6.615a.25.25 0 0 0 .219-.376.25.25 0 0 0-.219-.124H.263a.25.25 0 0 0-.025 0z"/></svg>