<svg xmlns="http://www.w3.org/2000/svg" xmlns:xlink="http://www.w3.org/1999/xlink" width="250.496" height="307.143" viewBox="0 0 66.277 81.265" xmlns:v="https://vecta.io/nano"><path d="M.199 23.449c1.313 1.392 1.313 9.251 0 10.583 3.91-1.238 35.778-1.266 39.687 0 1.336.028 1.372 9.261 0 11.906 1.336-2.644 23.827-17.184 25.135-17.198-1.308.014-23.723-13.13-25.135-15.875 1.406 2.757 1.322 10.597 0 10.583-3.969 1.323-35.719 1.323-39.687 0zm64.823 23.813c-1.313 1.392-1.313 9.251 0 10.583-3.91-1.238-35.778-1.266-39.687 0-1.336.028-1.372 9.261 0 11.906C23.998 67.107 1.507 52.568.199 52.554c1.308.014 23.723-13.13 25.135-15.875-1.406 2.757-1.322 10.597 0 10.583 3.969 1.323 35.719 1.323 39.688 0z" fill="#fff"/><g fill="#fff"><path d="M3.575 8.622q-.714-.309-1.225-.868-.511-.559-.797-1.332-.285-.773-.285-1.725 0-.951.285-1.725.285-.785.797-1.332.511-.559 1.225-.856.714-.309 1.57-.309.868 0 1.582.309.714.297 1.225.856.511.547.797 1.332.285.773.285 1.725 0 .951-.285 1.725-.285.773-.797 1.332-.511.559-1.225.868-.714.297-1.582.297-.856 0-1.57-.297zm-.131-1.927q.309.357.737.559.428.202.963.202.535 0 .975-.202.44-.202.737-.559.309-.369.476-.88.167-.511.167-1.118 0-.618-.167-1.118-.167-.511-.476-.868-.309-.369-.749-.571-.428-.202-.963-.202-.535 0-.975.202-.428.202-.737.571-.297.357-.464.868-.167.5-.167 1.118 0 .607.167 1.118.167.511.476.88zm8.445 1.404q0 .321-.214.511-.214.19-.511.19-.309 0-.523-.19-.202-.19-.202-.511V3.401q0-.274.167-.464.178-.19.511-.19.69 0 .69.654v.404q.25-.5.69-.833.452-.345 1.082-.345.416 0 .583.19.178.19.178.452 0 .297-.167.5-.167.202-.535.202-.333 0-.654.119-.309.107-.559.333-.238.226-.392.583-.143.345-.143.821z"/><use xlink:href="#B"/><path d="M19.572 6.125q.095.714.523 1.094.44.381 1.094.381.25 0 .464-.048.226-.059.404-.143.178-.083.309-.167.143-.095.226-.155.214-.095.321-.095.274 0 .452.202.19.202.19.452 0 .178-.095.333-.095.143-.214.238-.345.285-.892.5-.547.202-1.284.202-.654 0-1.201-.226-.547-.238-.94-.654-.392-.416-.618-.987-.214-.571-.214-1.249 0-.654.226-1.237.226-.583.618-1.011.404-.428.951-.678.547-.25 1.177-.25.618 0 1.118.226.511.214.868.583.357.357.547.833.202.476.202.987 0 .381-.131.63-.119.238-.523.238zm2.807-.868q.012-.226-.071-.452-.083-.238-.262-.428-.167-.19-.416-.297-.25-.119-.571-.119-.571 0-.963.345-.392.333-.511.951z"/><use xlink:href="#C"/><path d="M34.058 6.755q0 .844.63.844.297 0 .44-.071.143-.083.285-.083.25 0 .381.19.131.19.131.369 0 .44-.297.63-.25.167-.547.226-.285.059-.666.059-.523 0-.88-.167-.345-.178-.559-.464-.202-.285-.297-.654-.083-.381-.083-.773V4.043h-.333q-.285 0-.476-.167-.178-.178-.178-.476 0-.297.19-.476.19-.178.464-.178h.333V1.89q0-.297.202-.5.214-.202.535-.202.309 0 .511.202.214.202.214.5v.856h.999q.274 0 .464.178.19.178.19.476 0 .297-.19.476-.19.167-.464.167h-.999zm7.148.856q-.285.63-.809.975-.511.333-1.213.333-.535 0-1.011-.214-.476-.226-.833-.63-.357-.404-.571-.975-.202-.583-.202-1.296 0-.714.214-1.296.226-.595.595-1.011.381-.416.868-.642.5-.226 1.047-.226.737 0 1.189.333.464.321.725.88v-.476q0-.274.202-.44.202-.178.535-.178.333 0 .523.178.202.167.202.44v3.58q0 .535.297.535.178 0 .274.155.107.143.107.416 0 .749-.916.749-.595 0-.868-.309-.274-.321-.345-.737zm-2.688-.5q.214.238.5.369.285.119.618.119.321 0 .607-.119.297-.131.511-.357.214-.238.333-.571.131-.333.131-.749 0-.833-.44-1.332-.428-.511-1.142-.511-.737 0-1.154.511-.416.511-.416 1.332 0 .416.119.749.119.321.333.559zm10.859.274q0 .369-.25.618-.143.167-.345.333-.202.167-.464.297-.262.131-.595.202-.333.083-.749.083-.678 0-1.225-.238-.547-.25-.94-.666-.381-.428-.595-.999-.202-.583-.202-1.249 0-.666.226-1.237.226-.571.618-.987.392-.428.928-.666.547-.25 1.189-.25.714 0 1.284.25.583.25.963.749.226.297.226.583 0 .345-.214.5-.202.143-.416.143-.202 0-.321-.071-.119-.071-.202-.155-.071-.071-.178-.178-.107-.119-.274-.226-.155-.107-.369-.178-.202-.083-.488-.083-.357 0-.63.155-.274.143-.464.404-.19.25-.285.583-.095.321-.095.678 0 .357.095.69.095.321.285.583.19.25.452.404.274.143.63.143.381 0 .69-.167.309-.178.595-.452.143-.131.262-.167.131-.048.214-.048.214 0 .428.155.214.155.214.464z"/><use xlink:href="#B" x="35.37"/><path d="M55.287 8.682q-.559-.25-.963-.666-.392-.428-.618-.999-.226-.571-.226-1.237 0-.666.226-1.237.226-.583.618-.999.404-.428.963-.666.559-.25 1.237-.25.666 0 1.225.25.559.238.963.666.404.416.63.999.226.571.226 1.237 0 .666-.226 1.237-.226.571-.63.999-.404.416-.963.666-.559.238-1.225.238-.678 0-1.237-.238zm.083-1.629q.202.25.488.404.285.143.666.143.381 0 .666-.143.285-.143.476-.392.202-.25.297-.571.107-.333.107-.702 0-.381-.107-.714-.095-.333-.297-.583-.19-.25-.476-.392-.285-.143-.666-.143-.381 0-.666.143-.285.131-.488.381-.19.238-.297.571-.095.321-.095.702 0 .369.095.702.107.333.297.595zm.642-4.864q-.167.119-.297.119-.202 0-.321-.143-.119-.155-.119-.321 0-.214.19-.404L56.715.238q.095-.095.214-.167Q57.06 0 57.214 0q.25 0 .44.19.202.19.202.428 0 .333-.262.511z"/><use xlink:href="#C" x="35.715"/></g><g fill="#fff"><path d="M4.561 80.504q-.112.287-.299.461-.174.174-.499.174-.312 0-.511-.174-.187-.174-.299-.461L.062 73.637q-.025-.062-.05-.15-.012-.1-.012-.212 0-.312.237-.523.237-.212.523-.212.523 0 .735.523l2.318 5.658 2.268-5.708q.062-.174.212-.324.162-.15.424-.15.361 0 .573.174.224.162.224.486 0 .137-.037.249l-.075.224z"/><use xlink:href="#D"/><use xlink:href="#E"/><use xlink:href="#F"/><use xlink:href="#E" x="14.407"/><path d="M36.503 73.936q-.224-.199-.224-.598 0-.386.224-.598.224-.224.586-.224.361 0 .598.212.237.212.237.611 0 .424-.237.611-.237.187-.598.187-.349 0-.586-.199zm1.334 5.234q0 .249.062.424.075.162.262.162.212 0 .299.187.087.187.087.399 0 .361-.224.586-.212.212-.648.212-.636 0-.997-.424-.361-.436-.361-1.446v-3.726q0-.312.212-.523.212-.224.548-.224.336 0 .548.224.212.212.212.523z"/><use xlink:href="#D" x="31.693"/><path d="M48.518 80.405q0 .312-.212.523-.212.212-.548.212-.312 0-.536-.199-.224-.212-.224-.536v-4.948q0-.237.187-.449.187-.212.586-.212.399 0 .573.199.174.199.174.449v.386q.237-.561.735-.86.499-.299 1.134-.299 1.084 0 1.682.685.598.673.598 1.857v3.191q0 .312-.224.523-.212.212-.548.212-.324 0-.548-.212-.212-.212-.212-.523V77.75q0-.823-.349-1.246-.336-.436-.947-.436-.623 0-.972.449-.349.436-.349 1.271z"/><use xlink:href="#F" x="32.416"/><path d="M63.648 79.171q0 .249.062.424.075.162.262.162.212 0 .299.187.087.187.087.399 0 .361-.224.586-.212.212-.648.212-.636 0-.997-.424-.361-.436-.361-1.446v-5.982q0-.312.212-.523.212-.224.548-.224.337 0 .548.224.212.212.212.523z"/></g><defs ><path id="B" d="M15.481 1.926q-.214-.19-.214-.571 0-.369.214-.571.214-.214.559-.214.345 0 .571.202.226.202.226.583 0 .404-.226.583-.226.178-.571.178-.333 0-.559-.19zm1.273 4.995q0 .238.059.404.071.155.25.155.202 0 .285.178.083.178.083.381 0 .345-.214.559-.202.202-.618.202-.607 0-.951-.404-.345-.416-.345-1.38V3.461q0-.297.202-.5.202-.214.523-.214.321 0 .523.214.202.202.202.5z"/><path id="C" d="M26.601 8.099q0 .297-.202.5-.202.202-.523.202-.297 0-.511-.19-.214-.202-.214-.511V3.377q0-.226.178-.428.178-.202.559-.202.381 0 .547.19.167.19.167.428v.369q.226-.535.702-.821.476-.285 1.082-.285 1.035 0 1.606.654.571.642.571 1.772v3.045q0 .297-.214.5-.202.202-.523.202-.309 0-.523-.202-.202-.202-.202-.5V5.566q0-.785-.333-1.189-.321-.416-.904-.416-.595 0-.928.428-.333.416-.333 1.213z"/><path id="D" d="M9.459 81.015q-.586-.262-1.009-.698-.411-.449-.648-1.047-.237-.598-.237-1.296 0-.698.237-1.296.237-.611.648-1.047.424-.449 1.009-.698.586-.262 1.296-.262.698 0 1.284.262.586.249 1.009.698.424.436.661 1.047.237.598.237 1.296 0 .698-.237 1.296-.237.598-.661 1.047-.424.436-1.009.698-.586.249-1.284.249-.71 0-1.296-.249zm.087-1.707q.212.262.511.424.299.15.698.15.399 0 .698-.15.299-.15.499-.411.212-.262.312-.598.112-.349.112-.735 0-.399-.112-.748-.1-.349-.312-.611-.199-.262-.499-.411-.299-.15-.698-.15-.399 0-.698.15-.299.137-.511.399-.199.249-.312.598-.1.336-.1.735 0 .386.1.735.112.349.312.623z"/><path id="E" d="M20.551 79.657q0 .386-.262.648-.15.174-.361.349-.212.174-.486.312-.274.137-.623.212-.349.087-.785.087-.71 0-1.284-.249-.573-.262-.985-.698-.399-.449-.623-1.047-.212-.611-.212-1.309 0-.698.237-1.296.237-.598.648-1.034.411-.449.972-.698.573-.262 1.246-.262.748 0 1.346.262.611.262 1.009.785.237.312.237.611 0 .361-.224.523-.212.15-.436.15-.212 0-.336-.075-.125-.075-.212-.162-.075-.075-.187-.187-.112-.125-.287-.237-.162-.112-.386-.187-.212-.087-.511-.087-.374 0-.661.162-.287.15-.486.424-.199.262-.299.611-.1.336-.1.71 0 .374.1.723.1.336.299.611.199.262.474.424.287.15.661.15.399 0 .723-.174.324-.187.623-.474.15-.137.274-.174.137-.05.224-.05.224 0 .449.162.224.162.224.486z"/><path id="F" d="M26.396 79.894q-.299.661-.847 1.022-.536.349-1.271.349-.561 0-1.059-.224-.499-.237-.872-.661-.374-.424-.598-1.022-.212-.611-.212-1.358 0-.748.224-1.358.237-.623.623-1.059.399-.436.91-.673.523-.237 1.097-.237.773 0 1.246.349.486.336.76.922v-.499q0-.287.212-.461.212-.187.561-.187.349 0 .548.187.212.174.212.461v3.751q0 .561.312.561.187 0 .287.162.112.15.112.436 0 .785-.96.785-.623 0-.91-.324-.287-.336-.361-.773zm-2.817-.523q.224.249.523.386.299.125.648.125.336 0 .636-.125.312-.137.536-.374.224-.249.349-.598.137-.349.137-.785 0-.872-.461-1.396-.449-.536-1.196-.536-.773 0-1.209.536-.436.536-.436 1.396 0 .436.125.785.125.336.349.586z"/></defs></svg>