<svg xmlns="http://www.w3.org/2000/svg" width="245" height="214.998" viewBox="0 0 64.823 56.885" fill="#fff" xmlns:v="https://vecta.io/nano"><path d="M0 10.583c1.313 1.392 1.313 9.251 0 10.583 3.91-1.238 35.778-1.266 39.687 0 1.336.028 1.372 9.261 0 11.906 1.336-2.644 23.827-17.184 25.135-17.198C63.515 15.889 41.1 2.745 39.687 0c1.406 2.757 1.322 10.597 0 10.583-3.969 1.323-35.719 1.323-39.687 0zm64.823 23.813c-1.313 1.392-1.313 9.251 0 10.583-3.91-1.238-35.778-1.266-39.688 0-1.336.028-1.372 9.261 0 11.906C23.799 54.241 1.308 39.702 0 39.688c1.308.014 23.723-13.13 25.135-15.875-1.406 2.757-1.322 10.597 0 10.583 3.969 1.323 35.719 1.323 39.688 0z"/></svg>