<?xml version="1.0" encoding="UTF-8" standalone="no"?>
<svg
   xmlns:dc="http://purl.org/dc/elements/1.1/"
   xmlns:cc="http://creativecommons.org/ns#"
   xmlns:rdf="http://www.w3.org/1999/02/22-rdf-syntax-ns#"
   xmlns:svg="http://www.w3.org/2000/svg"
   xmlns="http://www.w3.org/2000/svg"
   xmlns:xlink="http://www.w3.org/1999/xlink"
   xmlns:sodipodi="http://sodipodi.sourceforge.net/DTD/sodipodi-0.dtd"
   xmlns:inkscape="http://www.inkscape.org/namespaces/inkscape"
   width="1477.54"
   height="1477.54"
   viewBox="0 0 1108.155 1108.155"
   preserveAspectRatio="xMidYMid meet"
   version="1.1"
   id="svg25"
   sodipodi:docname="3O1xD601.svg"
   inkscape:version="0.92.5 (2060ec1f9f, 2020-04-08)">
  <metadata
     id="metadata29">
    <rdf:RDF>
      <cc:Work
         rdf:about="">
        <dc:format>image/svg+xml</dc:format>
        <dc:type
           rdf:resource="http://purl.org/dc/dcmitype/StillImage" />
      </cc:Work>
    </rdf:RDF>
  </metadata>
  <sodipodi:namedview
     pagecolor="#ffffff"
     bordercolor="#666666"
     borderopacity="1"
     objecttolerance="10"
     gridtolerance="10"
     guidetolerance="10"
     inkscape:pageopacity="0"
     inkscape:pageshadow="2"
     inkscape:window-width="708"
     inkscape:window-height="480"
     id="namedview27"
     showgrid="false"
     inkscape:zoom="0.19466478"
     inkscape:cx="199.38122"
     inkscape:cy="738.77002"
     inkscape:window-x="224"
     inkscape:window-y="79"
     inkscape:window-maximized="0"
     inkscape:current-layer="svg25" />
  <path
     d="M968.828 1088.28a374.25 15.375 0 0 1-374.25 15.375 374.25 15.375 0 0 1-374.25-15.375 374.25 15.375 0 0 1 374.25-15.375 374.25 15.375 0 0 1 374.25 15.375z"
     paint-order="normal"
     id="path2"
     style="fill:#ffffff" />
  <path
     d="M107.878 14.4c35.331 45.536-59.759 5.607-19.8 26.5 51.715 9.589-59.891 37.043-1.896 27.062 40.077-26.33 2.665 65.801 25.035 17.467 8.383-25.509 57.871 31.194 24.361-7.628 6.536-28.399 72.549 31.59 32.9-2.9-32.01-17.568-8.702-33.054-2.3-35.35-30.591 8.975-24.094-16.776-15.8-30.35-15.611 32.819-38.114 21.885-43.5-9.2-4.714 3.798.681 10.444 1 14.399zm25.2 23.6c46.949 44.575-66.1 39.748-13.9.6l8.338-1.425zm-8.1 7.1c1.141 15.469 11.779-5.598 0 0zm-9.2 3.2c.476 16.22 12.337-5.561 0 0zm15.9 6.6c-28.258 4.834-22.089 16.111 3.262 4.538 9.029-1.744-.243-14.617-3.262-4.538zm393.9-41.9c-7.886 18.648-13.18-1.357-35.562 11.938-3.291-5.218-37.99 25.245-27.437 28.063 1.941 7.024 11.014 43.983 8.15 24.4 29.69 4.171 8.603 20.682 20.65 19.2 27.226 5.225 40.298-5.705 29.3 11.4 3.798 8.176-19.604 78.315-2.205 46.261 10.421-34.823 26.999-56.429 51.505-78.761 6.132-30.992 11.345-21.839-6.437-36.45 18.076.417-30.715-32.268-26.662-11.85-15.257 3.513-6.109-16.708-11.3-14.2zm-28.5 17.2c5.676 9.374-12.959-2.107 0 0zm36.5 2.8c-15.585 4.231 2.394-9.912 0 0zm-14.6-2.1c-8.622 22.295-22.578.66 0 0zm24.9.1c2.451 7.157-13.985-3.456 0 0zm-17.5 5.8c-18.902 19.835-15.463 30.518-16.8 47.7 14.627 16.047-17.809 1.268-9.2-14.5-14.798 8.157-15.822-20.975-10.812-34.45 5.822 28.523 26.917 1.325 36.813 1.25zm13.8.7c20.511-3.974 13.317 24.202-.6 21.5-15.576 22.233 15.766 8.051 23.633-9.641 7.376 10.777-17.308 22.174-9.633 32.141-8.944-24.544-37.911 30.224-22.362-11.162-33.345.922 8.928-12.005 9.962-24.538 15.177-6.597-35.549-4.644-1-8.3zm-41.6 0c3.394 2.649 4.435 4.932-3.1 3.5-5.582 2.145 2.86-8.543 3.1-3.5zm-15.7 3.1c-5.03 2.621.381-6.27 0 0zm-4.3 2.3c-2.96 7.557-6.356-5.421 0 0zm-6.7 3.6c-4 4.794-4.553-4.762 0 0zm53.5 1.2c-6.746 11.226-4.014-9.265 0 0zm12.2-.7c.325 19.08-14.807-1.73 0 0zm-55.6 3c-1.879 25.907-15.405 10.392 0 0zm-10.1 1.7c-.854 7.145-6.183-3.01 0 0zm46.7 5.1c-4.102 12.767-7.148-7.397 0 0zm-31 10.2c-4.213 9.255-6.416-7.334 0 0zm-6.7.5c-4 4.794-4.553-4.762 0 0zm85.9 0c-2.78 4.623-2.78-4.623 0 0zm-78.2 5.5c22.127 19.286-28.156-4.462 0 0zm39 4.7c-1.559 6.909-1.633-8.426 0 0zm-4.7.7c-2.078 9.304-6.782-5.237 0 0zm-5.5 3.9c-2.604 6.373-5.413-6.752 0 0zm34.2 4.5c-2.364 15.151-17.284 1.756 0 0zm-50 3.3c-4.514 6.618-2.1-8.546 0 0zm33 7.5c-5.704 5.905-2.016-6.428 0 0zm-41-46.1c-6.249 25.904 11.796-7.52 0 0zm8 2c2.052 8.217 4.323-8.86 0 0zm3.6 5.8c-13.396 8.476 4.049 11.76 0 0zm21.6 1.9c-4.44 9.311 7.388-4.579 0 0z"
     id="path4"
     style="fill:#ffffff" />
  <use
     xlink:href="#A"
     id="use6"
     style="fill:#ffffff" />
  <path
     d="M623.578 25.6c.465 16.787-29.134-9.129-12.6 20.6-55.888 24.974 49.178 79.155 27.3 12.3-3.21-7.058 2.273-51.768-14.7-32.9zm7 18c29.395 49.747-46.467 46.066-24.2 14.1 5.914-7.487 17.748.141 7-21.1 14.259 23.562 7.42 5.756 14.8-4l2.063 2.763zm28.5-9.1c-23.376 43.339 53.47 5.339 9.4-5.4l-4.587.712zm12.4 2.6c-11.034 6.133 16.155 11.199-9.1 9.5-9.668-5.345 11.178-15.453 9.1-9.5zm40.1-.1c-10.822 18.691-7.96 41.542-27.888 60.662-2.182 25.633 2.134 60.033 14.587 36.537 28.392-9.842 24.201 16.626 31.6 20.6-18.195-3.315 24.431 17.997-11.194 8.525 2.474-22.958-14.54 23.294 13.394 5.175-6.677 21.835.092 41.909 3.538 6.925-5.968-20.228 41.626.801 35.462 1.813-6.529 30.118-.111 105.652-31 48.762-23.969-.143-46.672-78.108-36.7-29.8 17.537 18.285 61.102 72.289 57 66.3 14.826-30.062 7.104-71.261 23-96.3-15.832-9.45-9.313-52.914-11.275-5.262-21.737 16.936-22.079-10.791-23.125-9.937-22.087-21.271 41.802 29.148 9.9-6.5 9.083-35.147-56.358-3.067-38.1-35.3 26.738-3.077 16.087 21.785 21.6-4.7 31.723 12.403-18.524-30.108-19.8-3-11.159-35.033-39.61 38.554-11.6 8.5 28.709 42.419-52.779 13.332-18.047-21.328 8.921-11.649 55.065-44.257 18.647-51.672zm6.2 5.7c11.276 45.775-31.798-.033 0 0zm-3.2 53.3c-2.719 6.886-2.647-6.674 0 0zm34.8 33.6c26.369 32.451-25.79-1.726 0 0zm-12.2 3.9c15.892 23.011-26.288-9.52 0 0zm-4.2 7.4c-6.161 10.747-14.817-.916 0 0zm8.3 14.1c5.157 27.23-15.898-25.529 0 0zm-379.4-109.4c33.748 9.273-29.702 20.35-1.1 20.4 30.389 12.665-63.576 15.538-18.725 48.113 25.606-9.571 70.378-30.444 92.125-43.712-14.495-52.479-56.062 18.792-67.6-9.8 13.853 4.846 29.202-20.476 8.837-10.712-3.934-.979-9.619-9.4-13.538-4.288zm58.4 11.6c25.541 32.504-68.367 29.057-21.2 7.2 6.79-2.038 13.894-16.336 21.2-7.2zm-39.9 19.1c12.375 30.519-46.261 29.216-28.7 7.9 10.163.406 20.215-8.768 28.7-7.9zm-35.3 13.7c-4.183 15.694-10.349-2.895 0 0zm6.3 9.4c-7.484 18.574-13.73-5.689 0 0zm-3.6 10.1c-2.78 4.623-2.78-4.623 0 0zm105.1-51.9c6.197 10.545 15.581-7.666 0 0z"
     id="path8"
     style="fill:#ffffff" />
  <use
     xlink:href="#A"
     x="42"
     y="45"
     id="use10"
     style="fill:#ffffff" />
  <path
     d="M454.278 75.7c-3.666 9.289 5.344 4.056 0 0zm-3 8c-23.799 53.886-2.266 115.03 34.4 157.3 8.977 34.161-29.45 73.739-4.2 108.5 8.512 44.04-12.578-31.451-31.452-33.821-13.974-22.346-55.79-25.804-56.262-53.082 5.81-28.226-8.884-49.492-27.39-68.306-16.889-23.112-47.385-40.117-41.821-73.154-6.846-41.442-10.743 40.768 8.816 44.167 24.175 24.306 76.199 85.985 38.709 103.196-61.277-21.151-134.443-19.007-184.923-64.57-34.655-17.744 27.143 36.041 44.323 36.07 28.403 14.446 65.396 15.655 91.738 23.275-36.572-1.325-49.421 49.918-79.617 65.397-30.69 1.753-44.8 13.814-6.483 5.516 42.226-14.236 64.831-84.308 120.262-64.187 41.237 10.169 75.302 40.23 100.5 72.8 14.849 33.637 29.975 67.015 41.063 101.912-28.209 9.06-59.335 10.931-84.598-8.042-26.933-12.332-49.943-32.83-76.749-44.459-19.796.898-81.323 12.622-30.116 8.389 23.331-7.061 43.42 2.004 60.628 17.445 21.242 16.968 51.557 20.546 10.651 30.955-22.672 18.847-32.841 23.987-29.778-9.7-10.743-36.698-48.854-32.349-66.813-3.374 2.348 18.748-11.027 53.51 23.585 42.935 47.027 13.594 78.734-51.581 123.128-24.361 34.342 18.877 86.747-15.406 89.1 41.7 16.121 38.199 34.899 75.561 49.971 113.927-32.928-39.432-101.451-27.836-134.358-33.152 38.552-4.937 95 15.824 72.988-43.975 7.137-39.924-4.319-65.8-49.314-49.009-28.053.974-89.606 17.851-85.886 11.209 6.702 38.661 23.175 103.611-39.145 93.072-22.012-11.141-45.563-20.294-3.955-21.272 51.833-4.619 31.721-84.291.35-81.363 28.792 9.149 34.419 79.611 19.95 23.262-24.661-48.71-95.798 8.99-53.391 43.311 21.872 32.417-26.457 10.791-27.609-14.711-17.02-22.396-23.678-54.84-46.3-71.5-20.581-12.512-58.166-20.944-15.738-2.25 32.982 8.212 35.469 47.815 51.811 72.7 10.755 27.485 24.324 52.565 55.927 58.95-36.628 4.47-76.529 8.106-111.225-6.888 18.687-.084 72.532-8.161 30.131-31.669-18.876-18.958 6.887-67.998-33.244-44.812 15.851 29.987-15.876 85.765-46.862 55.369-17.216-8.264-70.846-54.226-30.237-14.812 30.499 25.651 70.711 38.81 107.588 49.862-20.802 14.318-36.471 42.393-63.65 41.85-18.147 1.78-79.696 6.867-26.424 6.109 32.068 5.708 57.549-6.803 78.129-30.606 19.268-28.845 52.711-8.409 80.995-16.804 41.087 1.763 85.359-6.462 124.05-7.575-38.689 25.905-65.763 65.366-98.787 97.913-21.514 4.664-101.442 17.582-37.762 12.337 53.098 3.443 76.558-52.212 115.1-78.575 14.646-14.354 28.637-30.021 51.375-25.263 47.887-8.839 92.672 17.921 130.125 44.563 12.256 18.134 33.655 43.598-1.751 25.782-22.516 13.693-97.678-23.041-81.249-16.382 14.269 22.795 38.679 19.983 61.612 20.951 20.376-1.098 41.92 1.684 49.888 23.849 16.297 33.673 27.901 68.534 26.55 106.513 8.681 33.685-43.351-21.756-63.625-8.212-38.198-11.383-85.818 14.172-116.639-19.868-18.913-18.382-83.611-56.667-72.086-63.432 46.677-5.103-1.742-72.559-27.5-35-33.755 24.903 39.031 42.061.8 42.1-47.016 5.987 39.557-3.137 44 18.3l73 65.6c-39.308 12.695-80.463 33.946-123.212 32.827-36.329 12.128-89.246-30.664-94.788-24.427 34.156 32.742 78.801 35.046 123.6 31 46.591-8.366 90.971-26.768 138.087-31.8-7.646 14.813-47.015 20.85-17.687 27.7 31.61 26.428-3.788-39.269 42.3-30 37.021.854-16.817 55.026-37.8 53.3-39.067 1.061 24.576 17.614 1.3 32-12.871 11.512-3.381-44.011-8.975 3.475-24.16 15.53 4.39 29.837 14.884 37.687-18.017-9.3-10.018 5.836 3.258 11.983-11.981.539 23.421 18.294 5.668 29.786-23.801-9.885-37.844-40.236-31.635-41.632-9.427 29.465 57.075 76.22 38.138 16.587 13.344-4.059-22.53-10.659 5.862-8.587-.223-19.716-32.821-1.344-12.7-16.85 25.439 10.864 36.788-37.606 6.5-24.35 6.421 2.609 30.973 13.943-2.1 17.1-40.7 7.057-5.752-26.131-1.6-16.4 3.844-13.579-11.99-13.596-4.9-27.2-34.615 3.397 30.572-23.194 34.8-43.8 14.721-33.79 84.312 12.224 79 36.2-21.159 76.239-52.185 150.758-96.46 216.151 33.158.446 87.62 13.8 113.645-6.816 3.027-73.147 18.556-145.605 25.215-218.648 36.888-32.312 76.495-63.753 98.1-109.187 31.61-4.737 42.907-2.54 30.5 31.6-19.298 13.108-11.861 51.981-44.5 42.7 3.161-20.449 8.597-55.753-5.1-20.1-15.332 31.634 24.215 78.418 33.3 28.9-1.533-16.754 53.655-14.517 22-45 2.368-33.421 6.846-44.373 43.8-52.638 21.183-5.403 37.315 4.179 52.175 17.85 8.177 27.932 81.227 21.175 25.1 15.05-18.697-17.236-47.756-42.986-64.675-43.763 33.485-23.098 47.45-64.127 68.4-97.6 25.168-6.325 99.679-15.747 91.725-8.675-31.861.127-63.684 1.965-95.525 2.975-19.695 34.068-41.44 66.771-72.888 91.087-18.203 18.33-95.939 27.533-58.413-12.587 25.853-51.006 2.217-109.071 4.653-163.464-4.72-29.184 3.462-85.156 40.437-80.125-8.707 31.468 32.459 63.839-4.789 88.689-7.995 56.229 61.819 8.027 19.438-15.15 21.449-19.109-35.222-75.985-.537-64.339 27.4 30.225 60.502 52.448 102.272 44.516 30.087 8.461 10.297-40.528 10.228-51.326 22.337-12.39-81.584-20.888-60 18.3 16.814 49.187-26.223 6.555-43.527-10.676-40.654-23.883 7.851-29.989 29.027-36.924 30.681-1.014 75.172-23.235 78.45-46.538-27.653 39.451-77.381 34.481-118.05 49.438-29.386-2.802-64.317 59.834-55.82 3.923-.598-49.424 8.235-99.595 42.71-137.324 17.559-32.404 66.246-69.092 76.111-89.498-31.958 29.644-72.07 52.139-88.375 94.475-21.675 28.24-30.393 69.579-40.225 97.525-33.119-10.865-10.823-7.269.141-14.426-3.38-33.878 5.033-69.077 10.609-98.124-8.98 15.692-25.249 69.464-14.65 20.95 1.302-47.29-25.59 44.992-5.7 0-1.233 36.43-21.655 30.082-12.987-1.075-3.481 44.812-7.33 22.325-11.85-2.837 2.347 42.396-17.221-40.254-12.462 4.613 11.129 21.578 6.741 55.464 2.278 73.948-36.561-3.963-22.1 3.572 8.622 6.252 59.379 8.363 33.226 72.453 39.337 115.209-2.953 31.548 15.198 97.531-35.138 59.991-49.558-5.213-111.408 1.213-143.153-45.62-38.997-37.033 20.14 36.568 36.553 38.62 44.633 10.452 91.458 16.746 133.415 34.713 13.363 14.099 20.529 79.534-13.915 43.687-12.588-12.015-48.324-.773-9.9.175 44.542 8.805 37.519 48.392 17 77.725.264-10.964-19.311-38.676-2.6-34.4 12.007 52.653-2.009-45.077-21.058-5.884-2.764 32.075 40.809 50.257 2.208 79.234-21.708 7.13-11.309-38.318-19.378-50.142-12.453-41.602-82.876-15.491-64.334 25.592 5.238 9.145 19.145 34.096 28.962 43.7-6.981 18.485 52.427-38.844 40.3-6.9-22.784 18.515-81.939 65.463-65.888 2.8-23.446-63.939-45.206-130.567-88.812-184.3-21.914-25.407-33.634-59.284-20.913-92 7.275-30.967 14.472-64.719 49.913-49.4 30.628-7.6 47.095-19.662 50.9-15.2 39.879-9.563 4.831-46.065-17.9-33.4-35.509 18.843 32.138 34.857-18.5 38.4-36.385 19.338-48.194-10.506-14.962-32.05 35.012-36.524 77.514-65.861 115.263-99.85 13.504-23.964 19.177-17.806 25.763 1.663.588-25.553 1.507-48.158-22.011-12.959-39.505 41.168-94.883 64.53-132.052 108.297-27.331-36.174 3.022-75.689 12.5-112.8 1.239-21.879-30.563 57.94-30.04 57.207-19.673 33.544 29.102 71.031-16.96 97.093-15.686 18.547-32.463 82.161-24.1 74.8-17.799-37.842-31.631-77.994-42.572-118.178 37.622-21.825 18.462-84.466 64.672-100.622-33.376 3.201-40.801 45.754-50.212 73.35-24.152 44.878-23.881-45.942-25.569-64.92 11.032-34.782 1.123-81.951 22.104-110.697 37.937-32.263 93.515-2.984 135.477-27.133-41.845 8.831-89.846-2.31-130.8 11.9-17.195 13.904-4.935-28.041-16.4 9.7-6.573 21.874-10.381 76.439-28.9 26.1-30.608-32.529-13.194-42.885 19.831-40.906 32.408-29.152-.769-43.673-10.031-58.394-43.459-18.488-24.904 92.088-37.008 29.406-3.138-20.401 4.619-47.288 4.208-63.206zm25.8 37.2c-2.922 5.282-16.815 13.253-8.546 6.934 1.917-2.188 4.676-9.823 8.546-6.934zm3.5 5.1c-19.69 31.303-11.051-3.788 0 0zm7.5 3.9c-15.335 15.488-20.067 3.37 0 0zm4.3 4.9c14.515 12.732-23.986 9.732-1.512-3.512zm-27.6 6.3c5.393 27.311-12.573 42.134-5.7 15.1-2.103-3.942-.168-33.055 5.7-15.1zm12.8 2.1c11.862 26.289-16.97 44.406-8.2 4.5-2.503-6.191 4.327-7.277 8.2-4.5zm25 .6c-9.944 19.492-12.423-6.08 0 0zm-12.5 7.2c2.939 46.264-17.763 7.596 0 0zm11.3 8.4c-12.719 34.336-11.249-14.792 0 0zm258.2 126.2c-3.474 7.901-3.349-8.822 0 0zm25.6 63.4c20.593 34.717-21.551 53.284-31.6 25-7.111-23.47 17.477-38.139 31.6-25zm-112.1 57c13.707 5.444-3.955 25.272-23.462 6.35 7.514-5.761 11.822-10.595 23.462-6.35zm-349.4 9.8c1.106 15.885-29.424-7.285 0 0zm2.6 14.9c39.48 22.981-49.626 24.139-29.9 5.3 7.702-2.469 22.326-15.728 29.9-5.3zm12.3-2c-7.527 6.016-18.361-7.289 0 0zm-39 .3c-4.788 10.094-17.069.247 0 0zm46 19.2c11.701 42.69-89.543 26.812-51.5 1.2 23.423 24.743 36.095.398 51.5-1.2zm501 2.4c-5.211 9.197-4.113-9.033 0 0zm113.5 7.3c38.273 16.501-80.004 17.041-26.634 1.378 8.784-.981 17.777-2.901 26.634-1.378zm11 17c3.53 32.235-95.321 1.719-25.7 1.913 8.421-.275 17.346-3.829 25.7-1.913zm-470.7 13.6c-11.92 31.276 25.913 94.046-25.3 81.3-27.721.176-80.14 15.608-91.336-8.677 4.329-23.39-17.997-78.122 23.746-66.223 31.124 1.368 64.296-7.034 92.89-6.4zm472.2 4.1c1.729 34.157-84.928 3.062-34.4 2.9.604-5.008 26.481.538 34.4-2.9zm-657.7 3c-10.42 25.79-35.759 20.415-7.8 3.7l6.6-4.2zm10.7 1.8c-2.496 16.613-19.424-1.463 0 0zm8 4.1c39.784 20.635-22.606 3.863 0 0zm-17.5 4.5c16.331 23.751-31.558 14.056 0 0zm12.5 5.5c30.944 24.051-29.858 21.645 0 0zm-112.3 7c-18.634 30.91 58.794 65.237 1.6 62.9-35.232 11.528-38.382-12.593-11.025-31.825 4.143-5.997-5.234-52.209 9.425-31.075zm130.1 1c20.581 25.389-36.266 40.924-5.5 17.3 10.037 5.481-15.339-22.343 5.5-17.3zm-51 1.8c4.021 30.476-22.567-5.428 0 0zm9.2 2.1c26.109 19.232-22.103 15.557 0 0zm16.5 6.6c31.204 10.038-24.685 27.119 0 0zm541.8 11.1c8.262 6.755-11.681 1.225-14.8 2.1 2.636-6.022 10.391-5.918 14.8-2.1zm-567 .3c3.007 10.093-10.032-8.025 0 0zm58.7.5c-10.676 20.989-20.19 13.419 0 0zm-50 .6c10.755 18.553-15.747-.09 0 0zm13.4 5.2c8.207 15.851-23.495-.613 0 0zm12.1 5.2c-5.479 9.977-13.641-5.16 0 0zm537.5 1.1c-10.487 38.591-39.127-16.825 0 0zm-526 2c-5.583 3.664-3.611-3.771 0 0zm-6 3c-21.793 10.792-43.214-1.18-7.6.5l4.625-1.45zm59.4 18.1c-10.734 7.568-19.272-6.532 0 0zm375.6 99.9c-7.998 6.345-3.83-9.956 0 0zm-396.3.2c8.179.967 28.297 4.236 21.4 16.8 11.383 25.079-34.681 17.543-10.212-2.45-14.064-17.237-10.636 28.369-27.687-4.75 13.807 1.955 2.97-18.524 16.5-9.6zm391 10.3c4.845 36.866-13.162-24.641 0 0zm-384.1 5.1c-4.709 4.49.043-9.475 0 0zm332.4-.5c12.308 35.871-65.95 11.781-8.462-1.95zm-353.6 3.5c20.141 8.46 5.452 27.438-6.947 1.673l1.547-1.586zm367.9 4.7c12.296 24.232-29.355-11.648 0 0zm43.3 2.1c5.286 17.959-13.611-6.614 0 0zm-83.7 11.4c-4.512 29.091-18.219-7.067 0 0zm41.3.2c42.941 24.419-27.731 78.883-43.772 30.748-10.93-24.03 40.093-38.095 4.072-13.748-5.002 49.762 50.848 14.008 19.3-10.2 40.56-6.607 18.935 31.36 9.8 38.2 45.125-10.085 3.284-54.508-7.6-44.5 5.405-3.462 12.507-2.192 18.2-.5zm-21.6 11.7c23.787 40.575-34.894 24.711-6.614-1.67l4.314-1.93zm108.8 34.6c-4.805 6.053.078-8.207 0 0zm-4.9 40.7c-.812 48.988-43.845-5.942 0 0zm-306.7 30.8c-16.346 14.77-9.532-7.324 0 0zm275.9 1.7c4.708 49.168-42.961-9.047 0 0zm-270.7.8c-2.946 13.546-10.018-.343 0 0zm7 5.6c-2.454 11.619-4.712-10.356 0 0zm-3 60.1c-2.826 6.879-2.964-6.781 0 0zm-11.5 11.7c8.711 37.917-21.141-11.568 0 0zm26.3 28.4c-3.622 3.729-3.095-3.888 0 0zm-55.3-791.1c9.249 2.779-4.082-3.567 0 0zm469.8 313.7c-3.32 7.138 15.336-2.759 0 0zm-12.3 2.3c5.824 5.559 17.015-2.129 0 0zm4.6 15.9c5.398 6.578 17.87-4.861 0 0zm-477.7 20c-27.125 13.59 17.451 19.277 2.3 5.7 20.134 14.196 10.388-16.519-2.3-5.7zm25.1 4.2c13.298 49.596 13.515-5.077 0 0zm-47.7-.7c-10.004 15.488-12.537 18.024-11.4 2.6-8.881 8.741-22.87 10.999-11.4 22 13.733-9.909 40.886-4.42 24.9-21.2 3.85-.985-.022-7.907-2.1-3.4zm-42 14.6c-11.355 42.187 34.208-.099 0 0zm3.4 5.6c-5.131.446-.299-5.164 0 0zm6.7 1.2c-4.815 16.916-10.516-1.039 0 0zm63-5.7c-5.238 6.247-33.517 26.763-.613 19.313-6.714-13.786 36.982-5.543 5.575-11.3-2.318-1.571-.07-9.857-4.962-8.013zm-11.4 15.8c1.861 9.914-8.514-5.559 0 0zm-12.9-2c-2.762 7.823-16.471 8.832.875 17.087-5.667-10.041 17.64-.842-.875-17.087zm-16.2 8.8c1.854 21.825-25.277-3.918-8.9 14.8-3.095 7.736 31.014-3.157 10.1-9.125 4.46-2.243 4.638-7.812-1.2-5.675zm48.7 3.8c-30.08 23.454 28.424 7.268 0 0zm464.5-44.6c10.156 6.111 18.279-4.758 0 0zm-727.8 44.6c2.354 9.615 8.837-5.386 0 0zm-1.8 13.1c-4.115 14.891 14.311-3.678 0 0zm7.9 3.1c-4.763 9.265-34.92 8.384-15.9 16.3 12.522-8.661 47.054 2.086 21.85-15.55l-3.45-2.45zm151.6 122.8c-5.487 12.191 11.118-7.509 0 0zm17.5 16.4c-14.859 14.525 17.289-5.305 0 0zm403.3-617.8c22.997 25.602.116 29.661-11.7 33.1-7.29 30.061 38.869-20.676 28.063 23.5 12.849 5.2 4.496-45.509 35.825-37.662-13.025-7.603-33.627 13.206-52.187-18.937zm-138.8 22.8c-44.292 12.684-10.739 86.075 25.6 44.7 22.356-29.682-57.274 7.443-19.2-22.8 24.502.89 14.51-28.163-6.4-21.9zm5.6 6.7c25.589 8.037-40.053 12.939-7.237 35.787 16.104-5.118 40.864-12.096 10.933 6.43-34.73 15.643-33.453-49.357-3.695-42.217zm-272.1-1.6c-26.198-6.439-40.352 40.174-13.3 8 5.233 15.856 26.204 50.809-6.1 26.2-28.995 7.1 35.062 9.046 20.8 22.4.051 16.137 6.587 30.139-.5 41.4 20.428 2.393 5.989-49.698 17.875-11.363 7.697 20.858 24.306-.098 3.525-3.137 9.68-22.111-20.259-40.879 10.1-42.5 24.101-17.941 6.117-22.569-8.4 2-16.266-4.591-.696-48.474 22.4-33.3-5.649-24.947-32.963 1.853-46.4-9.7zm19.3 12.7c10.269 34.493-49.571 6.723-4.2 10.7 9.367-5.742-47.601.13-11.8-15.8 5.518-.8 13.152-1.562 16 5.1zm-9.8 28.7c24.721 22.009-14.424 42.17-3 7.7-11.621-1.732 2.995-14.2 3-7.7zm-9.3-29.1c.232 9.332 6.502-4.686 0 0z"
     id="path12"
     style="fill:#ffffff" />
  <path
     d="M393.778 124.7c5.295 5.907 1.313-5.702 0 0zm161.6-12c-13.604 12.952-35.216 77.172-3.5 49.6 14.518 5.484 41.259 2.541 20.2-23.8-5.027-4.467-8.282-29.913-16.7-25.8zm5.2 12.6c12.768 22.397 22.479 46.159-8.35 28.063-29.933 42.08 1.898-47.016 8.35-28.062zm-6.5 13.4c-9.361 31.593 22.337-6.231 0 0zm175.5-26.3c5.031 5.457 4.606-4.565 0 0zm-133 1.3c-45.797 15.425 10.024 92.604 31.013 35.025-13.089-12.654-3.086-41.485-31.013-35.025zm15.3 6.5c-.216 19.645-14.504 16.365 10.3 22.3-7.779 55.65-63.779-7.883-23.898-24.747l4.611-.203zm-17.7 3.2c-9.527 33.374 25.438-12.779 0 0zm5.5 3.9c-2.626 2.872-2.139-3.872 0 0zm3.4 18.5c-20.113 24.472 27.523.198 0 0zm3.5 5.7c-3.731 5.683-3.766-5.606 0 0zm116.6-36.8c1.597 8.095 4.929-6.143 0 0zm7.9 2.3c-28.481 12.342 17.747 1.534 0 0zm-472.6 10.2c-41.461 1.875-51.697 84.685-7.137 71.088 15.136-18.747 40.743 14.48 21.938-13.613 15.277-17.285 6.486-57.731-14.8-57.475zm-.3 8.9c-8.335 21.068-8.999-12.197 0 0zm10.4 2.4c26.847 34.01-28.752 24.145-2.9-5.5zm-21.8 3.5c7.845 18.78-47.146 23.913 0 0zm6 11.7c17.191 27.365-3.513 20.711-6.3 15.8 6.048 31.765-19.553 32.551-20.562-1.9 10.961-8.459 19.532-10.426 26.863-13.9zm23.3 12.3c-1.258 28.724-17.888-1.699 0 0zm-11.9 10.5c4.611 25.173-41.894 16.173-3.35-2.425l2.125.397zm586-38.8c-33.879 3.454-11.711 39.688-2.5 56.1 4.568-27.362 61.545 46.873 58.1-4.8-17.072-18.441-24.481-56.182-55.6-51.3zm11.7 5.1c12.533 11.481 25.456 22.295 24.112 39.986 27.356 1.155 8.392 39.902-4.612 8.364-21.369 13.893-16.227-30.08-37.275-13.588-.224-8.618-14.577-42.113 7.825-28.812-1.387-6.775 4.688-10.961 9.95-5.95zm-188.8 20.5c-46.641 3.918-8.623 67.965 18.6 29.7 4.821-3.674-11.882-34.391-18.6-29.7zm2.7 6.4c33.133 30.671-36.58 37.598-12.7 5 3.876 2.846 8.304-11.338 12.7-5zm150.5 3.1c-4.018 27.145 19.037.677 0 0zm5.3 4.7c-2.364 8.661-2.364-8.661 0 0zm-513 4.6c-9.205 13.48-82.212 36.522-43.2 44.9 27.803 8.015 58.002 22.321 85.063 24.063-13.94-22.502-19.447-49.349-33.425-71.662l-2.312-.325zm9 8c-1.883 9.514 5.436 13.201 10.938 24.2 10.504 23.74-5.146 8.241-16.038-13.9-35.545 6.57-25.902 25.529 5.1 28.6 25.207-.584 29.05 29.227-.9 10-13.931-4.255-71.113-18.369-39.6-26 3.925-11.328 16.352-9.513 22.5-18.5 8.427.467 12.079-13.685 18-4.4zm-6.3 15.6c45.687 43.751-47.36 2.496 0 0zm-47.6 14.8c-5.225 6.585-9.488-6.651 0 0zm564.5-38.8c-6.249 8.059 6.941 30.584 6.9 12.7-2.951-3.198-3.381-11.692-6.9-12.7zm15 10.9c-10.427 30.556 10.038 1.28 0 0zm83.3 6.1c-3.726 27.764-24.684 51.311-9.4 71.3 24.548-12.157 27.297-30.754 11.375-48.525 11.557-3.883 15.355-35.521-1.975-22.775zm5.1 8.1c-5.199 20.471-7.535-12.847 0 0zm-7.6 23.3c-7.896 33.876-14.465-2.836 0 0zm9.1 8.7c4.576 21.304-2.158.517-4.1 5.9-6.561 4.398-1.884-13.739 4.1-5.9zm-9.5 11.5c-1.898 6.688-6.297-5.34 0 0zm-1.6 6.8c1.606 15.545-11.514-4.56 0 0zm-324.4-57.6c-30.924 9.774-69.58 13.08-84.714 46.116-12.804 15.821-22.45 29.134-4.186 29.484-11.548 27.176 26.042 46.692 14.3 18.4-25.133-9.431 2.108-49.686 5.3-11.6 41.135-11.053 59.361-43.767 68.125-73 3.535-.928 11.092-14.932 1.175-9.4zm-4.5 5.5c-18.901 24.463-42.697 51.474-75.875 51.45-29.907 29.013 17.95-45.073 40.275-39.45 12.642-1.038 24.064-11.48 35.6-12zm-10.5 29.4c-11.577 17.308-19.318 22.388-34 31.6-68.078 19.895 34.16-32.496 34-31.6zm-36.5-9.5c-21.168 10.106-39.013 48.425-9.228 12.506 2.064-2.722 20.501-9.539 9.228-12.506zm303.7-25.7c-6.696 16.587 11.634-4.796 0 0zm7.3 6.8c-22.711 8.784-3.734 18.209 3.5 1.8l-1.337-3.825zm9.4 2.7c-7.802 21.141 12.905-6.167 0 0zm-642.1 4.9c6.024 30.666 13.477-19.838 0 0zm611.1-2.9c-13.862 23.837 13.251-.351 0 0zm-38.1.1c-63.003 14.549 2.845 101.99 34.5 42.3 7.179-22.104-11.766-46.491-34.5-42.3zm18.3 8c-8.842 52.104-46.175-17.562 0 0zm-29.3 7.8c7.895 36.118-32.799 13.054 0 0zm35.6 11.4c27.893 38.161-49.903 4.871 0 0zm-31.6 17.8c14.33 32.002-31.893-19.565 0 0zm18.3.4c12.777 24.523-30.558 2.43 0 0zm-145.6-37c-36.564-4.06-62.811 13.629-46.5 48.4-10.158 42.172 18.289 48.874 55.4 37.5 10.656-10.425 10.068-83.279-8.9-85.9zm5.1 6.5c1.986 34.395 24.999 94.727-35.163 79.5-15.588-18.92-9.271-51.859-11.937-76.7 15.215 1.783 35.14-7.742 47.1-2.8zm-15.6 6.2c-48.237-.309-8.853 11.295 6.8 1.8 1.722-4.571-5.788-2.048-6.8-1.8zm-10 11c-43.294 3.652 25.426 9.828 13.6-.7l-4.85.275zm.5 14.1c-39.557 2.354 31.905 9.77 14.2-.8l-5.075.325zm6 11.6c-57.743 6.514 53.487 3.946 0 0zm-4.5 10.3c-44.371 9.49 58.341-.749.085-.004zm-6 10.9c-16.955 9.98 56.747-3.943 9.223-1.437zm10.3 6.9c-41.244 6.16 52.488.738 0 0zm-218.2-73.3c-55.54 13.264-1.794 95.221 34 51.1 19.371-26.097-6.526-53.69-34-51.1zm12.3 7.9c-3.911 27.539-34.825-5.256-8.8 2.9-1.052-5.61 6.302-4.499 8.8-2.9zm13.8 4.4c-1.486 29.073-36.625 15.26 0 0zm-34.1 9.5c3.986 36.286-26.99-7.281 0 0zm42.5 9.7c-19.733 28.88-5.869-32.721 0 0zm-28.8-7.6c-3.898 6.415-5.592-6.253 0 0zm-3.8 6.9c-21.051 41.259-17.474-9.952 0 0zm9.6 5.9c-11.982 56.003-29.082-16.262 0 0zm11.4-.6c-5.182 5.455-5.182-5.455 0 0zm-3.4 5.6c26.724 10.459-30.957 18.275 0 0zm11.4 8.9c-13.648 14.842-15.34 4.117 0 0zm238.4-49.2c-7.828 33.257-20.3 82.982 25.1 53.6-20.693-16.611 1.116-51.864-18.8-37-2.07-4.664 4.899-19.012-6.3-16.6zm14 22c-1.478 8.423-11.226-4.851 0 0zm-6 7.1c15.989 34.78-31.294.51 0 0zm5.6 19.7c.909 18.454-46.677-3.803-1.925-1.075zm-552-42.1c-32.143 19.676 19.615 40.018-7.075 65.5 15.748 54.102-2.042-32.896 27.797-43.534-.599 5.26 9.467-28.507-20.722-21.966zm13.7 5.3c11.154 35.27-36.893 25.481-14.1.2l7.387-1.863zm512.3 1.2c2.009 38.024 13.639-4.833 0 0zm-87.7 8.6c.759 9.184 3.396-5.42 0 0zm-388.6 8.6c.845 23.69-40.927-19.709-13.4 16.6-14.023 2.79-45.024 48.65-2.012 50.675 34.981 10.523 76.415-39.244 26.512-50.175-27.002 15.54 7.192-29.838-11.1-17.1zm10.3 22.3c7.413 3.802 4.957 29.183-5.7 33-29.948 26.65-55.371-34.151-4.1-30.9l5.425-3.525zm15.6 5.2c12.094 23.752-10.203 39.803-1.1 5.5-2.004-1.961-5.174-13.016 1.1-5.5zm-6.8 4.5c-2.995 7.96-3.367-7.757 0 0zm1.3 9.6c-9.448 11.631 3.746-12.92 0 0zm-4.1 13.5c12.157 9.823-23.084 5.142 0 0zm-11.3-23.6c-3.678 9.942 10.82 2.812 0 0zm386.9-29c-.041 8.894 3.078-6.126 0 0zm2.4 9.7c1.765 10.433 2.932-8.819 0 0zm336 12.5c-36.33 10.635-73.641 22.873-105.375 44-16.104 27.961 21.376 67.67 21.775 84 20.239 18.999 46.42 5.159 68.1-9.9 19.308-20.603 64.285-10.166 63.5-33.5 43.343 3.292 13.838-56.943-18.3-48.6-12.039-9.036-12.049-36.436-29.7-36zm7.9 11.7c7.981 33.295 36.976 28.343 51.7 49.738 10.834 25.476-48.405 12.426-41.1 26.563-4.622 13.248-44.913 38.309-67.212 24.325 3.23-14.69-37.416-4.063-8.55-19.075 3.378 5.202 34.921 11.391 41.763 2.25-.173-7.676-13.018-4.213-27.2-3.7-6.009-7.503-35.611-1.638-31.775 17.413 39.086-6.854 2.661 45.272-6.125 1.887-25.997-30.51-32.477-75.53 17.1-83 22.249-2.386 51.8-29.895 71.4-16.4zm22.1 72.6c-9.702 14.039-5.632-6.084 0 0zm7.8 4.4c4.901 22.087-22.594-4.283 0 0zm-86.4 3c.333 9.273-5.25-4.925 0 0zm19.5 1.3c2.288 10.217-9.202-1.814 0 0zm-22.8 16.4c-5.094 2.209 1.19-5.313 0 0zm11.9 7.6c-23.658 19.788-30.054 4.855 0 0zm-3.2 8.3c3.673 19.174-18.799-3.584 0 0zm28.6-109.7c-14.58 18.825-47.467 14.201-72.1 31.3-26.227 40.813 29.158 48.985 55.2 24.2 17.875-10.371 78.329-18.124 43.938-32.288-2.078 16.072-19.809-29.253-29.8 3.038 3.43 28.553-.687 1.404-7.538 20.65.808-28.619-37.105-19.522-15.3 6.95-43.302-12.477 2.516-58.289 20.1-27.35-11.736-43.207 43.98-6.779 32.1-16-1.253-15.221-16.843-12.64-26.6-10.5zm-6.6 19.7c-4.717 12.477-1.569-10.871 0 0zm22.3 2.5c-7.421 23.776-20.136 2.507 0 0zm-66.4 8.5c19.831 22.081 4.235 43.52-4.987 12.075-35.749 15.995-16.892-20.763 4.987-12.075zm68.3.8c22.612 11.395-22.724 6.899 0 0zm-35.2 2.2c-8.799 14.321 9.319 26.785-9.7 5-2.182-4.543 7.683-9.782 9.7-5zm50.2-.8c-2.221 7.001-3.632-5.063 0 0zm-27.2 8.7c-3.622 3.729-3.095-3.888 0 0zm-60.8 9.1c-9.793 10.717 2.335 18.019-14.291 10.162-8.884-3.188 17.594-15.878 12.091-11.262zm5.3 11.5c-.798 13.963-11.453-3.564 0 0zm-14.4 5.9c-3.623 6.602-6.746-12.648 0 0zm93.7-19.2c-18.813 3.405-20.116 6.278-18.1 15.6 7.041 12.821 41.034-15.109 18.1-15.6zm-5.8 10.7c-6.993 9.511-7.393-7.998 0 0zm-20.3-9.1c5.419 7.339 11.82-5.294 0 0zm-169.3-59.3c-16.136 10.805-4.502 61.675-3.7 15.7 3.802-13.077 9.753 16.911 8.112-15.262L773.178 284zm-461.6 6.8c-14.125 16.097-30.788 63.977-22.8 74.4 35.389-5.462 58.57 13.21 92.4 6.5 28.475 1.452 11.794-59.979 4.9-74.4-28.063-.736-48.295-5.607-74.5-6.5zm8.6 2.7c41.705-4.066 19.544 78.769 9.63 66.824-37.856 6.891-46.538-6.053-28.83-39.724-2.765-28.165 49.481-7.875 9.2-22 2.034-.435 6.938-9.053 10-5.1zm60.2 5.3c11.632 22.045 24.654 85.722-21.8 64.8-28.789 10.501-15.152-91.031 21.8-64.8zm-44.8 8c-9.893 7.435-34.95.328-15.6 14.2 23.61-2.107-34.956 12.193-3.2 11.1-15.131 7.994 11.861 25.302 7.8 8.1-5.684-.344 9.802-17.745 8.4-26.7.91-2.675 10.544-3.18 2.6-6.7zm-30.5 12.4c2.924 7.984 12.029-2.381 0 0zm28 5.4c2.532 13.299 10.505-1.108 0 0zm-29.7 10.1c.461 6.918 10.779-3.646 0 0zm27.1-.4c3.169 5.771 5.941-4.043 0 0zm-32.1 10.5c1.016 7.367 9.248-5.221 0 0zm32.1.8c-9.989 13.282 8.781-4.335 0 0zm-25.1-.2c1.738 9.564 8.183-4.418 0 0zm-3.6 5.7c-16.004 8.145 45.259-1.507 0 0zm21.2 4.2c5.583 3.664 3.611-3.771 0 0zm48.2-51.1c.701 8.126 11.811-4.522 0 0zm-9.6 4.3c-25.033 6.599 21.989 1.257.337 10.863-9.49 24.842 11.688 27.912 9.462-.863 4.838-9.419-3.776-11.053-9.8-10zm14.1 1.5c5.988 10.274-5.798 33.488 4.275 30.3 2.616-9.031 2.997-25.012-4.275-30.3zm-24.4 8.9c1.095 9.286 6.741-5.823 0 0zm.7 6.9c5.852 4.708 5.852-4.708 0 0zm-.6 5c.231 8.087 9.229-3.197 0 0zm.3 7.2c-3.144 10.901 9.614-.737 0 0zm14.3 5.8c-23.272-.511-17.963 19.307-5.1 4.7 6.765 10.058 15.764-5.687 5.1-4.7zm9.3 4.2c-3.757 8.277 9.491 1.11 0 0zm-9.2 6.6c2.096 12.323 24.999-6.847 0 0zm-228.3-48c-18.08 3.285-27.322 25.83-3.7 9.288-21.394 33.421 16.246 27.052 14.9 4.413-33.862 34.853 6.292-17.967-11.2-13.7zm479.2 7.9c-9.08 24.296-24.178 96.907 15.9 46.1 23.136-12.598 43.348-50.157 6.837-12.375-30.706 8.7-14.925-33.743-22.737-33.725zm3.1 31c30.506 5.994-24.592 45.383-5.997 7.141.035-.678.714-13.008 5.997-7.141zm-65.3-28.5c-32.189 15.155 22.121 12.89 0 0zm17.9 7c7.454 19.605-16.704 20.469-8.1 5.4-33.337 30.882 42.723 16.935 8.1-5.4zm59.1 6.4c-4.97 29.267 31.318-9.118 0 0zm78.6 5.8c-14.396 13.036-12.199 51.478-.9 21.1.415-25.494 15.541 36.793 18.188-.437-16.179 2.873-7.507-23.489-17.288-20.663zm-563.5 5c-11.884 7.05 8.767 18.863 3.5 15.4 4.896.627 5.726-23.976-3.5-15.4zm683.5 2.1c-10.383 22.452-16.962 88.61-4.4 88.4 18.706-19.799 8.679-38.093 9.378-58.991-3.975-1.952 2.948-42.683-4.978-29.409zm.6 26.6c-7.274 38.393-2.257-36.938 0 0zm-.4 17.9c-.872 26.353 4.778 26.376-8.562 30.725 2.794-6.533-3.553-35.878 8.563-30.725zm-394.9-32.3c2.342 23.071-5.304 42.158-24.337 19.35-1.615 24.295 37.136 8.267 15.538 41.95-23.557 33.921 33.375 1.772 12.7 2.8-28.684 11.858 21.307-27.451 8.4 6.3-2.9 22.118 21.75 2.432 3.1-19.4-19.657-30.813 24.244-5.822 15.7-28.2-22.372 18-23.544-13.614-31.6-9.4 9.975-12.752 9.77 6.439 14.188 4.225 5.647 18.964 10.395-36.726-13.687-17.625zm8.5 30.3c10.186 46.876-24.678-4.054 0 0zm112.8-31.7c-10.358 25.643 14.972 11.722 0 0zm7.7.8c-7.652 35.494 13.319 6.709 0 0zm-318.7 3.4c-12.375 24.429 20.281-4.989 0 0zm-95.7 4.2c-8.252 13.502 17.339 14.902 7.313-1.975l-3.033.05zm393.3 1.4c-34.638 1.94 25.729 20.718 0 0zm-361.2 5.1c-31.823 14.477 3.773 101.556 16.6 48.2 7.157-19.164 21.912-53.549-16.6-48.2zm6.6 4.7c-12.28 3.496-2.518-2.243 0 0zm10.1 2.6c6.917 21.687-13.255 62.98-21.863 22.988-6.507-9.794 15.354-30.82 21.863-22.988zm-16.1-.3c-8.494 15.785-6.574-4.132 0 0zm-73-1.8c-23.019 15.924-2.444 32.701 4.463 6.863 28.419 6.729-16.951 31.588 1.237 44.538 4.9 25.422 6.795-31.563 17.2-40.5-4.286-6.917-13.96-16.863-22.9-10.9zm147.2.1c-5.873 19.677-31.409-9.165-16.4 19.5-13.349-20.552-33.205 14.855-6.088 15.188-17.777 25.607 11.02 17.721 19.488 4.512 46.238 6.624-17.735-18.4 12.595-36.897-.976-3.946-6.688-5.809-9.595-2.303zm-10.7 23c.528 14.09-10.019-5.045 0 0zm-.5 12c-3.756 7.066-3.756-7.066 0 0zm286.7-32.2c-6.274 30.95 65.432 26.356 27.8 4.2-10.869 13.807-15.567-12.375-27.8-4.2zm12.5 5.9c24.562 26.193-20.926-6.621 0 0zm20.2 5.9c3.242 16.077-18.169-4.725 0 0zm-287.9-4.9c-22.768 18.518 27.424.937 0 0zm438.2 7.8c1.52 29.883-8.33 44.227-28.566 59.017 16.496 15.713 34.67-38.119 27.191 9.37 28.801 13.489-13.571-34.072 18.455-38.975 21.457-31.581-4.619-11.802-13.217-.575-.977-.887 6.218-41.6-3.862-28.837zm-15.9 54.2c-7.519 9.717-6.9-5.426 0 0zm23.8 8.7c-.52 12.434-7.418-4.403 0 0zm300.9-63.9c-57.801 2.617-42.187 92.481 13.079 75 11.897-9.881-.406-58.149-7.704-76.337zm.3 10.6c13.536 12.497 2.683 37.804 12.244 52.541-43.032 34.2-66.117-57.31-12.244-52.541zm-7.6 4.9c-53.761 14.471 23.461 79.302 12.1 30-8.761-5.454 5.137-34.841-12.1-30zm4.8 6.2c8.789 24.155-1.039 60.446-19 19.8-.144-9.196 7.236-25.719 19-19.8zm-466.3-7.5c-25.515 5.976 9.747 30.715 8.2 7.6-4.92 1.076-4.882-9.043-8.2-7.6z"
     id="path14"
     style="fill:#ffffff" />
  <path
     d="M637.178 407.7c-2.608 6.574 6.324.017 0 0zm-114.4 15.5c1.379 16.26 17.268 5.257 14.8 32.8 19.534 23.502 35.524-30.841.112-22.05 8.855-21.304-5.087-4.302-14.913-10.75zm27.5 20.6c9.732 24.866-25.451.213 0 0zm-301.2-11.8c-8.198 50.339 34.924-4.279 0 0zm7.5 6.5c5.18 23.731-12.993-10.292 0 0zm-34.2 3.7c-14.671 26.888 18.597 1.135 3.652-4.192zm452.4-3c5.779 4.406 2.696-4.054 0 0zm-536.7 6.8c-28.176-.399-59.015 7.135-45 40-11.823 46.299 36.005 43.978 62.5 29.9-9.529-17.735 10.814-70.833-17.5-69.9zm9.7 30.5c20.438 36.505-28.034 54.789-45.3 35.5-11.03-35.566-9.47-68.721 38.1-59.9 10.329.327 4.808 18.742 7.2 24.4zm-19.7-14.6c-48.245-3.333-12.405 52.165 13.5 20.974-2.714-7.156 1.596-28.62-13.5-20.974zm6.8 4.6c-12.002 1.993 19.037 24.494-17.3 12-20.456-1.462 27.036 11.655-7.7 6.5-8.286-22.821 49.844-.769 3.4-14-18.015-.869 19.561-8.385 21.6-4.5zm599.9-15c8.035 32.168-61.274 67.492-18.7 106.5 26.236 10.813 49.577-2.3 70.3-11 9.982-35.507-5.706-102.671-41.8-87.9 1.152-4.329-5.684-15.353-9.8-7.6zm6.8 11.5c-3.056 8.658-3.113-8.676 0 0zm21.4 1.7c-9.745 25.135-27.784-8.298 0 0zm3.7 6.3c18.374 38.15-13.484 12.028 0 0zm7.5 2.7c18.177 18.159.954 106.853 2.275 49.275 4.431-14.057-7.185-42.729-2.275-49.275zm-26.7 6.3c32.864 24.334 19.575 102.34-26.4 71-10.005-3.751-10.09-27.105-9.388-36.587 1.371 9.081 56.979 6.872 20.666 25.266-15.694-7.028-22.38-28.016-9.103 2.009 43.454 20.451 32.375-64.532-8.375-35.288 14.289-10.394 16.005-27.021 32.6-26.4zm-23.9 13.2c-3.849 3.128-1.15-7.636 0 0zm2.8 16.6c42.58.629-10.152 21.33-4.7-3.3 1.27.631 2.45 5.514 4.7 3.3zm-103.8-52.8c-34.727-7.304-61.386 68.091-14.658 34.336 9.967-3.958 40.97-32.272 14.658-34.336zm4 6.5c-24.067 11.657-47.884 46.988-10.4 12.5 29.452-13.987-50.412 42.769-26.2 10-1.15-9.154 24.57-30.219 36.6-22.5zm45 13.2c-48.036-10.333-39.158 76.87-1 58.8 37.662 2.968 12.265-50.729 1-58.8zm4 7.1c14.731 17.998-22.806 7.626 0 0zm-16 3.7c19.942 1.183-35.881 8.937-3.5 15.1 18.721-23.773 40.686 25.432 16.5 10.9.326 3.55 13.148-21.052-11.8-6.6 15.876 17.027 14.134 11.449 3.6 14.8-4.121 7.799-9.094-2.894-6.9-14.8-16.868-3.6 9.071 50.099-10.1 13.9-1.338-13.61-13.366-40.229 12.2-33.3zm.4 6.1c-3.115 20.427-20.689-8.319 0 0zm15.6 11.9c-3.731 5.683-3.766-5.606 0 0zm-9 3.1c-4.549 5.118-2.067-6.857 0 0zm20.6 17.9c-18.967 5.755 2.406-14.947 0 0zm-14 0c16.596 5.41-7.327 4.228-2.434-1.454.946-.238 2.072.475 2.434 1.454zm-5.6 4.5c.617 7.432-13.416-3.669 0 0zm-458.2-51.9c-5.236 22.488 20.224-7.566 0 0zm-33.8 2.8c-26.504 3.481-.069 48.604 4.7 64.1 1.854-12.449 15.29-65.025-4.7-64.1zm1.7 4.7c4.901 7.331-17.585-2.768 0 0zm2.8 8.8c1.009 31.021-15.922-14.967 0 0zm826-10.6c-12.912 22.094-21.105 55.268 20.412 37.738 1.956-6.356-3.245-48.514-20.413-37.738zm10.3 5.5c1.269 26.521-24.933-7.482 0 0zm4.4 19.2c4.204 24.466-43.858-1.613-6.174-5 4.266-1.922 4.431 2.708 6.174 5zm-800.8-20.7c-9.44 19.644 22.067 2.392 0 0zm-14.2 8.6c-.198 25.101 24.043-7.042 0 0zm699 29.1c.536 28.963 2.324 8.584-13.55 5.275-18.487 15.867 9.421 80.158 41.903 48.408 15.154-17.999 12.856-32.123-4.241-26.833 11.588-39.798-31.519-17.732-10.137-5.35 5.107-42.162 1.415 30.023 21.425 11.155-9.332 52.833-64.806.303-48.4-12.655 2.901 9.685 6.695 11.554 4.3-12 12.281 47.937 20.169-20.615 8.7-8zm-309.6.1c18.261 15.22-15.723 56.263 15.337 49.513 5.788-21.707-17.186-45.886 7.063-33.112 1.909-9.439-17.424-13.623-22.4-16.4zm10.2 38.6c4.582 13.503-11.035-3.616 0 0zm361.1-28.8c8.338 36.507-13.442 60.956-36.723 80.256 37.744 1.706 85.688 9.642 104.123-31.756 2.015-25.913 7.277-66.269-33.8-50.8-10.095 1.911-26.467-3.93-33.6 2.3zm60.2 2.8c4.404 16.19 12.88 57.066-18.6 44.8-34.3 7.108-48.485-.219-35.981-35.272-6.331-25.705 74.558-1.101 20.55-5.847-31.65 9.123 52.63-9.089 28.231 26.069-5.298 14.654-60.033 12.232-40.9-21.45-22.52 33.331 18.047 39.914 45.438 30.65 6.17-8.609-13.029-47.8 1.263-38.95zm-10.1 5.3c-2.479 5.269-2.479-5.269 0 0zm-5.5 44.5c-26.84 5.737-2.131 12.092-34.5 11.6-38.121.82 46.114-11.253-3-7.9-41.766 1.808 33.668-9.481 37.5-3.7zm13.5-.3c-17.743 29.079-43.116 16.85-68.7 20.212-32.069.548 59.049 5.809.288 5.925-46.039 10.417 15.161-31.277 1.112-10.638 19.364-1.457 43.752 5.893 56.9-13.7 2.065-3.777 7.177-2.379 10.4-1.8zm-31.7 22.9c11.919 6.315-23.464-1.242 0 0zm-356.8-43.2c-6.146 24.238 2.158 105.385 20.137 96.207 2.681-32.356-2.744-65.829-9.437-97.407l-5.237-1.163zm9.2 3.2c-3.811 14.056-12.06-7.908 0 0zm1.2 16.1c1.123 10.112 8.002 78.49-3.1 46.8 5.535-15.89-14.879-43.056 3.1-46.8zm5.9 61.5c6.856 23.375-15.309-4.121 0 0zm-520.5-73.5c-36.654 14.073-11.237 83.031 25.5 59 37.702-11.294 10.202-44.27-8.8-45.6 1.036-8.848-7.77-17.346-16.7-13.4zm6.4 3.9c2.035 26.005 58.374 23.032 19.7 50.4-34.893 27.384-58.742-44.997-19.7-50.4zm-6.3 5.5c-13.32 19.856 24.35 2.5 0 0zm3.6 4.4c-2.824 5.166-2.688-5.219 0 0zm-8.7 8.7c-12.713 23.195 26.845.969 0 0zm4.7 4.8c-2.273 6.629-5.434-7.597 0 0zm29.8 2.7c-14.601 21.784 23.45 3.462 0 0zm4 5c-3.456 5.631-3.083-5.925 0 0zm-34.9 3.6c-14.755 27.341 27.54-2.112 0 0zm4.7 6.3c-5.514 4.053-1.429-8.426 0 0zm14.4-3.9c-20.581 24.276 27.13 8.269 0 0zm3.4 5.2c.212 11.589-10.421-4.427 0 0zm560.4-35.5c-35.344 40.181 10.062 65.54 45.3 37.6 41.403-3.133-38.309-45.751-45.3-37.6zm15.8 6.1c28.937 30.298-16.835-10.943-.9 16.2-15.474 27.839 3.489-.468 16.3-2.1 25.091-7.489 6.035 29.005.5 10.638 22.136-2.84-25.25-2.745-9.587 6.938-37.494 28.837-20.819-35.189-6.312-31.675zm-14.1 5.2c-2.108 36.15-15.595 24.345-.8-3.7l1.075.763zm7.8 8c-5.549 13.715 9.796-10.548 0 0zm155.3-4.5c-4.365 16.868-21.17 18.994-29.213 33.491 5.576-17.357-10.61-36.866-8.387-4.391 9.237 25.636-1.334 12.707-11.437-2.087-6.277 24.266 34.322 43.939-7.437 22.925-7.976 32.183 40.231 21.953 26.65-7.788 24.618-39.023 17.275-1.308 1.288 16.237 10.712 3.266 35.786-20.91 53.938-21.087-15.58-1.101-26.646 5.825-2.612-14.712 4.89-26.784-39.355 16.329-23.788 17.212-11.835.953-16.488 15.65-24.291 19.387 10.599-14.902 15.448-33.443 28.491-44.687 3.586-4.444 8.442-24.674-3.2-14.5zm1.6 9.8c-5.975 12.469.724-13.567 0 0zm-33.2 12.1c-5.785 20.765-1.84-22.94 0 0zm49.4-1.2c-22.781 31.819-23.661 1.318 0 0zm-60.8 19.1c-.03 16.892-6.435-16.875 0 0zm-4.5 18.9c26.723 23.863-25.121-7.733 0 0zm-372.5-49.6c6.847 33.27 6.291 23.786-17.5 17.1-19.637 13.232 1.342-35.023-14.7-4.7-.799 22.49 2.742 62.435 12.7 92.3 1.145 12.728 1.934 52.601 6.9 12.5 7.765-50.447 17.464 56.724 15.9-2.1 7.35-33.012-1.822-72.274 8-108.475-2.422-2.668-6.924-13.63-11.3-6.625zm-7.3 23.6c30.775 15.889-20.253 38.409-12.85 21.9 27.001 5.55 10.775-20.158-11.05 0 2.752-11.303 8.664-27.375 23.9-21.9zm-3.5 21.8c-7.487 6.141-4.936-6.39 0 0zm15 2.6c-3.372 6.239-3.582-6.948 0 0zm-26.8 4.1c-3.059 9.421-7.039-9.754 0 0zm21.9 3.2c22.109 41.131-51.507 17.175-10.625.188 2.598-3.63 7.377-4.098 10.625-.187zm.6 25.4c-5.243 3.685-5.243-3.685 0 0zm-9 4c-7.909 3.711-7.909-3.711 0 0zm11 3.4c4.111 24.39-53.653-2.639 0 0zm-13.1-57.9c-.272 13.761 9.652-6.497 0 0zm-11.8 2.4c1.448 9.933 8.856-4.678 0 0zm-152.7-30.8c-19.162 14.569-30.008 37.058-43.3 29.5-15.466 9.496 13.443 3.035-15.1 17.8-10.555 26.12-4.327 30.97 8.7 13.1 21.526 32.781 79.717 4.146 44.3-30.5 16.473 1.904 6.099-26.692 1.988-2.039-10.367-18.731 38.333-23.241 3.413-27.861zm-5.9 17.1c-3.228 16.278-11.831-2.378 0 0zm-11.2 3.4c8.226 11.282-13.305 2.394 0 0zm6.9 11.2c46.318 35.997-47.839 63.273-26.2 7.7 13.543-13.059-8.481 35.144 9.1 5.2-2.546-8.188 18.404-6.129 11.487-14.575zm-35.4 13.6c-3.37 20.862-16.965-8.655 0 0zm3.7 9c-8.518 17.136-6.354-9.452 0 0zm21.2-14.5c2.153 3.926 2.459-3.068 0 0zm3 4.3c-4.548 12.894 12.681-2.459 0 0zm9.5 4.9c-2.971 15.321-37.866 18.14-1.998 18.628 8.965-.201 9.646-34.009 1.998-18.628zm-18.4 1.6c-5.941 11.986 11.583.737 0 0zm56.4-32.7c-45.854 3.114.157 74.078 24.3 33.1 10.502-14.006-8.74-39.457-24.3-33.1zm-5.7 11c38.993-17.471 33.36 53.487-6.1 23.1-10.529-6.762-3.431-27.041 6.1-23.1zm18 2.5c4.387 4.605 3.99-4.635 0 0zm-16.3 4.2c-4 10.038 11.351-1.455 0 0zm14.8 2.6c-1.052 11.238 11.498-4.301 0 0zm4.5 5.8c-33.029-7.724-25.421 17.252.7 7.3 2.906-.562 5.569-12.271-.7-7.3zm-2.2 5.1c-19.032 7.608-21.896-6.339 0 0zm634.4-28.9c-24.444 12.466 5.227 42.653 2.388 59.513 5.785-20.408 10.659-2.554 13.925 6.6 10.065 17.282 2.909-26.635 17.788-2.5-2.117-16.158-21.075-38.05-11.362-57.375-6.027-5.139-14.644-9.609-22.737-6.237zm15.4 4.8c-3.575 8.314-8.886-5.527 0 0zm-9.6 1c11.282 30.607-18.741 11.164 0 0zm-5 2.2c-17.199 30.551 23.222 6.382 18.5 4.2 4.437 33.156-47.293 6.232-18.5-4.2zm14.7 23.4c35.174 52.177-21.022 4.3 0 0zm-10.4 3.4c.862 41.304-9.077-12.781 0 0zm-437-34.3c-38.907 22.761 30.911 49.351 16.85 5.038-2.775-7.294-11.112-5.823-16.85-5.038zm12 9.4c.06 40.562-33.506-13.883 0 0zm-9.7 1.4c-6.949 24.433 18.775-6.458 0 0zm159.4 2.4c-26.952 27.652 21.485 30.329 35.9 12 39.333-14.481-29.083-6.449-35.9-12zm13 3.5c-5.105 5.538-3.694-5.218 0 0zm-3.4 3c7.063 23.088-30.634 1.445-1.5-1.5zm179.9-2.7c-90.03 52.714 78.455-1.676 0 0zm14.4 3.1c-11.401 20.825-55.613 16.083-12.2 1.1 3.798 1.237 9.259-6.254 12.2-1.1zm-716.4 6.8c-30.467 4.862-27.824 40.875 8.2 36.7 2.724-10.695 13.374-40.758-8.2-36.7zm4.8 16.1c4.956 23.176-12.299-13.689 0 0zm-13.3.7c-7.577 11.105-12.112-4.597 0 0zm3 5.5c-3.756 7.066-3.756-7.066 0 0zm5.8.3c-3.372 6.239-3.582-6.948 0 0zm2.7 6.2c-7.717 6.44-10.599-6.223 0 0zm669.7-20.9c3.26 5.861 3.283-5.703 0 0zm-4.4 7.2c-15.184 22.987 7.881 45.447 2.413 8.288 9.754-3.315 42.07-3.902 8.313-8.538-6.739 4.429-7.11-8.843-10.725.25zm-352.8 5.8c-14.211 19.217-40.674 87.948 9.9 68.2 24.309 13.37 62.831 11.717 83.354-3.326-.092-28.815 12.954-77.143-35.754-63.574-18.634 17.637-33.534-11.598-57.5-1.3zm29.1 4.7c21.34 9.938 16.877 85.183-18.244 58.406-42.623 12.918-19.099-34.51-11.669-56.531 8.905-4.013 20.581-3.88 29.912-1.875zm51.1.1c22.941 25.218 11.577 78.579-33.1 63.5-17.368 1.999-1.573-87.632 33.1-63.5zm-74.7 7.5c-25.519 11.669 47.947 1.295 1.575 8.925 10.626 17.317 40.62-6.87 4.653-9.809zm-7.2 17.7c13.416 4.88 39.867 16.977 4.6 8.2-8.358 11.155 51.935 9.526 12.5-6.9l-8.4-1.362zm-1.1 17.6c11.517 10.198 50.462 16.076 12.038-.138L493.678 727zm57.1-33.4c-4.769 5.463 49.983 4.533 3.395 7.919 18.43 13.968 43.146-15.663-3.395-7.919zm-.5 14.9c-8.544 6.941 57.155 4.583 12-1.6l-7.022.547zm.2 8.2c-12.057 10.257 64.159-.05 0 0zm2 8.1c-29.864 10.525 61.741 2.386 7.084-.272zm-1.5 9.9c-18.225 7.617 56.537 4.208 6.263-.862zm390.6-49.3c-21.934 9.271-58.489 12.012-18.791 35.077 9.475 32.466 81.025.65 31.103 22.311-23.123 6.997-54.732-55.738-49.212-28.687-7.283 11.362 28.406 59.595 48.9 44.2 34.573-7.855 25.936-11.851 33.625-34.425-16.998-6.556-30.676-44.714-45.625-38.475zm10 8.7c-5.094 2.209 1.19-5.313 0 0zm4.1 9c43.074 25.355 3.834 25.153-13.712 30.513-7.089-17.244-56.88-36.487-6.227-36.703 8.831-4.962 13.939-1.972 19.939 6.191zm-37.3 24.4c22.368 13.528 35.286 33.047 6.86 9.608-10.186-14.702-6.417 6.502-12.86-6.208-2.072-5.783-7.89-17.686 6-3.4zm5.8 13c11.822 28.047 76.963-8.408 23.737 15.638-7.037 12.082-37.6-24.906-23.737-15.638z"
     id="path16"
     style="fill:#ffffff" />
  <use
     xlink:href="#A"
     x="243"
     y="666"
     id="use18"
     style="fill:#ffffff" />
  <path
     d="M225.678 704.7c-19.672 4.895-28.706 39.799-6.3 43.8 16.586 22.002 40.064-15.879 27.223-32.019-8.44-1.899-12.737-20.994-20.923-11.781zm5.7 6.7c-5.026 16.737-6.222-16.176 0 0zm-11.5 5c1.197 14.803-13.248-8.518 0 0zm20.1-1.8c6.949 14.978-13.381 2.014 0 0zm-6 9.6c5.963 36.996-28.009-11.415 0 0zm-18.6 0c5.889 17.819-18.128-6.403 0 0zm29.8 3.3c12.48 14.15-17.97 1.475 0 0zm-25.1 10.5c-13.29 15.815-10.358-12.536 0 0zm20.9 4.5c4.583 18.459-14.835-7.066 0 0zm-10.9 2.4c-2.232 24.766-16.266-14.625 0 0zm82-28.2c-19.959.656-34.598 23.31-48.5 12.7 14.83 19.095-19.739 81.599 27.475 84.55-16.107-19.758 21.226-31.247 15.225-39.75 9.973 16.455 60.515 63.446 53.212 24.087-3.274 28.744-76.237-40.648-39.512-35.587-7.444-32.984 45.21-21.551 2.4-44.1l-3.613-1.775zm12.3 10c8.061 10.311-15.866 38.478-30.1 14-31.346-13.747 53.639 2.177 5.209-11.664-31.726 7.249 21.264-15.052 24.891-2.336zm-35.8 15.8c40.473 18.377-1.299 20.922-7.7 3.9 41.076 15.081-15.74 84.938-12.289 27.398.365-42.294 5.954-3.239 25.589 2.902-6.871-6.663-32.207-37.882-5.6-34.2zm-17.6 34.6c4.164 20.358 10.013 1.556 0 0zm-96.3-56.8c9.584 34.828 34.968 66.94 61.6 86.9-20.23-26.95-31.544-69.116-61.6-86.9zm18.4 21.8c2.825 19.504-11.505-12.889 0 0zm9.8 15.6c16.239 20.664-3.58 9.932-4.6-3.85l1.2-1.85zm10.7 18.1c-2.094 8.196-6.817-7.062 0 0zm183-28.5c-46.383-5.118-25.483 74.462 2.4 70.727 15.933-15.012 29.987-1.864 50.2-18.527-14.603-20.969-46.715-8.911-46.2-46.6 1.51-1.772-3.861-9.898-6.4-5.6zm2.8 9.9c-3.852 12.239-13.922-11.751 0 0zm-9.8 3.2c13.603 8.576 32.599 45.334 32.1 40.6-22.236-12.86-33.151 32.071-42.8-10.4 17.249 18.515 28.053-12.094 9.85-15.475 14.467-5.513-28.763 10.862-5.65-9.525 2.553-2.139.542-17.667 6.5-5.2zm-9.5 1.2c-10.227 19.532-5.011-13.57 0 0zm5.9 22.3c-4.717 8.356-11.169-4.962 0 0zm13.6.9c-2.831 13.51-11.698-8.624 0 0zm-8.7 6.4c-2.494 12.797-8.969-8.299 0 0zm46.1.4c3.486 10.234-16.855 2.99 0 0zm-7.4 1.9c-3.731 5.683-3.766-5.606 0 0zm14 5.3c-18.949 16.821-35.262 3.636 0 0zm-34.7 5.2c2.817 11.496-17.431-7.895 0 0zm199.4-48.6c-25.056 32.066 19.846 60.346 17.5 12.6-3.433-6.866-6.896-20.895-17.5-12.6zm10.3 10.4c-4.55 34.085-3.93-10.085-5.7-6.675 4.643-2.646 6.67 3.686 5.7 6.675zm-8.4 20.3c27.11 4.319-18.055 9.009 0 0zm247.4-25.3c-11.755 20.892-49.093 50.031-2.8 59 26.455 31.506 78.046-36.82 38.288-47.625-7.552-10.193-23.757-14.283-35.487-11.375zm12.5 5.2c-25.411 35.102-27.941-2.441 0 0zm8.6 3.9c.68 14.048-20.666-5.341 0 0zm6.8 9.4c18.619 49.001-51.282 17.416-21.6 3.7 5.634-3.382 15.858-8.749 21.6-3.7zm16.4 2.8c-.125 34.925-19.788-4.83 0 0zm-51.3 13.9c10 41.794-27.016-11.17 0 0zm40.8 3.1c-3.622 3.729-3.095-3.888 0 0zm.8 12.4c-20.426 34.745-5.219-21.627 0 0zm-12.9-.4c-1.859 9.951-8.51-6.888 0 0zm-6.8 4.9c-2.597 11.99-22.225-7.317 0 0zm-.4-27.3c-18.091 18.686 23.274 11.445 0 0zm-362.5-23.3c-26.795 5.406 13.985 46.299 0 0zm26.1 4.7c11.202 4.78-10.307 28.348 17 19.6-18.577 3.6 6.909-28.381-17-19.6zm43.3-.7c-13.127 12.333 12.01 1.191-1.042 15.972 13.685 1.886-17.104 16.459 11.455 3.541-2.787-7.429 5.362-25.442-10.413-19.513zm-56.7 2.2c-14.514 22.156 23.232 14.496 2.525-.163zm35.1 5c-4.985 9.009 16.649 14.582 13.532 1.365l-.125-.154c-3.106-3.331-10.243.232-13.408-1.211zm-140.7 69.7c-30.839 8.172-14.337 79.138 26.3 52.7 33.193 9.99 3.747-54.34-1.488-51.45-9.883 16.746-19.124-12.865-24.812-1.25zm26.5 12.6c23.441 29.689-8.426 52.39-32.887 25.763-12.356-25.831 4.104-30.479 16.35-18.337-8.116-11.14 18.388-21.015 16.538-7.425zm154.3-9.2c-48.72 20.031 23.059 62.963 19.4 24.7 11.377-8.84-9.232-31.292-19.4-24.7zm3.1 4c-1.826 9.485-4.599-3.877 0 0zm6.4 3.4c-5.582 3.191-.146-9.616 0 0zm2.4 6.7c10.808 47.233-47.513-10.159 0 0zm-18.3-1.9c-1.594 5.629-4.911-3.476 0 0zm-2.5 6.7c-6.555 3.287-.589-4.757 0 0zm-.8 7.6c-5.324 2.377 1.417-7.502 0 0zm24.8 6.8c-2.826 6.879-2.964-6.781 0 0zm-15.9 1.3c-5.094 2.209 1.19-5.313 0 0zm8.9 2.2c-6.213 7.168-5.886-7.332 0 0zm-80.2 4.6c-2.81 10.908 14.473-3.936 0 0z"
     id="path20"
     style="fill:#ffffff" />
  <defs
     id="defs23">
    <path
       id="A"
       d="M531.578 22.5a1.54 1.54 0 0 0 1.5 1.5 1.54 1.54 0 0 0 1.5-1.5 1.54 1.54 0 0 0-1.5-1.5 1.54 1.54 0 0 0-1.5 1.5z" />
  </defs>
</svg>
