<svg xmlns="http://www.w3.org/2000/svg" width="760.161" height="1000.388" viewBox="0 0 201.126 264.686" fill="#fff" xmlns:v="https://vecta.io/nano"><path d="M174.129 0c-18.139 17.594-35.478 36.345-49.063 57.747-5.097 13.759-3.733 29.011-2.686 43.369 1.674 14.281 4.282 29.275.054 43.325-5.05 2.514-7.521 9.14-.422 10.86 11.601 3.773 10.679 18.781 4.088 26.613-.679 3.484-1.284 8.498.317 12.731 5.161 13.073 16.109-1.239 22.093-7.28 11.874-13.642 11.401-33.155 12.011-50.177-.554-21.418 1.289-43.115 6.212-63.986 4.174-19.526 21.13-35.874 18.253-56.904C183.773 9.641 179.395 4.037 174.129 0zm-6.841 4.182c-20.37 18.46-38.631 39.191-55.993 60.449-8.205 9.712-7.792 23.445-2.776 34.492 2.901 9.086 4.849 18.106 7.749 27.135.743 6.061-.975 17.674 2.433 20.378 6.398-8.822 3.743-20.936 3.58-31.198-2.143-18.544-4.797-37.775.181-56.104 11.603-20.686 28.319-38.253 44.827-55.151zM7.301 88.174c-2.936 1.835 3.033 12.571-3.602 5.696-7.713-11.016.523 7.135 4.551 8.69 11.194 1.58 2.795 16.509 6.611 24.522 2.629 6.354 4.633 12.921 5.674 20.122 2.397 11.383 9.744 21.524 16.464 31.269.828 6.085 6.231 15.708 12.08 20.74 9.562 11.423 19.165 22.862 27.965 34.883 11.235.565 21.491 7.586 32.732 7.32 8.405-2.912 20.48-5.938 21.037-16.742 2.987-9.775 7.042-18.67-3.209-25.548-2.822-2.176-4.11-6.2-4.305-9.586 2.149-1.558 1.68-5.291-.99-5.943.145-4.142 1.097-6.208-1.899-11.532.321-5.738.097-12.817-3.262-17.998-3.402-4.107-.915-9.612-2.106-14.564-.637-3.473-.665-4.978-.12-8.181-.889-14.315-9.515-26.893-17.099-38.413-10.108 1.609-21.677-.985-31.527 4.522-3.002 2.883-15.16-7.77-7.936-.344 1.202 7.967-15.504-5.581-6.455 3.36 3.668 8.548-19.728-3.478-8.746 3.799 12.337 7.914-22.88-.489-4.649 5.546 11.2.967-1.36 2.332-2.818 6.487 6.883-.439 12.925-3.481 19.899-4.527 10.013-.169 20.213-.762 29.909 2.194 3.998-.469 1.31 15.159 5.868 19.268.963 4.033-4.614 7.198-5.616 11.304-1.44 1.474-4.572 2.778-5.386-.1-2.195-3.946 1.668-8.374-.926-12.607-2.613-5.478-9.54-5.56-13.12-9.905-1.606-.079-3.476 1.887-3.475 2.978-1.02 1.872-5.02 1.959-7.059 3.803-3.305 2.442-3.408 8.127-2.16 11.434 2.146 3.162 8.344 2.601 8.169 7.595-.834 4.578-6.321 3.141-9.252 1.581-11.387 1.543-7.891-12.46-14.166-18.558-5.985-6.567-5.396-16.188-9.997-23.701-.679-4.796 18.415-6.681 12.463-9.266-4.436 3.403-14.683 1.905-13.444-5.097-1.389-6.694-.233 11.61-7.731 4.456-1.671-3.192-4.301-14.071-3.583-4.146.253 11.207-8.942-.084-8.786-4.809zM.102 90.139c-.241-.661.021.298 0 0zm13.762 15.877l-.014.074zm21.744 10.285c-.493.124.133.049 0 0zm13.186.929c-4.56.755-7.34 3.826-6.707 4.347.648.533 4.67-4.182 6.354-.798 1.418 5.369 1.55 16.895 6.359 6.443 3.673-2.628 10.229-2.751 3.085-5.584-2.348-2.308-5.54-4.748-9.09-4.408zm-2.561 3.346c-6.473 1.208 5.664 2.297 0 0zm35.755 14.183c1.126 3.359-2.452 7.04.699 9.602 3-4.506 9.385-7.653-.699-9.602zm-64.622.203c-.184-.119-.09.206 0 0zm33.308-.02c-9.188-.516 2.925 6.635 0 0zm-7.507 1.023c2.647 5.697 10.872 16.829 16.853 11.221-1.181-4.644-8.189-2.233-8.765-7.759-2.91-.483-5.482-2.21-8.088-3.462zm76.983 20.527c4.042 6.13.1 13.667 3.408 19.862-.375 12.989 9.387-9.203 4.361-13.958-1.471-3.105-4.651-4.856-7.769-5.904zm-74.888 41.375c-9.785.97-21.826 9.725-18.244 20.789 9.961 15.455 22.245 29.5 33.22 44.317 11.262 7.659 6.975-12.712.963-15.744-8.094-3.915-11.889-12.967-17.551-19.625-6.792-3.944-10.646-15.833-4.332-22.598 1.581-4.938 13.86-2.049 5.944-7.139zm2.545 4.908c-11.498-.002-13.075 18.09-3.903 22.105 5.843 7.539 9.967 17.202 19.035 21.451 4.551 2.969 5.26 17.68 8.714 5.576 10.28-9.154 1.195-22.159-6.299-29.904-5.893-5.942-10.152-15.808-17.547-19.228zM201.126 39.763c-5.377 1.227-18.387.861-18.798 3.755l18.798-3.755zm-75.841 4.07c-31.793 1.814-65.322 3.631-93.38 20.368-8.636 6.512-21.044 13.072-20.654 25.519 2.707 4.327 3.934-9.884 7.502-1.964 2.993 8.045 6.572-.568 10.137-1.015 1.347 3.757 3.273 11.046 6.521 3.616 17.475-19.147 43.604-26.41 68.277-30.811 9.816.947 16.03-7.456 20.728-14.692zM10.418 105.399c1.238 33.18 12.201 64.919 15.801 97.786.292-12.996-1.916-25.897-2.592-38.853-2.672-7.818-4.196-15.909-6.315-23.929-2.068-8.407-5.854-16.641-4.332-25.482.095-3.338-.656-6.737-2.562-9.522z" fill-opacity=".88"/></svg>