<svg xmlns="http://www.w3.org/2000/svg" xmlns:xlink="http://www.w3.org/1999/xlink" width="648.677" height="873.252" viewBox="0 0 171.629 231.048" xmlns:v="https://vecta.io/nano"><path d="M94.491 101.835c-6.309.478-12.715.52-18.956-.642-3.364-3.054-3.608-8.163-7.093-11.162-2.829-3.007-6.679-4.889-8.655-8.653-3.047-4.182-7.927-6.252-12.012-9.186-1.796-3.883 4.675-4.816 7.307-3.42 4.385 1.333 7.278 5.197 11.22 7.276 3.957 1.35 7.404-2.687 7.327-6.428.278-4.789-.234-9.564-1.388-14.22-1.26-4.931-1.101-10.036-1.74-15.051-1.421-3.431 3.065-7.015 5.046-3.065 1.539 3.953 1.26 8.45 2.68 12.518 1.21 3.654 1.113 7.576 2.177 11.264 4.25.296 1.129-5.743 1.392-8.251-.664-5.505.154-11.047.114-16.567-1.055-4.395 5.628-6.479 5.862-1.414.022 3.45-.031 6.899.43 10.336.572 4.911.638 9.856.64 14.788.652 3.409 2.162 1.195 1.913-1.297-.163-3.907.164-7.791.657-11.658.17-3.321-.186-6.674.391-9.968 3.09-3.619 6.56 2.178 5.298 5.237-.045 5.268.815 10.579-.261 15.793-.455 2.58-1.615 10.527 2.95 7.796 1.197-3.613 2.092-7.428 4.274-10.635.647-2.844 3.396-10.367 6.631-5.617.364 3.606-1.797 6.93-2.614 10.388-1.759 4.619-4.13 9.221-3.895 14.301-.778 9.496-3.985 18.739-8.759 26.948-.223.293-.535.599-.936.591zm-24.769 4.93c-1.486 6.151-3.417 12.258-6.444 17.839-3.941 2.261-8.877.922-12.803 3.315-3.732 1.767-6.707 4.85-10.896 5.573-4.917 1.612-8.388 5.619-12.437 8.603-4.247.514-3.144-5.93-1.005-8.005 2.617-3.762 7.184-5.326 10.375-8.437 2.502-3.35-.279-7.872-3.862-8.949-4.471-1.738-9.172-2.72-13.957-3.055-5.08-.318-9.888-2.04-14.856-2.975-3.702.296-5.732-5.074-1.364-5.744 4.235-.248 8.428 1.401 12.735 1.302 3.849-.027 7.55 1.272 11.388 1.394 1.59-3.952-5.117-2.841-7.423-3.863-5.443-1.063-10.463-3.545-15.728-5.206-4.507-.349-4.433-7.348.459-6.013 3.29 1.04 6.555 2.152 9.966 2.771 4.848.967 9.574 2.426 14.267 3.941 3.444.428 1.803-1.69-.646-2.22-3.768-1.047-7.363-2.553-10.89-4.212-3.107-1.184-6.408-1.877-9.364-3.439-2.493-4.054 4.091-5.572 6.613-3.429 4.999 1.664 10.317 2.48 14.946 5.108 2.315 1.226 9.52 4.775 8.326-.408-3.069-2.25-6.424-4.276-8.804-7.339-2.507-1.49-8.819-6.421-3.304-8.038 3.543.763 6.041 3.842 9.079 5.683 3.854 3.095 7.503 6.767 12.408 8.106 8.796 3.662 16.604 9.558 22.946 16.625.21.303.405.693.275 1.073zm-3.018 25.437c5.413 3.276 10.651 6.964 15.055 11.536.963 4.44-1.806 8.74-.712 13.206.556 4.091 2.595 7.86 2.017 12.071.05 5.174 2.82 9.694 4.44 14.456-.794 4.204-6.603 1.204-7.934-1.462-2.795-3.633-2.905-8.459-4.905-12.441-2.437-3.398-7.588-2.115-9.698.975-3.009 3.736-5.366 7.92-7.132 12.38-1.839 4.746-4.934 8.808-7.328 13.261-.837 3.618-6.57 3.929-5.888-.436 1.044-4.112 3.884-7.61 5.092-11.745 1.138-3.677 3.496-6.812 4.772-10.433-3.287-2.71-4.256 4.018-5.927 5.907-2.658 4.867-6.543 8.902-9.718 13.418-1.695 4.19-8.345 2.004-5.592-2.255 1.986-2.821 4.033-5.597 5.655-8.662 2.387-4.329 5.207-8.393 8.07-12.408 1.45-3.154-1.066-2.229-2.311-.056-2.137 3.274-4.66 6.246-7.308 9.107-2.068 2.604-3.726 5.54-6.109 7.886-4.618 1.15-4.074-5.585-1.269-7.341 3.097-4.262 5.483-9.084 9.388-12.702 1.869-1.836 7.43-7.63 2.128-8.06-3.073 2.245-6.018 4.83-9.658 6.173-2.179 1.939-8.787 6.465-8.66.719 1.799-3.146 5.489-4.597 8.163-6.936 4.115-2.738 8.719-5.105 11.479-9.377 6.15-7.277 14.131-12.937 22.785-16.845.352-.109.783-.176 1.105.063zm24.144 11.038c4.785-4.14 9.907-7.988 15.614-10.769 4.521.452 7.759 4.411 12.344 4.746 4.063.732 8.277-.047 12.106 1.8 4.938 1.547 10.091.304 15.12.23 3.754 2.051-.889 6.653-3.835 7.097-4.317 1.539-8.942.157-13.347.833-3.983 1.271-4.35 6.567-2.06 9.527 2.628 4.014 5.882 7.545 9.58 10.6 3.948 3.212 6.859 7.408 10.358 11.057 3.185 1.911 1.714 7.461-2.229 5.467-3.59-2.26-6.043-6.04-9.605-8.463-3.148-2.216-5.404-5.425-8.455-7.754-3.591 2.292 2.512 5.287 3.794 7.459 3.811 4.029 6.452 8.968 9.771 13.38 3.464 2.904-.665 8.556-3.869 4.626-2.072-2.759-4.082-5.562-6.499-8.048-3.383-3.605-6.38-7.54-9.318-11.501-2.553-2.351-2.449.327-.765 2.182 2.457 3.042 4.507 6.358 6.412 9.758 1.84 2.769 4.123 5.252 5.62 8.242-.328 4.748-6.568 2.155-7.375-1.054-3.1-4.26-6.952-8.015-9.192-12.845-1.171-2.344-4.97-9.42-7.012-4.508 1.189 3.615 2.741 7.213 2.897 11.09 1.173 2.67 3.443 10.351-1.984 8.461-2.439-2.68-2.682-6.638-4.084-9.902-1.336-4.759-2.171-9.868-5.384-13.809-5.028-8.093-7.954-17.43-9.005-26.867.005-.369.074-.8.4-1.032zm17.48-17.693c-2.5-5.813-4.619-11.858-5.545-18.138 1.797-4.173 6.55-6.062 8.256-10.332 1.926-3.652 2.457-7.904 5.375-10.995 2.967-4.239 3.341-9.527 4.79-14.343 3.09-2.959 6.073 2.858 5.606 5.801.162 4.58-2.553 8.571-3.241 12.974.008 4.181 4.945 6.131 8.458 4.844 4.62-1.291 8.97-3.326 13-5.928 4.255-2.793 9.135-4.299 13.671-6.531 2.784-2.458 7.63.622 4.537 3.778-3.239 2.739-7.584 3.935-10.97 6.598-3.064 2.331-6.804 3.511-9.948 5.715 1.099 4.116 5.799-.796 8.256-1.362 4.992-2.415 10.499-3.44 15.707-5.269 3.815-2.424 7.955 3.22 3.24 5.086-3.256 1.141-6.535 2.21-9.636 3.761-4.459 2.135-9.116 3.803-13.779 5.405-3.013 1.723-.429 2.433 1.848 1.389 3.643-1.422 7.423-2.374 11.24-3.162 3.196-.917 6.253-2.342 9.555-2.866 4.427 1.748.069 6.912-3.234 6.711-4.998 1.668-9.742 4.204-15.023 4.879-2.588.407-10.481 1.89-6.417 5.321 3.805-.04 7.704-.432 11.447.591 2.9-.311 10.908-.153 7.465 4.449-3.292 1.515-7.138.55-10.674.899-4.94-.165-10.062-.914-14.791.957-9.235 2.346-19.018 2.313-28.332.462-.35-.116-.74-.312-.863-.694z" fill="#fff"/><g fill="#fff"><path d="M24.418 17.43q.48 0 .892.172.412.172.789.446.515.412 1.029.823.549.377 1.201.652.652.274 1.441.446.823.172 1.818.172.823 0 1.578-.137.755-.172 1.338-.515.583-.343.926-.858.343-.515.343-1.201 0-.72-.343-1.235-.309-.549-1.029-.961-.686-.446-1.853-.823-1.132-.377-2.779-.789-1.372-.343-2.607-.858-1.235-.549-2.161-1.338-.926-.789-1.475-1.921-.515-1.132-.515-2.745 0-1.613.652-2.848.686-1.269 1.853-2.127 1.167-.892 2.71-1.338Q29.77 0 31.486 0q2.161 0 3.671.515 1.51.48 2.676 1.235.755.48 1.064 1.098.343.618.343 1.201 0 .583-.206.995-.206.377-.515.618-.309.24-.686.377-.343.103-.652.103-.583 0-.995-.172-.412-.172-.823-.412-.343-.206-.72-.412-.377-.24-.892-.446-.48-.206-1.132-.343-.618-.137-1.51-.137-1.921 0-2.813.789-.858.755-.858 1.715 0 1.269 1.338 2.024 1.372.755 4.357 1.51 1.269.343 2.539.823 1.304.48 2.299 1.269.995.755 1.613 1.956.652 1.167.652 2.951 0 1.441-.583 2.745-.583 1.269-1.715 2.264-1.132.961-2.848 1.544-1.681.549-3.946.549-1.407 0-2.573-.24-1.167-.24-2.127-.618-.926-.377-1.647-.858-.72-.48-1.235-.995-.412-.377-.789-.926-.377-.549-.377-1.132 0-.618.206-1.029.24-.412.549-.652.343-.274.686-.377.343-.103.583-.103zm22.884-1.133q.274 2.059 1.51 3.156 1.269 1.098 3.156 1.098.72 0 1.338-.137.652-.172 1.167-.412.515-.24.892-.48.412-.274.652-.446.618-.274.926-.274.789 0 1.304.583.549.583.549 1.304 0 .515-.274.961-.274.412-.618.686-.995.823-2.573 1.441-1.578.583-3.705.583-1.887 0-3.465-.652-1.578-.686-2.71-1.887-1.132-1.201-1.784-2.848-.618-1.647-.618-3.602 0-1.887.652-3.568.652-1.681 1.784-2.916 1.167-1.235 2.745-1.956 1.578-.72 3.397-.72 1.784 0 3.225.652 1.475.618 2.505 1.681 1.029 1.029 1.578 2.402.583 1.372.583 2.848 0 1.098-.377 1.818-.343.686-1.51.686zm8.097-2.505q.034-.652-.206-1.304-.24-.686-.755-1.235-.48-.549-1.201-.858-.72-.343-1.647-.343-1.647 0-2.779.995-1.132.961-1.475 2.745zm12.18 8.201q0 .926-.618 1.475-.618.549-1.475.549-.892 0-1.51-.549-.583-.549-.583-1.475V8.441q0-.789.48-1.338.515-.549 1.475-.549 1.99 0 1.99 1.887v1.167q.72-1.441 1.99-2.402 1.304-.995 3.122-.995 1.201 0 1.681.549.515.549.515 1.304 0 .858-.48 1.441-.48.583-1.544.583-.961 0-1.887.343-.892.309-1.613.961-.686.652-1.132 1.681-.412.995-.412 2.367zm18.664.583q-.377.72-.858 1.098-.48.343-1.269.343-.789 0-1.269-.343-.446-.377-.823-1.167L76.328 9.813q-.137-.24-.24-.583-.103-.377-.103-.686 0-.858.583-1.407.583-.583 1.544-.583.892 0 1.304.48.446.446.618.858l4.186 10.087 4.186-10.087q.24-.549.618-.926.412-.412 1.098-.412.995 0 1.647.549.652.549.652 1.544 0 .549-.206.995z"/><use xlink:href="#B"/><path d="M119.248 19.934q0 1.064-.72 1.784-.412.48-.995.961-.583.48-1.338.858-.755.377-1.715.583-.961.24-2.161.24-1.956 0-3.534-.686-1.578-.72-2.71-1.921-1.098-1.235-1.715-2.882-.583-1.681-.583-3.602 0-1.921.652-3.568.652-1.647 1.784-2.848 1.132-1.235 2.676-1.921 1.578-.72 3.431-.72 2.059 0 3.705.72 1.681.72 2.779 2.161.652.858.652 1.681 0 .995-.618 1.441-.583.412-1.201.412-.583 0-.926-.206-.343-.206-.583-.446-.206-.206-.515-.515-.309-.343-.789-.652-.446-.309-1.064-.515-.583-.24-1.407-.24-1.029 0-1.818.446-.789.412-1.338 1.167-.549.72-.823 1.681-.274.926-.274 1.956 0 1.029.274 1.99.274.926.823 1.681.549.72 1.304 1.167.789.412 1.818.412 1.098 0 1.99-.48.892-.515 1.715-1.304.412-.377.755-.48.377-.137.618-.137.618 0 1.235.446.618.446.618 1.338z"/><use xlink:href="#B" x="27.276"/><path d="M136.3 23.674q-1.613-.72-2.779-1.921-1.132-1.235-1.784-2.882-.652-1.647-.652-3.568 0-1.921.652-3.568.652-1.681 1.784-2.882 1.167-1.235 2.779-1.921 1.613-.72 3.568-.72 1.921 0 3.534.72 1.613.686 2.779 1.921 1.167 1.201 1.818 2.882.652 1.647.652 3.568 0 1.921-.652 3.568-.652 1.647-1.818 2.882-1.167 1.201-2.779 1.921-1.613.686-3.534.686-1.956 0-3.568-.686zm.24-4.7q.583.72 1.407 1.167.823.412 1.921.412 1.098 0 1.921-.412.823-.412 1.372-1.132.583-.72.858-1.647.309-.961.309-2.024 0-1.098-.309-2.059-.274-.961-.858-1.681-.549-.72-1.372-1.132-.823-.412-1.921-.412-1.098 0-1.921.412-.823.377-1.407 1.098-.549.686-.858 1.647-.274.926-.274 2.024 0 1.064.274 2.024.309.961.858 1.715z"/></g><path d="M40.117 224.275q.469 0 .872.168.402.168.771.436.503.402 1.006.805.536.369 1.174.637.637.268 1.408.436.805.168 1.777.168.805 0 1.542-.134.738-.168 1.308-.503.57-.335.905-.838.335-.503.335-1.174 0-.704-.335-1.207-.302-.536-1.006-.939-.671-.436-1.811-.805-1.106-.369-2.716-.771-1.341-.335-2.548-.838-1.207-.536-2.112-1.308-.905-.771-1.442-1.878-.503-1.106-.503-2.682 0-1.576.637-2.783.671-1.241 1.811-2.079 1.14-.872 2.649-1.308 1.509-.436 3.185-.436 2.112 0 3.588.503 1.475.469 2.615 1.207.738.469 1.039 1.073.335.604.335 1.174 0 .57-.201.972-.201.369-.503.604-.302.235-.671.369-.335.101-.637.101-.57 0-.972-.168-.402-.168-.805-.402-.335-.201-.704-.402-.369-.235-.872-.436-.469-.201-1.106-.335-.604-.134-1.475-.134-1.878 0-2.749.771-.838.738-.838 1.676 0 1.241 1.308 1.978 1.341.738 4.258 1.475 1.241.335 2.481.805 1.274.469 2.246 1.241.972.738 1.576 1.911.637 1.14.637 2.883 0 1.408-.57 2.682-.57 1.241-1.676 2.213-1.106.939-2.783 1.509-1.643.536-3.856.536-1.375 0-2.515-.235-1.14-.235-2.079-.604-.905-.369-1.609-.838-.704-.469-1.207-.972-.402-.369-.771-.905-.369-.536-.369-1.106 0-.604.201-1.006.235-.402.536-.637.335-.268.671-.369.335-.101.57-.101zm23.336 6.102q-1.576-.704-2.716-1.878-1.106-1.207-1.743-2.816-.637-1.609-.637-3.487 0-1.878.637-3.487.637-1.643 1.743-2.816 1.14-1.207 2.716-1.878 1.576-.704 3.487-.704 1.878 0 3.453.704 1.576.671 2.716 1.878 1.14 1.173 1.777 2.816.637 1.609.637 3.487 0 1.878-.637 3.487-.637 1.609-1.777 2.816-1.14 1.173-2.716 1.878-1.576.671-3.453.671-1.911 0-3.487-.671zm.235-4.593q.57.704 1.375 1.14.805.402 1.878.402 1.073 0 1.878-.402.805-.402 1.341-1.106.57-.704.838-1.609.302-.939.302-1.978 0-1.073-.302-2.012-.268-.939-.838-1.643-.536-.704-1.341-1.106-.805-.402-1.878-.402-1.073 0-1.878.402-.805.369-1.375 1.073-.536.671-.838 1.609-.268.905-.268 1.978 0 1.039.268 1.978.302.939.838 1.676zm29.606.939q0 1.039-.704 1.744-.402.469-.972.939-.57.469-1.308.838-.738.369-1.676.57-.939.235-2.112.235-1.911 0-3.453-.671-1.542-.704-2.649-1.878-1.073-1.207-1.676-2.816-.57-1.643-.57-3.521 0-1.878.637-3.487.637-1.609 1.743-2.783 1.106-1.207 2.615-1.878 1.542-.704 3.353-.704 2.012 0 3.621.704 1.643.704 2.716 2.112.637.838.637 1.643 0 .972-.604 1.408-.57.402-1.174.402-.57 0-.905-.201-.335-.201-.57-.436-.201-.201-.503-.503-.302-.335-.771-.637-.436-.302-1.039-.503-.57-.235-1.375-.235-1.006 0-1.777.436-.771.402-1.308 1.14-.536.704-.805 1.643-.268.905-.268 1.911 0 1.006.268 1.945.268.905.805 1.643.536.704 1.274 1.14.771.402 1.777.402 1.073 0 1.945-.469.872-.503 1.676-1.274.402-.369.738-.469.369-.134.604-.134.604 0 1.207.436.604.436.604 1.308zm4.157-15.39q-.604-.536-.604-1.609 0-1.039.604-1.609.604-.604 1.576-.604.972 0 1.609.57.637.57.637 1.643 0 1.14-.637 1.643-.637.503-1.609.503-.939 0-1.576-.536zm3.588 14.082q0 .671.168 1.14.201.436.704.436.57 0 .805.503.235.503.235 1.073 0 .972-.604 1.576-.57.57-1.743.57-1.71 0-2.682-1.14-.972-1.174-.972-3.889v-10.025q0-.838.57-1.408.57-.604 1.475-.604.905 0 1.475.604.57.57.57 1.408zm16.865 1.945q-.805 1.777-2.28 2.749-1.442.939-3.42.939-1.509 0-2.85-.604-1.341-.637-2.347-1.777-1.006-1.14-1.609-2.749-.57-1.643-.57-3.655 0-2.012.604-3.655.637-1.676 1.676-2.85 1.073-1.174 2.448-1.811 1.408-.637 2.951-.637 2.079 0 3.353.939 1.308.905 2.045 2.481v-1.341q0-.771.57-1.241.57-.503 1.509-.503.939 0 1.475.503.57.469.57 1.241v10.092q0 1.509.838 1.509.503 0 .771.436.302.402.302 1.174 0 2.112-2.582 2.112-1.676 0-2.448-.872-.771-.905-.972-2.079zm-7.578-1.408q.604.671 1.408 1.039.805.335 1.744.335.905 0 1.71-.335.838-.369 1.442-1.006.604-.671.939-1.609.369-.939.369-2.112 0-2.347-1.241-3.755-1.207-1.442-3.219-1.442-2.079 0-3.252 1.442-1.174 1.442-1.174 3.755 0 1.174.335 2.112.335.905.939 1.576zm20.587-.537q0 .671.168 1.14.201.436.704.436.57 0 .805.503.235.503.235 1.073 0 .972-.604 1.576-.57.57-1.743.57-1.71 0-2.682-1.14-.972-1.174-.972-3.889V209.59q0-.838.57-1.408.57-.604 1.475-.604.905 0 1.475.604.57.57.57 1.408z" fill="#fff"/><defs ><path id="B" d="M96.227 4.186q-.618-.549-.618-1.647 0-1.064.618-1.647.618-.618 1.613-.618.995 0 1.647.583.652.583.652 1.681 0 1.167-.652 1.681-.652.515-1.647.515-.961 0-1.613-.549zm3.671 14.41q0 .686.172 1.167.206.446.72.446.583 0 .823.515.24.515.24 1.098 0 .995-.618 1.613-.583.583-1.784.583-1.75 0-2.745-1.167-.995-1.201-.995-3.98V8.612q0-.858.583-1.441.583-.618 1.51-.618.926 0 1.51.618.583.583.583 1.441z"/></defs></svg>