<svg xmlns="http://www.w3.org/2000/svg" width="649.217" height="632.047" viewBox="0 0 171.772 167.229" fill="#fff" xmlns:v="https://vecta.io/nano"><path d="M94.562 70.032c-6.309.478-12.715.52-18.956-.642-3.364-3.054-3.608-8.163-7.093-11.162-2.829-3.007-6.679-4.889-8.655-8.653-3.047-4.182-7.927-6.252-12.012-9.186-1.796-3.883 4.675-4.816 7.307-3.42 4.385 1.333 7.278 5.197 11.22 7.276 3.957 1.35 7.404-2.687 7.327-6.428.278-4.789-.234-9.564-1.388-14.22-1.26-4.931-1.101-10.036-1.74-15.051-1.421-3.431 3.065-7.015 5.046-3.065 1.539 3.953 1.26 8.45 2.68 12.518 1.21 3.654 1.113 7.576 2.177 11.264 4.25.296 1.129-5.743 1.392-8.251-.664-5.505.154-11.047.114-16.567-1.055-4.395 5.628-6.479 5.862-1.414.022 3.45-.031 6.899.43 10.336.572 4.911.638 9.856.64 14.788.652 3.409 2.162 1.195 1.913-1.297-.163-3.907.164-7.791.657-11.658.17-3.321-.186-6.674.391-9.968 3.09-3.619 6.56 2.178 5.298 5.237-.045 5.268.815 10.579-.261 15.793-.455 2.58-1.615 10.527 2.95 7.796 1.197-3.613 2.092-7.428 4.274-10.635.647-2.844 3.396-10.367 6.631-5.617.364 3.606-1.797 6.93-2.614 10.388-1.759 4.619-4.13 9.221-3.895 14.301-.778 9.496-3.985 18.739-8.759 26.948-.223.293-.535.599-.936.591zm-24.769 4.93c-1.486 6.151-3.417 12.258-6.444 17.839-3.941 2.261-8.877.922-12.803 3.315-3.732 1.767-6.707 4.85-10.896 5.573-4.917 1.612-8.388 5.619-12.437 8.603-4.247.514-3.144-5.93-1.005-8.005 2.617-3.762 7.184-5.326 10.375-8.437 2.502-3.35-.279-7.872-3.862-8.949-4.471-1.738-9.172-2.72-13.957-3.055-5.08-.318-9.888-2.04-14.856-2.975-3.702.296-5.732-5.074-1.364-5.744 4.235-.248 8.428 1.401 12.735 1.302 3.849-.027 7.55 1.272 11.388 1.394 1.59-3.952-5.117-2.841-7.423-3.863-5.443-1.063-10.463-3.545-15.728-5.206-4.507-.349-4.433-7.348.459-6.013 3.29 1.04 6.555 2.152 9.966 2.771 4.848.967 9.574 2.426 14.267 3.941 3.444.428 1.803-1.69-.646-2.22-3.768-1.047-7.363-2.553-10.89-4.212-3.107-1.184-6.408-1.877-9.364-3.439-2.493-4.054 4.091-5.572 6.613-3.429 4.999 1.664 10.317 2.48 14.946 5.108 2.315 1.226 9.52 4.775 8.326-.408-3.069-2.25-6.424-4.276-8.804-7.339-2.507-1.49-8.819-6.421-3.304-8.038 3.543.763 6.041 3.842 9.079 5.683 3.854 3.095 7.503 6.767 12.408 8.106 8.796 3.662 16.604 9.558 22.946 16.625.21.303.405.693.275 1.073zm-3.018 25.437c5.413 3.276 10.651 6.964 15.055 11.536.963 4.44-1.806 8.74-.712 13.206.556 4.091 2.595 7.86 2.017 12.071.05 5.174 2.82 9.694 4.44 14.456-.794 4.204-6.603 1.204-7.934-1.462-2.795-3.633-2.905-8.459-4.905-12.441-2.437-3.398-7.588-2.115-9.698.975-3.009 3.736-5.366 7.92-7.132 12.38-1.839 4.746-4.934 8.808-7.328 13.261-.837 3.618-6.57 3.929-5.888-.436 1.044-4.112 3.884-7.61 5.092-11.745 1.138-3.677 3.496-6.812 4.772-10.433-3.287-2.71-4.256 4.018-5.927 5.907-2.658 4.867-6.543 8.902-9.718 13.418-1.695 4.19-8.345 2.004-5.592-2.255 1.986-2.821 4.033-5.597 5.655-8.662 2.387-4.329 5.207-8.393 8.07-12.408 1.45-3.154-1.066-2.229-2.311-.056-2.137 3.274-4.66 6.246-7.308 9.107-2.068 2.604-3.726 5.54-6.109 7.886-4.618 1.15-4.074-5.585-1.269-7.341 3.097-4.262 5.483-9.084 9.388-12.702 1.869-1.836 7.43-7.63 2.128-8.06-3.073 2.245-6.018 4.83-9.658 6.173-2.179 1.939-8.787 6.465-8.66.719 1.799-3.146 5.489-4.597 8.163-6.936 4.115-2.738 8.719-5.105 11.479-9.377 6.15-7.277 14.131-12.937 22.785-16.845.352-.109.783-.176 1.105.063zm24.144 11.038c4.785-4.14 9.907-7.988 15.614-10.769 4.521.452 7.759 4.411 12.344 4.746 4.063.732 8.277-.047 12.106 1.8 4.938 1.547 10.091.304 15.12.23 3.754 2.051-.889 6.653-3.835 7.097-4.317 1.539-8.942.157-13.347.833-3.983 1.271-4.35 6.567-2.06 9.527 2.628 4.014 5.882 7.545 9.58 10.6 3.948 3.212 6.859 7.408 10.358 11.057 3.185 1.911 1.714 7.461-2.229 5.467-3.59-2.26-6.043-6.04-9.605-8.463-3.148-2.216-5.404-5.425-8.455-7.754-3.591 2.292 2.512 5.287 3.794 7.459 3.811 4.029 6.452 8.968 9.771 13.38 3.464 2.904-.665 8.556-3.869 4.626-2.072-2.759-4.082-5.562-6.498-8.048-3.383-3.605-6.38-7.54-9.318-11.501-2.553-2.351-2.449.327-.765 2.182 2.457 3.042 4.507 6.358 6.412 9.758 1.84 2.769 4.123 5.252 5.62 8.242-.328 4.748-6.568 2.155-7.375-1.054-3.1-4.26-6.952-8.015-9.192-12.845-1.171-2.344-4.97-9.42-7.012-4.508 1.189 3.615 2.741 7.213 2.897 11.09 1.173 2.67 3.443 10.351-1.984 8.461-2.439-2.68-2.682-6.638-4.084-9.902-1.336-4.759-2.171-9.868-5.384-13.809-5.028-8.093-7.954-17.43-9.005-26.867.005-.369.074-.8.4-1.032zm17.48-17.693c-2.5-5.813-4.619-11.858-5.545-18.138 1.797-4.173 6.55-6.062 8.256-10.332 1.926-3.652 2.457-7.904 5.375-10.995 2.967-4.239 3.341-9.527 4.79-14.343 3.09-2.959 6.073 2.858 5.606 5.801.162 4.58-2.553 8.571-3.241 12.974.008 4.181 4.945 6.131 8.458 4.844 4.62-1.291 8.97-3.326 13-5.928 4.255-2.793 9.135-4.299 13.671-6.531 2.784-2.458 7.63.622 4.537 3.778-3.239 2.739-7.584 3.935-10.97 6.598-3.064 2.331-6.804 3.511-9.948 5.715 1.099 4.116 5.799-.796 8.256-1.362 4.992-2.415 10.499-3.44 15.707-5.269 3.815-2.424 7.955 3.22 3.24 5.086-3.256 1.141-6.535 2.21-9.636 3.761-4.459 2.135-9.116 3.803-13.779 5.405-3.013 1.723-.429 2.433 1.848 1.389 3.643-1.422 7.423-2.374 11.24-3.162 3.196-.917 6.253-2.342 9.555-2.866 4.427 1.748.069 6.912-3.234 6.711-4.998 1.668-9.742 4.204-15.023 4.879-2.588.407-10.481 1.89-6.417 5.321 3.805-.04 7.704-.432 11.447.591 2.9-.311 10.908-.153 7.465 4.449-3.292 1.515-7.138.55-10.674.899-4.94-.165-10.062-.914-14.791.957-9.235 2.346-19.018 2.313-28.332.462-.35-.116-.74-.312-.863-.694z"/></svg>