<svg xmlns="http://www.w3.org/2000/svg" width="473.416" height="758.752" viewBox="0 0 125.258 200.753" fill="none" paint-order="normal" stroke="#000" stroke-linejoin="round" stroke-width="1.323" xmlns:v="https://vecta.io/nano"><path d="M70.35 100.823c6.246-3.737 12.812-2.309 14.209 1.484-3.473 3.482-10.832 4.145-14.209-1.484zm29.87 3.309c1.046-2.836 10.739-4.042 10.799-.402-.603 3.68-7.984 3.439-10.799.402z"/><path d="M89.447 77.6c-13.232 5.024-25.997 15.943-41.87 21.684-4.209 33.201 19.978 50.524 30.996 52.078 4.009.331 7.313 1.08 11.183-4.783 7.014-10.626 23.084-24.309 24.247-43.746 4.106-5.601 2.108-17.404-2.566-23.664m-1.26-1.481c-1.49-1.523-3.183-2.489-4.993-2.605" stroke-linecap="round"/><path d="M35.448 72.727c-3.904-40.125 40.8-35.334 51.393-67.252 13.164 5.338 24.644 28.665 23.558 42.643 3.076 4.252 15.928 30.14 13.349 33.126-1.719.633-11.315-1.283-13.486-2.595-1.192-13.034-4.214-25.462-9.705-37.591.309-.206 5.394 2.437 7.041 3.947 1.996-6.109-7.232-17.623-8.954-7.812l3.459 12.754 1.911 3.369-.91 3.866-3.457-3.005-.412-4.051s-3.066-13.816-5.192-14.993c-2.457-3.41-12.714-11.732-24.561 5.694 5.171-.998 21.957-2.727 23.137-2.182 0 0 12.943 36.104 13.079 38.818-1.862 2.364-58.14-2.775-59.09-8.475-.226 2.669-6.435 6.678-7.476 9.121-.136-.95-2.056-4.885-3.685-5.383z"/><path d="M35.448 72.727C11.917 25.551 69.79-14.728 86.841 5.476h0m28.993 93.458c-.965-3.145-12.537-1.223-16.982 3.138-.797 5.62-1.468 18.459-1.222 19.758.864 2.44.656 4.148-1.005 5.894-1.249.856-3.839 1.644-5.378.254-2.547-2.018-2.696-2.925-6.228-2.124-3.166.575-5.147-3.545-2.521-5.873 2.628-2.79 7.807.879 7.807.879m1.847-.052c.587-1.803 1.285-16.839 1.411-19.523-8.64-8.682-19.013-9.492-35.243-4.627" stroke-linecap="round"/><path d="M76.144 133.545c7.275 7.928 16.068 6.209 16.76 1.408 2.651-3.911-1.09-5.818-4.719-2.585-1.669-3.641-9.699-.18-12.041 1.177z"/><g stroke-linecap="round"><path d="M76.144 133.545c3.058 1.321 7.855-.413 11.519 2.192 2.018-1.087 3.606-1.93 5.241-.785m-45.67-24.433c-.408 1.115-1.267 1.806-2.194 2.15 0 0-1.654.079-2.395-.479-1.151-1.088-1.695-1.968-1.814-3.719-.058-2.153-1.765-3.885-3.288-5.499-1.331-3.43-1.07-3.752-.636-5.35 3.893 3.71 7.295 1.403 10.671 1.662"/><path d="M42.645 112.19c-1.674 13.6-4.192 29.198-15.002 34.219 18.97 18.273 43.609 24.352 48.002 23.376 2.475-.799 5.627-5.223 6.154-7.863.404-1.082 1.303-10.458 1.303-10.458m-39.85-77.889c1.771 8.596 11.515 1.098 15.127 3.954 4.231 4.446 10.342 4.312 13.109 3.426 7.693-4.541 8.373.41 14.126-1.783M39.133 78.11c2.081 13.269 9.97 1.954 15.942 2.457 14.421 7.051 14.404 2.003 25.7 1.095"/><path d="M36.907 97.622c.023-2.153-6.257-1.769-6.983-4.999-.809-5.433 3.257-7.193 4.872-6.608-.422-.685 1.447-4.659 3.241-4.179-.117-1.053 1.448-1.244 1.097-3.725m-1.098 3.725c-.14 10.789 11.658 4.044 16.326 2.662 6.288-.047 10.61 4.54 22.304-.585"/><path d="M34.796 86.015c-.338 11.842 12.112 9.009 17.502 4.804 8.894-4.689 13.299-.471 18.254-3.299m43.451 15.313c.835 2.684 3.285-.577 4.072-2.349 1.483.582 5.768-2.64 4.663-6.363 2.841-.693 3.831-10.088-.912-12.833"/><path d="M122.738 94.121c-1.687-.058 1.09-6.365-1.644-5.463-4.656 3.115-2.958-3.38-7.141-4.9m4.122 16.726c-2.385-2.327 2.154-4.827-1.947-8.143M103.18 68.967c2.362-.641 4.427.055 6.082 1.611m-9.258-10.867c2.903.755 5.541 1.839 7.909 3.2m-66.45 36.811c.094 1.81.695 3.564 1.695 3.545 1.727 2.653 3.581-.125.903-.831-.49-1.075.276-2.005-.724-2.741m-8.638-3.82c-.72.604-.752 1.843-.077 2.47-1.241.207-1.437 2.014-.714 2.531-1.068.689-.949 2.45-.26 2.725-.796.416-.542 2.889.26 2.79-.416.796.207 2.362 1.038 2.466-.45 1.801.367 3.062 1.233 3.374-.485 1.351.384 2.387 1.492 3.634-.173 2.078 2.489 3.737 2.872 9.543m-5.163 13.981c-5.561 4.067-24.902 7.307-35.13 17.898 25.498 7.003 39.758 26.922 46.798 43.32 9.312-1.394 56.393-2.216 57.654-1.012-.748-1.447 7.682-30.785 10.147-32.276-2.202-3.082-18.574-13.988-27.861-17.428"/></g></svg>