<?xml version="1.0" encoding="UTF-8" standalone="no"?>
<!-- Created with Inkscape (http://www.inkscape.org/) -->

<svg
   xmlns:osb="http://www.openswatchbook.org/uri/2009/osb"
   xmlns:dc="http://purl.org/dc/elements/1.1/"
   xmlns:cc="http://creativecommons.org/ns#"
   xmlns:rdf="http://www.w3.org/1999/02/22-rdf-syntax-ns#"
   xmlns:svg="http://www.w3.org/2000/svg"
   xmlns="http://www.w3.org/2000/svg"
   xmlns:sodipodi="http://sodipodi.sourceforge.net/DTD/sodipodi-0.dtd"
   xmlns:inkscape="http://www.inkscape.org/namespaces/inkscape"
   width="125.25829mm"
   height="200.75276mm"
   viewBox="0 0 125.25829 200.75276"
   version="1.1"
   id="svg8"
   inkscape:version="0.92.5 (2060ec1f9f, 2020-04-08)"
   sodipodi:docname="atenea-original.svg">
  <defs
     id="defs2">
    <linearGradient
       id="linearGradient2482"
       osb:paint="solid">
      <stop
         style="stop-color:#ffffff;stop-opacity:1;"
         offset="0"
         id="stop2480" />
    </linearGradient>
    <linearGradient
       id="linearGradient2476"
       osb:paint="solid">
      <stop
         style="stop-color:#000000;stop-opacity:1;"
         offset="0"
         id="stop2474" />
    </linearGradient>
    <linearGradient
       id="linearGradient2470"
       osb:paint="solid">
      <stop
         style="stop-color:#00a600;stop-opacity:1;"
         offset="0"
         id="stop2468" />
    </linearGradient>
    <linearGradient
       id="linearGradient2416"
       osb:paint="solid">
      <stop
         style="stop-color:#9a0000;stop-opacity:1;"
         offset="0"
         id="stop2414" />
    </linearGradient>
    <linearGradient
       id="linearGradient976"
       osb:paint="solid">
      <stop
         style="stop-color:#000000;stop-opacity:1;"
         offset="0"
         id="stop974" />
    </linearGradient>
    <linearGradient
       id="linearGradient970"
       osb:paint="solid">
      <stop
         style="stop-color:#0000bd;stop-opacity:1;"
         offset="0"
         id="stop968" />
    </linearGradient>
    <linearGradient
       id="linearGradient964"
       osb:paint="solid">
      <stop
         style="stop-color:#000000;stop-opacity:1;"
         offset="0"
         id="stop962" />
    </linearGradient>
  </defs>
  <sodipodi:namedview
     id="base"
     pagecolor="#ffffff"
     bordercolor="#666666"
     borderopacity="1.0"
     inkscape:pageopacity="0.0"
     inkscape:pageshadow="2"
     inkscape:zoom="0.84184812"
     inkscape:cx="4.1084125"
     inkscape:cy="288.89501"
     inkscape:document-units="mm"
     inkscape:current-layer="layer1"
     showgrid="false"
     inkscape:window-width="1920"
     inkscape:window-height="1028"
     inkscape:window-x="0"
     inkscape:window-y="0"
     inkscape:window-maximized="1" />
  <metadata
     id="metadata5">
    <rdf:RDF>
      <cc:Work
         rdf:about="">
        <dc:format>image/svg+xml</dc:format>
        <dc:type
           rdf:resource="http://purl.org/dc/dcmitype/StillImage" />
        <dc:title />
      </cc:Work>
    </rdf:RDF>
  </metadata>
  <g
     inkscape:label="Layer 1"
     inkscape:groupmode="layer"
     id="layer1"
     style="display:inline"
     transform="translate(-38.50371,-32.22339)">
    <g
       id="g123"
       inkscape:label="Atenea"
       style="fill:none;stroke:#000000;stroke-width:1.32291663;stroke-linecap:round;stroke-linejoin:round;stroke-miterlimit:4;stroke-dasharray:none;stroke-opacity:1;paint-order:normal">
      <path
         sodipodi:nodetypes="ccc"
         inkscape:connector-curvature="0"
         id="path20"
         d="m 108.85406,133.04567 c 6.24595,-3.73651 12.81179,-2.30896 14.20886,1.48411 -3.47294,3.48202 -10.83152,4.14532 -14.20886,-1.48411 z"
         style="display:inline;fill:none;stroke:#000000;stroke-width:1.32291663;stroke-linecap:round;stroke-linejoin:round;stroke-miterlimit:4;stroke-dasharray:none;stroke-opacity:1;paint-order:normal" />
      <path
         sodipodi:nodetypes="ccc"
         inkscape:connector-curvature="0"
         id="path22"
         d="m 138.72384,136.35546 c 1.04576,-2.83562 10.73913,-4.04226 10.79946,-0.40221 -0.60332,3.68026 -7.98396,3.43893 -10.79946,0.40221 z"
         style="fill:none;stroke:#000000;stroke-width:1.32291663;stroke-linecap:round;stroke-linejoin:round;stroke-miterlimit:4;stroke-dasharray:none;stroke-opacity:1;paint-order:normal" />
      <path
         sodipodi:nodetypes="cccscccc"
         inkscape:connector-curvature="0"
         id="path24"
         d="m 127.95111,109.82282 c -13.23176,5.02426 -25.99716,15.94302 -41.86963,21.68375 -4.2089,33.20064 19.97804,50.52435 30.99569,52.07792 4.00902,0.33143 7.31295,1.07979 11.18252,-4.78257 7.01388,-10.62596 23.08411,-24.3095 24.24682,-43.74586 4.10617,-5.60144 2.10763,-17.40444 -2.56579,-23.66358 m -1.25996,-1.48136 c -1.49015,-1.52342 -3.18296,-2.48909 -4.99324,-2.60525"
         style="fill:none;stroke:#000000;stroke-width:1.32291663;stroke-linecap:round;stroke-linejoin:round;stroke-miterlimit:4;stroke-dasharray:none;stroke-opacity:1;paint-order:normal" />
      <path
         sodipodi:nodetypes="cccccccccccccccccccc"
         inkscape:connector-curvature="0"
         id="path10"
         d="M 73.952297,104.95034 C 70.04878,64.825814 114.75207,69.616399 125.34486,37.698796 c 13.16424,5.338076 24.64361,28.664898 23.5579,42.643418 3.07618,4.252365 15.92798,30.140496 13.34942,33.126206 -1.71905,0.63333 -11.3147,-1.28326 -13.48612,-2.59516 -1.19197,-13.033713 -4.21431,-25.461936 -9.70499,-37.590765 0.30892,-0.205944 5.39361,2.437157 7.04116,3.947416 1.99628,-6.109146 -7.23188,-17.623095 -8.95385,-7.812167 l 3.45859,12.753517 1.91073,3.369085 -0.90964,3.865728 -3.45664,-3.005232 -0.41202,-4.050583 c 0,0 -3.06609,-13.816445 -5.19227,-14.992632 -2.45652,-3.410309 -12.71438,-11.731877 -24.5607,5.69405 5.17112,-0.997936 21.95746,-2.726744 23.13684,-2.182415 0,0 12.94326,36.103768 13.07897,38.818048 -1.86226,2.36353 -58.139521,-2.77481 -59.089518,-8.47479 -0.22619,2.66904 -6.435179,6.67796 -7.475652,9.12081 -0.135713,-0.95 -2.056208,-4.88537 -3.684773,-5.38299 z"
         style="fill:none;stroke:#000000;stroke-width:1.32291663;stroke-linecap:round;stroke-linejoin:round;stroke-miterlimit:4;stroke-dasharray:none;stroke-opacity:1;paint-order:normal" />
      <path
         sodipodi:nodetypes="cccc"
         inkscape:connector-curvature="0"
         id="path12"
         d="M 73.952297,104.95034 C 50.421012,57.773781 108.29428,17.49497 125.34486,37.698796 v 0 0"
         style="fill:none;stroke:#000000;stroke-width:1.32291663;stroke-linecap:round;stroke-linejoin:round;stroke-miterlimit:4;stroke-dasharray:none;stroke-opacity:1;paint-order:normal" />
      <path
         sodipodi:nodetypes="ccccccccccc"
         inkscape:connector-curvature="0"
         id="path26"
         d="m 154.33816,131.15676 c -0.96462,-3.14549 -12.53656,-1.22336 -16.98218,3.13839 -0.79686,5.61994 -1.4681,18.45862 -1.2219,19.7582 0.86351,2.44047 0.65588,4.14755 -1.0052,5.89381 -1.24886,0.85602 -3.83882,1.64372 -5.37757,0.25365 -2.54665,-2.01819 -2.69612,-2.92482 -6.22825,-2.12444 -3.16566,0.57459 -5.14662,-3.54484 -2.52081,-5.87339 2.62809,-2.78982 7.80682,0.87909 7.80682,0.87909 m 1.84736,-0.0515 c 0.58716,-1.80342 1.28513,-16.83868 1.41095,-19.52283 -8.63961,-8.68155 -19.01255,-9.49204 -35.243278,-4.62702"
         style="fill:none;stroke:#000000;stroke-width:1.32291663;stroke-linecap:round;stroke-linejoin:round;stroke-miterlimit:4;stroke-dasharray:none;stroke-opacity:1;paint-order:normal" />
      <path
         sodipodi:nodetypes="cccc"
         inkscape:connector-curvature="0"
         id="path30"
         d="m 114.64793,165.76802 c 7.27475,7.92754 16.06788,6.20896 16.75984,1.40793 2.65071,-3.9106 -1.08972,-5.81825 -4.71931,-2.5853 -1.66939,-3.64089 -9.69945,-0.17952 -12.04053,1.17737 z"
         style="fill:none;stroke:#000000;stroke-width:1.32291663;stroke-linecap:round;stroke-linejoin:round;stroke-miterlimit:4;stroke-dasharray:none;stroke-opacity:1;paint-order:normal" />
      <path
         sodipodi:nodetypes="ccc"
         inkscape:connector-curvature="0"
         id="path32"
         d="m 114.64793,165.76802 c 3.05817,1.32142 7.8553,-0.41328 11.51852,2.19247 2.01767,-1.08707 3.606,-1.92963 5.24132,-0.78454"
         style="fill:none;stroke:#000000;stroke-width:1.32291663;stroke-linecap:round;stroke-linejoin:round;stroke-miterlimit:4;stroke-dasharray:none;stroke-opacity:1;paint-order:normal" />
      <path
         sodipodi:nodetypes="ccccccc"
         inkscape:connector-curvature="0"
         id="path34"
         d="m 85.738027,142.74219 c -0.408402,1.11468 -1.266581,1.80602 -2.194457,2.14978 0,0 -1.65438,0.0786 -2.394771,-0.47925 -1.151085,-1.08839 -1.695071,-1.9677 -1.814211,-3.71925 -0.05839,-2.15299 -1.764583,-3.88462 -3.288233,-5.49904 -1.330873,-3.42996 -1.06967,-3.75241 -0.635706,-5.34973 3.893469,3.7098 7.294932,1.40253 10.670831,1.66187"
         style="fill:none;stroke:#000000;stroke-width:1.32291663;stroke-linecap:round;stroke-linejoin:round;stroke-miterlimit:4;stroke-dasharray:none;stroke-opacity:1;paint-order:normal" />
      <path
         sodipodi:nodetypes="ccccc"
         inkscape:connector-curvature="0"
         id="path36"
         d="m 81.148797,144.41272 c -1.673851,13.60004 -4.191667,29.19765 -15.001959,34.21921 18.970317,18.27288 43.608562,24.35223 48.002422,23.37582 2.47512,-0.79864 5.62692,-5.22298 6.15385,-7.86289 0.40355,-1.08224 1.30275,-10.45819 1.30275,-10.45819"
         style="fill:none;stroke:#000000;stroke-width:1.32291663;stroke-linecap:round;stroke-linejoin:round;stroke-miterlimit:4;stroke-dasharray:none;stroke-opacity:1;paint-order:normal" />
      <path
         sodipodi:nodetypes="cccc"
         inkscape:connector-curvature="0"
         id="path40"
         d="m 81.756322,105.79827 c 1.770783,8.59568 11.514726,1.09785 15.12699,3.95374 4.231018,4.44599 10.342038,4.31178 13.108888,3.42639 7.69308,-4.54061 8.37296,0.4097 14.12607,-1.78299"
         style="fill:none;stroke:#000000;stroke-width:1.32291663;stroke-linecap:round;stroke-linejoin:round;stroke-miterlimit:4;stroke-dasharray:none;stroke-opacity:1;paint-order:normal" />
      <path
         sodipodi:nodetypes="ccc"
         inkscape:connector-curvature="0"
         id="path42"
         d="m 77.63707,110.33333 c 2.081461,13.26931 9.970111,1.95392 15.941944,2.45737 14.421226,7.05136 14.404406,2.00303 25.699656,1.09499"
         style="fill:none;stroke:#000000;stroke-width:1.32291663;stroke-linecap:round;stroke-linejoin:round;stroke-miterlimit:4;stroke-dasharray:none;stroke-opacity:1;paint-order:normal" />
      <path
         sodipodi:nodetypes="ccccc"
         inkscape:connector-curvature="0"
         id="path44"
         d="m 75.410649,129.8447 c 0.0234,-2.15314 -6.257105,-1.76915 -6.982621,-4.99887 -0.809161,-5.43294 3.257063,-7.1929 4.871921,-6.60781 -0.421749,-0.68483 1.447413,-4.65936 3.240548,-4.17944 -0.117019,-1.05317 1.447629,-1.24445 1.096573,-3.72525"
         style="fill:none;stroke:#000000;stroke-width:1.32291663;stroke-linecap:round;stroke-linejoin:round;stroke-miterlimit:4;stroke-dasharray:none;stroke-opacity:1;paint-order:normal" />
      <path
         sodipodi:nodetypes="ccc"
         inkscape:connector-curvature="0"
         id="path46"
         d="m 76.540497,114.05858 c -0.140422,10.78912 11.65774,4.04392 16.325521,2.66245 6.287802,-0.0468 10.609682,4.54033 22.303752,-0.58509"
         style="fill:none;stroke:#000000;stroke-width:1.32291663;stroke-linecap:round;stroke-linejoin:round;stroke-miterlimit:4;stroke-dasharray:none;stroke-opacity:1;paint-order:normal" />
      <path
         sodipodi:nodetypes="ccc"
         inkscape:connector-curvature="0"
         id="path48"
         d="m 73.299949,118.23802 c -0.338348,11.84224 12.112102,9.00885 17.501529,4.80365 8.893763,-4.68856 13.299122,-0.471 18.253532,-3.29863"
         style="fill:none;stroke:#000000;stroke-width:1.32291663;stroke-linecap:round;stroke-linejoin:round;stroke-miterlimit:4;stroke-dasharray:none;stroke-opacity:1;paint-order:normal" />
      <path
         sodipodi:nodetypes="cccc"
         inkscape:connector-curvature="0"
         id="path50"
         d="m 152.50651,135.05606 c 0.83548,2.68426 3.2845,-0.57679 4.07246,-2.34929 1.48342,0.58173 5.76796,-2.63963 4.66267,-6.3627 2.8407,-0.69329 3.83141,-10.08785 -0.91244,-12.83292"
         style="fill:none;stroke:#000000;stroke-width:1.32291663;stroke-linecap:round;stroke-linejoin:round;stroke-miterlimit:4;stroke-dasharray:none;stroke-opacity:1;paint-order:normal" />
      <path
         sodipodi:nodetypes="ccc"
         inkscape:connector-curvature="0"
         id="path52"
         d="m 161.24164,126.34407 c -1.68702,-0.0582 1.09015,-6.36455 -1.64398,-5.46287 -4.65558,3.11515 -2.95784,-3.37991 -7.14066,-4.90005"
         style="fill:none;stroke:#000000;stroke-width:1.32291663;stroke-linecap:round;stroke-linejoin:round;stroke-miterlimit:4;stroke-dasharray:none;stroke-opacity:1;paint-order:normal" />
      <path
         sodipodi:nodetypes="cc"
         inkscape:connector-curvature="0"
         id="path54"
         d="m 156.57897,132.70677 c -2.38509,-2.32692 2.15436,-4.82717 -1.94684,-8.14303"
         style="fill:none;stroke:#000000;stroke-width:1.32291663;stroke-linecap:round;stroke-linejoin:round;stroke-miterlimit:4;stroke-dasharray:none;stroke-opacity:1;paint-order:normal" />
      <path
         sodipodi:nodetypes="cc"
         inkscape:connector-curvature="0"
         id="path57"
         d="m 141.68379,101.18955 c 2.3615,-0.64093 4.42656,0.0555 6.08171,1.61075"
         style="fill:none;stroke:#000000;stroke-width:1.32291663;stroke-linecap:round;stroke-linejoin:round;stroke-miterlimit:4;stroke-dasharray:none;stroke-opacity:1;paint-order:normal" />
      <path
         sodipodi:nodetypes="cc"
         inkscape:connector-curvature="0"
         id="path59"
         d="m 138.50823,91.934249 c 2.90303,0.755025 5.54078,1.838761 7.90867,3.19958"
         style="fill:none;stroke:#000000;stroke-width:1.32291663;stroke-linecap:round;stroke-linejoin:round;stroke-miterlimit:4;stroke-dasharray:none;stroke-opacity:1;paint-order:normal" />
      <path
         sodipodi:nodetypes="cccc"
         inkscape:connector-curvature="0"
         id="path61"
         d="m 79.967009,131.94467 c 0.09427,1.80996 0.695461,3.56357 1.694713,3.54472 1.727498,2.65302 3.581222,-0.12513 0.903385,-0.83073 -0.4902,-1.07467 0.275563,-2.00532 -0.723688,-2.74062"
         style="display:inline;fill:none;stroke:#000000;stroke-width:1.32291663;stroke-linecap:round;stroke-linejoin:round;stroke-miterlimit:4;stroke-dasharray:none;stroke-opacity:1;paint-order:normal" />
      <path
         sodipodi:nodetypes="ccccccccc"
         inkscape:connector-curvature="0"
         id="path63"
         d="m 73.203435,128.09793 c -0.719706,0.60418 -0.752252,1.84318 -0.07701,2.4697 -1.240704,0.20678 -1.437489,2.01359 -0.713745,2.53055 -1.068384,0.68928 -0.948823,2.4495 -0.259543,2.72521 -0.796455,0.41554 -0.542037,2.88907 0.259543,2.79009 -0.415542,0.79646 0.20709,2.36178 1.038174,2.46567 -0.45017,1.80068 0.367122,3.06241 1.232834,3.37407 -0.484799,1.35051 0.384263,2.38698 1.492375,3.63361 -0.173142,2.07771 2.489361,3.73671 2.872125,9.54293"
         style="fill:none;stroke:#000000;stroke-width:1.32291663;stroke-linecap:round;stroke-linejoin:round;stroke-miterlimit:4;stroke-dasharray:none;stroke-opacity:1;paint-order:normal" />
      <path
         sodipodi:nodetypes="cccccc"
         inkscape:connector-curvature="0"
         id="path65"
         d="m 73.883886,171.61151 c -5.560524,4.06665 -24.90232,7.30692 -35.130112,17.89836 25.498481,7.00307 39.757662,26.92217 46.797703,43.32035 9.311839,-1.39388 56.392823,-2.21613 57.654033,-1.01224 -0.74831,-1.44674 7.68197,-30.78518 10.14708,-32.27571 -2.20163,-3.08226 -18.5743,-13.98804 -27.86145,-17.42772"
         style="fill:none;stroke:#000000;stroke-width:1.32291663;stroke-linecap:round;stroke-linejoin:round;stroke-miterlimit:4;stroke-dasharray:none;stroke-opacity:1;paint-order:normal" />
    </g>
  </g>
</svg>
