<svg xmlns="http://www.w3.org/2000/svg" width="473.416" height="758.752" viewBox="0 0 125.258 200.753" xmlns:v="https://vecta.io/nano"><path d="M73.948 1.24c-11.459.016-22.207 7.737-29.775 15.876C31.647 30.303 27.325 50.62 34.16 67.503c.011-4.623 1.038-9.336 2.763-13.548 8.98-19.654 34.187-22.99 45.254-40.924 2.026-1.671 1.996-5.209 3.342-7.308-1.857-1.288-3.314-3.804-5.899-3.84-1.902-.442-3.796-.646-5.671-.643zm13.372 5.658c-3.158 8.936-9.968 15.942-17.622 21.252-11.868 8.503-27.94 14.846-32.239 30.239-2.752 5.447-1.287 21.327 4.8 15.094.1-.341.327-.626.726-.82.232-.288.47-.603.714-.953 1.816-.495 1.164-3.734 3.112-3.697 2.143 2.163 5.29 3.244 8.405 3.83 16.181 3.306 32.786 5.464 49.313 4.996-.722-2.498-1.488-4.982-2.283-7.457a.75.75 0 0 1-.048-.148c-3.018-9.384-6.465-18.634-9.699-27.944-5.056-4.371-15.904.658-22.981.537-2.654-.615.802-3.784 1.394-4.603 4.736-7.221 15.831-11.491 22.543-4.277 3.867 3.239 5.286 11.171 6.775 17.08-.811 1.955 2.294 7.692 2.721 3.443-1.681-2.292-2.377-4.993-3.02-7.712-.407-3.499-3.075-6.971-1.823-10.498 4.625-8.142 13.247 4.96 10.246 10.401-2.129 1.294-3.829-2.688-5.982-2.758 2.671 6.247 4.77 12.735 6.288 19.356a.99.99 0 0 1 .187.842c.43 1.941.813 3.893 1.144 5.854-.038.267-.068.528-.092.784.445.505.528 1.047-.06 1.561.121 6.432 5.098 9.168 11.558 9.079a1.5 1.5 0 0 1 .454-.099c.079.022.154.052.231.079.305-.013.611-.03.921-.055-.922-8.562-5.618-16.26-9.141-24-2.216-4.473-5.967-8.261-4.623-13.69-2.293-13.926-9.231-28.542-21.919-35.717zm-2.591 24.25c-4.928-.057-8.962 3.614-11.953 7.168 1.176 2.292 13.317-1.543 18.727-.773 4.732.247 3.118 8.081 5.63 10.887 2.286 7.468.698-.848-.292-3.77-1.026-6.149-4.624-12.969-11.632-13.494a9.83 9.83 0 0 0-.48-.018zm16.509 3.251c-2.679 1.841-1.551 6.431 1.697 6.526 6.794 6.404 2.919-6.137-1.697-6.526zm3.371 20.802c-.243.025-.091 3.257-1.622 2.975-3.399-3.229-3.194-1.839-2.275.69 1.303.312 2.573.828 3.823 1.291.343.251 1.034.49 1.761.762-.364-1.489-.77-2.967-1.237-4.426-.245-.953-.37-1.301-.451-1.293zm-3.08 5.837c.337.889.672 1.794.918 2.627-.027 1.193.428 2.544 1.041 3.953.46-.158.967-.162 1.398.119.42-.136 1.713.161 2.925.677-.273-1.598-.565-3.194-.899-4.781-1.779-.527-3.494-2.231-5.384-2.596zm2.89 8.59c.75 1.559 1.516 3.135 1.906 4.613.922.209 1.794.604 2.594 1.118l-.659-4.228c-1.257-.58-2.445-1.487-3.841-1.503zM46.9 70.9c-.887.872-1.735 1.893-2.583 2.929 2.104 6.939 11.574-1.203 15.535 3.729 6.712 5.644 14.435.462 21.959.33-11.733-1.52-24.053-1.994-34.911-6.988zm-4.124 4.783c-.816.953-1.657 1.857-2.562 2.609.064.309.06.64.01.98 1.191 8.398 9.978.171 15.198.359 7.136 4.762 15.526 3.714 23.228 1.255.468-.43 1.328-.487 2.027-.283l1.272-.663c-6.353-.395-12.05 3.903-18.595 1.813-5.332-5.133-11.21-2.812-17.911-3.422-.774-.265-1.964-1.423-2.668-2.647zm63.795.742c-.06.789-.316 1.525-.858 2.179-5.418.779-10.909.401-16.377-.07-1.018.452-2.028.921-3.03 1.408a1.2 1.2 0 0 1-1.165.576c-12.32 6.172-23.598 14.611-36.614 19.433-2.129 15.388 3.08 31.953 14.962 42.252 6.115 5.129 16.797 12.41 24.093 5.621 7.905-11.561 18.778-21.41 23.395-34.967.396-3.266 1.291-6.375 2.156-9.471-.173-.583-.09-1.155.387-1.399a79.2 79.2 0 0 0 .736-2.885c-4.057-2.155-9.918.69-13.62 2.85l-.047.138c1.523-1.02 4.038-1.492 5.321-1.585l1.031-.042c12.232 1.605-2.421 11.534-7.219 4.709-1.45 6.406-1.19 13.886-.659 20.022-1.728 8.051-9.488 1.98-13.822 1.633-10.767-.808-.647-14.449 5.652-6.779 1.595-4.094 1.057-12.643 1.647-18.334-8.315-8.973-21.793-7.921-32.441-4.535-.832 1.075-3.469.449-2.614-1.07 5.175-2.235 11.166-3.049 16.821-3.416 5.484-.187 11.07 1.122 15.621 4.265 5.381 1.839 5.287 6.627 4.289 11.261-.994 4.188.726 10.03-1.8 13.562-1.048-.068-1.125-.701-2.029.084-2.691-2.675-10.751-2.453-6.991 2.777 4.87-2.003 10.61 7.087 13.692.238-1.162-7.604.111-15.461.809-23.099 4.147-4.111 11.038-6.351 16.819-4.887.232-1.292.399-2.597.459-3.927a12.33 12.33 0 0 0 .007-.58 1.08 1.08 0 0 1-.006-.283v-.001c-.143-4.429-2.583-8.377-4.281-12.224l-1.334-.519-.187-1.156c-.85-.589-1.938-1.381-2.801-1.781zM84.866 78.15c.131.027.261.056.392.088a1.73 1.73 0 0 1 .192-.04l-.583-.048zm28.694 2.675c.408.682.787 1.389 1.135 2.117.952.393 1.739 1.324 2.303 2.084.426 5.442 4.227 1.001 6.221 3.791.109 1.1.017 2.148.04 3.152 1.38-2.639 1.156-6.188-.686-8.717-.507-.049-1.023-.485-1.353-1.008-2.542-.017-5.164-.615-7.658-1.417zm-57.676.917c-5.941-.036-12.398 7.463-16.629.692-.027-.163-.084-.356-.156-.567a8.33 8.33 0 0 1-.137.193c.125 8.304 10.532 3.269 15.116 1.479 6.493.364 13.171 3.415 19.559.561-4.317 1.062-8.657 1.865-12.944-.076-1.522-1.67-3.145-2.271-4.808-2.281zm-18.911 1.526c-.776.781-.882 2.313-1.472 3.281.264 4.958 4.862 8.676 10.027 6.42 5.878-3.215 12.115-5.53 18.764-5.769a23.25 23.25 0 0 1-3.379-.563c-7.602-4.381-15.779 6.394-22.616.171-.324-.698-1.082-2.201-1.324-3.539zm-3.364 3.781c-3.724 1.09-3.666 7.54.93 7.936.043-.039.084-.079.129-.117.226.028.402.075.543.136.011-.001.02.001.031 0 1.076-.194 2.271 1.058 2.563 2.14 1.732.973 3.29 1.837 5.27 1.688.065-.045.125-.084.201-.144v-.001a1.45 1.45 0 0 1 .201.097c.449-.063.917-.172 1.417-.35.565-.419 1.975-.487 2.876-.124 6.016-2.367 11.674-5.473 17.264-8.728-1.882-.088-3.8-.321-5.458-.05-7.858 1.031-17.578 11.372-24.624 2.171-.258-.989-1.262-3.054-1.342-4.656zm34.906.174c-.242.02-.484.033-.726.045l.64.054c.024-.034.056-.066.086-.099zm48.154 1.423c.235 1.058.402 2.129.498 3.203 1.451 1.115 2.135 3.575 1.549 5.171-1.051.83-.554 1.627-.101 2.391 1.963-.753 3.519-2.534 3.291-4.76-.842-.863-1.379-2.767-.594-3.717-.822-.361-2.971-.873-4.643-2.288zM35.29 97.36c-.005.087-.004.172.012.251.163.156.254.304.301.445a2.53 2.53 0 0 1 .121-.352 10.39 10.39 0 0 0-.435-.344zm42.866.376l1.256.016c2.493.326 5.719 1.885 6.144 4.64-3.646 5.338-13.616 4.643-16.205-1.5 1.349-2.77 5.675-3.151 8.805-3.155zm-42.658.975c-.291.478-.931.897-1.008 1.352 1.123.799-.407 1.853-.324 2.684 1.376.98-1.048 2.268.557 3.064.228 1.089.18 2.009 1.163 2.699-.767 1.982 1.801 2.739 1.149 4.594 1.593 2.208 2.616 4.779 3.409 7.421l.529-3.306c.704-1.205.022-3.567.545-4.983-1.777-2.376-2.302-6.986-4.703-8.577-.562-1.117-1.431-3.276-1.317-4.947zm81.042.89a1.02 1.02 0 0 1-.129.139c-.287.936-.647 1.85-1.092 2.73.567-.13 1.042-1 1.534-1.844-.149-.288-.251-.637-.313-1.024zm-38.603.057c-1.729.006-3.443.48-5.029 1.144-2.115 5.859 17.114 1.856 6.226-1.07-.399-.052-.798-.076-1.197-.074zm-38.877.296c-.755-.022-1.239.136-1.271.662 3.078 2.245 3.924 14.083 8.333 9.638-.212-3.2-.111-6.411.325-9.569-.437.062-.899.081-1.375.067 1.45 2.795 1.838 6.938-2.508 3.261-1.117-.33-2.357-2.412-2.211-3.917-.482-.076-.921-.132-1.293-.143zm3.552.531c.204 2.709.824.883.104.018l-.104-.018zm63.456 2.015l-1.759.275-1.573.506c-1.7 4.996 13.69-.369 3.332-.781zm8.729 2.496c-.11.985-.258 1.957-.442 2.918.227-.993.392-1.964.493-2.913-.017-.001-.034-.003-.051-.005zm-68.394 8.188c-.055.007-.111.013-.169.014-1.128.483-2.034.586-2.783.413-.506 3.631-.998 7.451-1.751 11.234a1.28 1.28 0 0 1-.171.835c-1.031 4.908-2.543 9.68-5.139 13.725-.001.234-.084.47-.269.659l-.259.142c-1.702 2.449-3.838 4.602-6.555 6.316 11.511 10.571 25.712 18.434 41.003 21.852 9.176 3.212 11.92-8.907 11.65-15.526a1.53 1.53 0 0 1-.071-.13c-1.782.245-3.711.014-5.805-.867-16.621-5.52-27.536-21.653-29.681-38.667zm45.648 16.537c8.656 6.196-6.504 14.48-12.235 8.166-.956-1.184-4.132-2.212-4.54-3.95-.191-.518-.1-1.077.433-1.3 5.105-4.194 11.29-1.404 16.342-2.916zm-7.71 2.062l-1.7.274c-1.744.125-2.802.446-3.346.878 3.344.489 6.877 1.136 9.604 1.072.626-.602 2.227-.766 3.447-.456.298-1.619-.598-2.538-3.496-.436-1.314 1.065-1.906-1.451-3.082-1.303zm-5.036 3.083c1.173 1.451 4.301 2.944 6.675 3.109 2.156 1.232 4.268-.376 5.452-2.246-1.14-.239-2.302-.503-3.295.89-2.797-.494-5.772-1.571-8.832-1.753zm-47.623 7.421c-10.016 4.518-21.276 6.831-29.48 14.631 20.814 6.074 37.077 23.031 45.457 42.646 18.636-1.49 37.406-1.928 56.086-1.193 2.263-10.563 5.102-21.181 9.72-30.973-7.365-6.626-16.125-11.634-25.053-15.858-.569.182-1.335-.155-1.855-.655-.799.523-1.635.959-2.51 1.282-.457 7.023-1.228 17.024-9.472 18.734-15.908-1.786-30.674-9.767-43.035-19.662-1.079-1.84-5.283-2.817-4.758-5.34 1.89-.976 3.505-2.201 4.898-3.612z"/></svg>