<?xml version="1.0" encoding="UTF-8" standalone="no"?>
<!-- Created with Inkscape (http://www.inkscape.org/) -->

<svg
   xmlns:osb="http://www.openswatchbook.org/uri/2009/osb"
   xmlns:dc="http://purl.org/dc/elements/1.1/"
   xmlns:cc="http://creativecommons.org/ns#"
   xmlns:rdf="http://www.w3.org/1999/02/22-rdf-syntax-ns#"
   xmlns:svg="http://www.w3.org/2000/svg"
   xmlns="http://www.w3.org/2000/svg"
   xmlns:sodipodi="http://sodipodi.sourceforge.net/DTD/sodipodi-0.dtd"
   xmlns:inkscape="http://www.inkscape.org/namespaces/inkscape"
   width="125.25829mm"
   height="200.75276mm"
   viewBox="0 0 125.25829 200.75276"
   version="1.1"
   id="svg8"
   inkscape:version="0.92.5 (2060ec1f9f, 2020-04-08)"
   sodipodi:docname="drawing (another copy).svg">
  <defs
     id="defs2">
    <linearGradient
       id="linearGradient2482"
       osb:paint="solid">
      <stop
         style="stop-color:#ffffff;stop-opacity:1;"
         offset="0"
         id="stop2480" />
    </linearGradient>
    <linearGradient
       id="linearGradient2476"
       osb:paint="solid">
      <stop
         style="stop-color:#000000;stop-opacity:1;"
         offset="0"
         id="stop2474" />
    </linearGradient>
    <linearGradient
       id="linearGradient2470"
       osb:paint="solid">
      <stop
         style="stop-color:#00a600;stop-opacity:1;"
         offset="0"
         id="stop2468" />
    </linearGradient>
    <linearGradient
       id="linearGradient2416"
       osb:paint="solid">
      <stop
         style="stop-color:#9a0000;stop-opacity:1;"
         offset="0"
         id="stop2414" />
    </linearGradient>
    <linearGradient
       id="linearGradient976"
       osb:paint="solid">
      <stop
         style="stop-color:#000000;stop-opacity:1;"
         offset="0"
         id="stop974" />
    </linearGradient>
    <linearGradient
       id="linearGradient970"
       osb:paint="solid">
      <stop
         style="stop-color:#0000bd;stop-opacity:1;"
         offset="0"
         id="stop968" />
    </linearGradient>
    <linearGradient
       id="linearGradient964"
       osb:paint="solid">
      <stop
         style="stop-color:#000000;stop-opacity:1;"
         offset="0"
         id="stop962" />
    </linearGradient>
  </defs>
  <sodipodi:namedview
     id="base"
     pagecolor="#ffffff"
     bordercolor="#666666"
     borderopacity="1.0"
     inkscape:pageopacity="0.0"
     inkscape:pageshadow="2"
     inkscape:zoom="1.190553"
     inkscape:cx="264.62893"
     inkscape:cy="388.27161"
     inkscape:document-units="mm"
     inkscape:current-layer="layer1"
     showgrid="false"
     inkscape:window-width="1920"
     inkscape:window-height="1028"
     inkscape:window-x="0"
     inkscape:window-y="0"
     inkscape:window-maximized="1" />
  <metadata
     id="metadata5">
    <rdf:RDF>
      <cc:Work
         rdf:about="">
        <dc:format>image/svg+xml</dc:format>
        <dc:type
           rdf:resource="http://purl.org/dc/dcmitype/StillImage" />
        <dc:title />
      </cc:Work>
    </rdf:RDF>
  </metadata>
  <g
     inkscape:label="Layer 1"
     inkscape:groupmode="layer"
     id="layer1"
     style="display:inline"
     transform="translate(-38.50371,-32.22339)">
    <path
       style="fill:#000000;stroke:none;stroke-width:1.00157481;stroke-linecap:butt;stroke-linejoin:miter;stroke-opacity:1;stroke-miterlimit:4;stroke-dasharray:none"
       d="m 279.49023,4.6875 c -43.31065,0.058947 -83.93262,29.24079 -112.53711,60.003906 -47.34215,49.839864 -63.67816,126.628084 -37.8457,190.439454 0.0403,-17.47322 3.92501,-35.28644 10.44336,-51.20508 33.93926,-74.28232 129.21115,-86.89159 171.03906,-154.671874 7.65815,-6.314004 7.54267,-19.686022 12.63086,-27.621094 C 316.20104,16.766573 310.69623,7.2559391 300.92578,7.1191406 293.73545,5.4484742 286.57743,4.6778541 279.49023,4.6875 Z m 50.54102,21.382812 c -11.93597,33.77263 -37.67384,60.251357 -66.60352,80.322268 -44.85643,32.1387 -105.59873,56.10972 -121.84765,114.28906 -10.40099,20.58526 -4.86387,80.60419 18.14258,57.04688 0.3764,-1.28747 1.23572,-2.36783 2.74218,-3.09961 0.87716,-1.08734 1.77457,-2.27934 2.69727,-3.60157 6.86292,-1.87135 4.39876,-14.11174 11.76367,-13.97265 8.10131,8.17674 19.99291,12.26168 31.76563,14.47656 61.1556,12.49599 123.91415,20.65016 186.38086,18.88281 -2.72994,-9.44018 -5.62541,-18.82831 -8.62891,-28.18359 -0.0827,-0.18282 -0.13953,-0.37041 -0.18164,-0.56055 -11.40569,-35.46714 -24.4351,-70.42694 -36.6582,-105.61523 -19.10801,-16.52133 -60.10931,2.48661 -86.85547,2.03125 -10.03227,-2.32423 3.03118,-14.30086 5.26953,-17.39649 17.90131,-27.29245 59.83343,-43.430859 85.20117,-16.16601 14.61453,12.24372 19.97681,42.21962 25.60547,64.55273 -3.06569,7.38911 8.66889,29.07276 10.2832,13.01367 -6.3535,-8.66218 -8.98375,-18.87155 -11.41406,-29.14648 -1.53846,-13.22332 -11.6215,-26.34558 -6.89063,-39.67578 17.48138,-30.77162 50.06727,18.74676 38.72657,39.31054 -8.04783,4.89155 -14.47105,-10.15797 -22.60742,-10.42382 10.09416,23.60915 18.02663,48.1317 23.76562,73.15625 0.68747,0.9328 0.98021,1.98476 0.70703,3.18359 1.62553,7.33747 3.07356,14.71455 4.32227,22.125 -0.14268,1.00824 -0.25747,1.99489 -0.34766,2.96484 1.68028,1.9068 1.99554,3.95811 -0.22852,5.89844 0.45612,24.30988 19.26961,34.65014 43.68555,34.31446 0.47586,-0.19341 1.04335,-0.3246 1.7168,-0.375 0.29835,0.0835 0.58368,0.1953 0.87305,0.29882 1.15118,-0.0502 2.30833,-0.11358 3.48046,-0.20898 C 461.4132,271.1522 443.66493,242.05646 430.34766,212.80469 421.97321,195.8995 407.7962,181.5822 412.87305,161.06445 404.20557,108.43213 377.98272,53.189137 330.03125,26.070312 Z m -9.79297,91.654298 c -18.62625,-0.21632 -33.87024,13.6595 -45.17578,27.08984 4.44287,8.66232 50.33292,-5.83342 70.7793,-2.92187 17.8837,0.93225 11.78528,30.54389 21.27734,41.14648 8.63924,28.22431 2.63837,-3.20656 -1.10352,-14.24804 -3.87794,-23.24202 -17.47507,-49.01583 -43.96484,-51 -0.60787,-0.0368 -1.21165,-0.0594 -1.8125,-0.0664 z m 62.39453,12.28906 c -10.12599,6.95979 -5.86304,24.30643 6.41211,24.66602 25.67702,24.20524 11.03253,-23.19526 -6.41211,-24.66602 z m 12.74219,78.6211 c -0.91737,0.0945 -0.34419,12.31028 -6.12891,11.24414 -12.84598,-12.20513 -12.07016,-6.95207 -8.59765,2.60742 4.9264,1.18086 9.72558,3.12827 14.44922,4.88086 1.29623,0.94844 3.90748,1.85373 6.65625,2.88086 -1.37539,-5.62954 -2.91044,-11.21387 -4.67383,-16.72657 -0.92751,-3.6031 -1.39929,-4.91821 -1.70508,-4.88671 z m -11.64062,22.0625 c 1.27393,3.35969 2.54097,6.7802 3.4707,9.92968 -0.10089,4.50907 1.61821,9.61378 3.93359,14.93946 1.73767,-0.59629 3.6557,-0.61049 5.28516,0.44921 1.58908,-0.51536 6.47262,0.60805 11.05664,2.56055 -1.03157,-6.04086 -2.13476,-12.0724 -3.39649,-18.06836 -6.72372,-1.99029 -13.20577,-8.43052 -20.3496,-9.81054 z m 10.92382,32.46484 c 2.83577,5.8908 5.72861,11.84981 7.20313,17.43359 3.48622,0.7885 6.77949,2.28351 9.80273,4.22657 -0.82269,-5.31117 -1.64213,-10.63928 -2.49023,-15.98047 -4.74997,-2.19077 -9.24112,-5.62084 -14.51563,-5.67969 z m -217.39648,4.80469 c -3.35304,3.29704 -6.55667,7.15494 -9.76367,11.06836 7.95263,26.22545 43.74338,-4.54653 58.71484,14.0957 25.36938,21.33236 54.55624,1.74631 82.99609,1.24805 -44.3469,-5.74357 -90.909,-7.53643 -131.94726,-26.41211 z m -15.58789,18.07812 c -3.08363,3.60175 -6.26326,7.01994 -9.68164,9.85938 0.24014,1.16809 0.22851,2.42007 0.0371,3.70312 4.50053,31.73907 37.71366,0.6461 57.43945,1.35547 26.97115,17.99955 58.68106,14.03641 87.79102,4.74414 1.76729,-1.62356 5.01925,-1.84078 7.66211,-1.07031 1.59814,-0.84446 3.20172,-1.67898 4.80859,-2.50586 -24.01284,-1.49406 -45.54209,14.75241 -70.28125,6.85156 -20.15287,-19.39865 -42.3682,-10.62653 -67.69336,-12.93359 -2.92655,-1.00075 -7.42248,-5.37812 -10.08203,-10.00391 z m 241.11523,2.80274 c -0.22829,2.9838 -1.19603,5.76321 -3.24414,8.23437 -20.47678,2.94468 -41.22952,1.51657 -61.89648,-0.26562 -3.84789,1.70786 -7.66668,3.48133 -11.45313,5.32226 -0.86385,1.3709 -2.34531,2.35959 -4.40234,2.17774 -46.56487,23.32615 -89.18989,55.22271 -138.38281,73.44921 -8.0454,58.15885 11.63955,120.76636 56.55078,159.69141 23.11056,19.38425 63.4835,46.9024 91.05859,21.24609 29.87883,-43.6964 70.97214,-80.91803 88.42188,-132.16015 1.49498,-12.34364 4.87885,-24.09445 8.14843,-35.79492 -0.65349,-2.20165 -0.34104,-4.36419 1.46094,-5.28711 0.98878,-3.62638 1.93456,-7.25666 2.7832,-10.9043 -15.33217,-8.14507 -37.48378,2.60782 -51.47851,10.77148 -0.0605,0.17289 -0.11615,0.3499 -0.17578,0.52344 5.75588,-3.8546 15.26162,-5.6408 20.11133,-5.99023 l 3.89648,-0.15821 c 46.23241,6.06436 -9.15193,43.59204 -27.28516,17.79883 -5.48075,24.21344 -4.49614,52.48354 -2.49218,75.67383 -6.53205,30.43 -35.86115,7.48519 -52.24219,6.17188 -40.69236,-3.05545 -2.44497,-54.6092 21.36133,-25.6211 6.02706,-15.4727 3.9934,-47.78294 6.22461,-69.29492 -31.42613,-33.91378 -82.36605,-29.93875 -122.61133,-17.14062 -3.14404,4.06155 -13.1118,1.6978 -9.88086,-4.04493 19.55981,-8.44909 42.20211,-11.52464 63.57617,-12.91211 20.72504,-0.70699 41.84084,4.24235 59.04102,16.1211 20.33676,6.95025 19.98139,25.04545 16.21093,42.5625 -3.75602,15.82787 2.74463,37.90716 -6.80468,51.25781 -3.96273,-0.25878 -4.25066,-2.64872 -7.66993,0.31836 -10.17161,-10.11201 -40.63334,-9.26954 -26.42382,10.49414 18.40807,-7.56986 40.09916,26.78559 51.74804,0.89844 -4.39355,-28.74119 0.41784,-58.43531 3.0586,-87.30274 15.67286,-15.53908 41.71843,-24.00232 63.5664,-18.46875 0.8778,-4.88205 1.50764,-9.81657 1.73633,-14.84375 0.0273,-0.73539 0.0326,-1.46501 0.0254,-2.19336 -0.052,-0.37022 -0.0657,-0.72863 -0.0234,-1.06835 v -0.002 c -0.54083,-16.73928 -9.76425,-31.66234 -16.17968,-46.19922 -1.70085,-0.64898 -3.40223,-1.30212 -5.04102,-1.96093 -0.24385,-1.44927 -0.47033,-2.91375 -0.70703,-4.36915 -3.2109,-2.22456 -7.32352,-5.22085 -10.58594,-6.73046 z m -82.03515,6.52148 c 0.49441,0.10192 0.98692,0.21297 1.48047,0.33203 0.25205,-0.068 0.49304,-0.11514 0.7246,-0.15039 -0.73553,-0.0618 -1.47,-0.12155 -2.20507,-0.18164 z m 108.45117,10.10938 c 1.54138,2.57695 2.97279,5.25073 4.28906,8 3.59872,1.48546 6.57209,5.00422 8.70313,7.875 1.61004,20.56667 15.97424,3.78392 23.51171,14.32812 0.41275,4.15826 0.0648,8.11968 0.1504,11.91211 5.21492,-9.97602 4.37068,-23.38863 -2.59376,-32.94727 -1.91597,-0.18466 -3.86769,-1.83386 -5.11523,-3.81054 -9.60672,-0.0642 -19.51858,-2.32341 -28.94531,-5.35742 z m -217.98828,3.46484 c -22.45385,-0.13585 -46.85824,28.20544 -62.84961,2.61523 -0.10202,-0.61615 -0.31626,-1.34389 -0.58789,-2.14257 -0.17223,0.25061 -0.34507,0.48937 -0.51953,0.72851 0.47291,31.38623 39.80425,12.3554 57.13085,5.58985 24.54034,1.37729 49.7805,12.90521 73.92383,2.11914 -16.31761,4.01405 -32.71874,7.04941 -48.92383,-0.28907 -5.75369,-6.31239 -11.88675,-8.58305 -18.17382,-8.62109 z m -71.47461,5.76758 c -2.9323,2.95005 -3.33263,8.74355 -5.56446,12.40234 0.99773,18.74039 18.37644,32.79148 37.89649,24.26367 22.21523,-12.15035 45.7885,-20.8989 70.91992,-21.80468 -4.33845,-0.40586 -8.62096,-1.10937 -12.76953,-2.12891 -28.73121,-16.55947 -59.63642,24.16461 -85.47852,0.64453 -1.22336,-2.63793 -4.08866,-8.31983 -5.0039,-13.37695 z M 127.0293,329 c -14.07569,4.11926 -13.85439,28.49934 3.51367,29.99414 0.16162,-0.14824 0.31779,-0.29987 0.48633,-0.44336 0.85528,0.1045 1.51832,0.28351 2.05078,0.51367 0.0403,-0.002 0.0768,0.002 0.11719,0 4.06845,-0.73379 8.58505,3.99923 9.68554,8.08985 6.5465,3.6781 12.43411,6.94403 19.91992,6.3789 0.24402,-0.16866 0.47192,-0.31569 0.75782,-0.54297 v -0.002 c 0.2512,0.0943 0.50465,0.22391 0.75781,0.36719 1.69643,-0.23965 3.46678,-0.65191 5.35742,-1.32227 2.13479,-1.58339 7.46355,-1.84096 10.8711,-0.46679 22.73653,-8.94538 44.12339,-20.68593 65.25,-32.98633 -7.11465,-0.33223 -14.36312,-1.21179 -20.62891,-0.18946 -29.70019,3.89602 -66.43769,42.98171 -93.06641,8.20704 C 131.12676,342.8596 127.33091,335.05478 127.0293,329 Z m 131.92773,0.6582 c -0.91323,0.0768 -1.82881,0.12322 -2.74414,0.17188 0.80558,0.0612 1.61119,0.12477 2.41992,0.20312 0.0894,-0.1301 0.21283,-0.25067 0.32422,-0.375 z m 182,5.37696 c 0.88846,3.99779 1.52125,8.04782 1.88086,12.10546 5.4829,4.21334 8.06869,13.51291 5.85547,19.54493 -3.97068,3.13729 -2.09528,6.14941 -0.38281,9.03711 7.4192,-2.84747 13.29959,-9.57748 12.43945,-17.99024 -3.18109,-3.25986 -5.21094,-10.45959 -2.24609,-14.04883 -3.10498,-1.36475 -11.23031,-3.30027 -17.54688,-8.64843 z m -307.57617,32.93945 c -0.0178,0.32882 -0.0158,0.64907 0.0469,0.94727 0.61673,0.59125 0.96111,1.1486 1.13672,1.68359 0.12459,-0.46114 0.27436,-0.90661 0.45899,-1.33008 -0.5354,-0.44826 -1.08359,-0.88138 -1.64258,-1.30078 z m 162.01367,1.41992 c 1.68967,-0.002 3.28698,0.0248 4.74609,0.0586 9.42343,1.23304 21.61489,7.12619 23.22266,17.53516 -13.77902,20.17433 -51.46184,17.54949 -61.24609,-5.66992 5.09979,-10.46862 21.44969,-11.90838 33.27734,-11.92383 z m -161.22851,3.68359 c -1.10024,1.80487 -3.51765,3.39207 -3.8086,5.10938 4.24327,3.01841 -1.53925,7.00398 -1.22461,10.14258 5.20008,3.7022 -3.96037,8.57225 2.10352,11.58008 0.86211,4.11413 0.67906,7.59201 4.39648,10.20117 -2.89702,7.49166 6.80796,10.35136 4.34375,17.36133 6.0202,8.34349 9.88715,18.06108 12.88282,28.04687 0.70479,-4.22571 1.37012,-8.41321 1.99804,-12.49414 2.6625,-4.55558 0.082,-13.4832 2.0586,-18.83398 -6.71552,-8.97884 -8.70028,-26.40326 -17.77344,-32.41602 -2.12263,-4.2219 -5.40736,-12.38275 -4.97656,-18.69727 z m 306.30078,3.36329 c -0.14957,0.19207 -0.31162,0.36978 -0.48828,0.52539 -1.08427,3.5381 -2.44579,6.99036 -4.12696,10.3164 2.14455,-0.4918 3.93751,-3.77937 5.79688,-6.9707 -0.56409,-1.08717 -0.947,-2.40698 -1.18164,-3.87109 z m -145.90039,0.21679 c -6.53348,0.0217 -13.01132,1.81281 -19.00586,4.32422 -7.99249,22.1427 64.68236,7.01654 23.53125,-4.04297 -1.50847,-0.19635 -3.01767,-0.28626 -4.52539,-0.28125 z m -146.93555,1.11719 c -2.85481,-0.0844 -4.683,0.5152 -4.80469,2.50391 11.63307,8.48483 14.82901,53.22711 31.4961,36.42773 -0.80044,-12.09358 -0.41977,-24.22972 1.22851,-36.16797 -1.65221,0.23363 -3.39816,0.30488 -5.19531,0.25391 5.48213,10.56534 6.94505,26.22126 -9.48047,12.32617 -4.22033,-1.24879 -8.90725,-9.11653 -8.35547,-14.80469 -1.82263,-0.28832 -3.48238,-0.49747 -4.88867,-0.53906 z m 13.42578,2.00781 c 0.76958,10.24026 3.11443,3.33608 0.39453,0.0664 -0.13304,-0.0213 -0.26187,-0.0448 -0.39453,-0.0664 z m 239.83203,7.61524 -6.64844,1.04101 -5.94531,1.91211 c -6.42516,18.88158 51.74096,-1.39411 12.59375,-2.95312 z m 32.99024,9.43359 c -0.41534,3.72224 -0.97616,7.39824 -1.66993,11.0293 0.85828,-3.75181 1.48143,-7.4243 1.86329,-11.00977 -0.0648,-0.004 -0.12897,-0.0127 -0.19336,-0.0195 z m -258.4961,30.94531 c -0.20923,0.0267 -0.42066,0.0499 -0.63867,0.0547 -4.26242,1.82684 -7.68932,2.21355 -10.51953,1.56055 -1.91065,13.7239 -3.77266,28.15983 -6.61719,42.45898 0.1724,1.13082 -0.10696,2.22028 -0.64453,3.1543 -3.89734,18.55101 -9.6121,36.58532 -19.42383,51.875 -0.003,0.88558 -0.31731,1.7769 -1.01758,2.49219 -0.32467,0.18239 -0.65464,0.3548 -0.98046,0.53515 -6.43464,9.25452 -14.50771,17.39228 -24.7754,23.8711 43.50763,39.9541 97.18041,69.67066 154.97266,82.58984 34.68189,12.14124 45.05058,-33.66279 44.0332,-58.68164 -0.10036,-0.16258 -0.18686,-0.3261 -0.26757,-0.49023 -6.73404,0.92661 -14.02646,0.0525 -21.93946,-3.27539 C 224.74487,553.0577 183.49003,492.08472 175.38281,427.77734 Z m 172.52735,62.50196 c 32.71404,23.41976 -24.58163,54.72827 -46.24414,30.86328 -3.61308,-4.47311 -15.6176,-8.36103 -17.15821,-14.92774 -0.72017,-1.9595 -0.37979,-4.06945 1.63672,-4.91406 19.2932,-15.84973 42.67107,-5.30697 61.76563,-11.02148 z m -29.14063,7.79492 -6.42578,1.03516 c -6.59203,0.47105 -10.58838,1.68572 -12.64453,3.31835 12.63935,1.84933 25.99289,4.29396 36.29687,4.05274 2.36777,-2.27461 8.41601,-2.894 13.02735,-1.72266 1.12798,-6.11972 -2.26081,-9.59177 -13.21289,-1.64843 -4.9657,4.02565 -7.20338,-5.48286 -11.64844,-4.92383 z m -19.03515,11.65234 c 4.43261,5.48592 16.25685,11.12557 25.22851,11.75 8.14951,4.65672 16.13272,-1.41965 20.60742,-8.48828 -4.30925,-0.90205 -8.69905,-1.90056 -12.45508,3.36524 -10.57256,-1.86672 -21.81367,-5.9389 -33.38085,-6.62696 z M 119.74023,537.77539 C 81.885807,554.85108 39.327507,563.59491 8.3203125,593.07227 86.986178,616.03017 148.45568,680.12046 180.12695,754.25586 c 70.43713,-5.63093 141.37592,-7.28768 211.97852,-4.50977 8.55254,-39.92269 19.28465,-80.05487 36.73828,-117.0625 -27.83656,-25.04345 -60.94607,-43.96931 -94.6875,-59.93554 -2.14994,0.6862 -5.04398,-0.58721 -7.00977,-2.47657 -3.02067,1.97836 -6.18,3.62274 -9.48632,4.84571 -1.72898,26.54371 -4.64027,64.34173 -35.79883,70.80469 -60.12642,-6.75134 -115.93222,-36.91438 -162.65235,-74.3125 -4.07867,-6.95437 -19.966363,-10.64649 -17.98242,-20.1836 7.14354,-3.68836 13.24893,-8.31974 18.51367,-13.65039 z"
       id="path1053"
       inkscape:connector-curvature="0"
       sodipodi:nodetypes="sccccccsccccccccccccccccccccccccccccccccccccccccccccscccccscccccccccccccccccccccccccccccccccccccccccccccccccccccccccccccccccccccccccccccccccsccccccscccccccccccccccccccccccccccccccccccccccccccccccccccccccccccccccccccccccccccccccccccccccccccccccccccccccccccccaccccccccccccccccsacc"
       transform="matrix(0.26458333,0,0,0.26458333,38.50371,32.22339)" />
  </g>
</svg>
