<?xml version="1.0" encoding="UTF-8" standalone="no"?>
<!-- Created with Inkscape (http://www.inkscape.org/) -->

<svg
   xmlns:dc="http://purl.org/dc/elements/1.1/"
   xmlns:cc="http://creativecommons.org/ns#"
   xmlns:rdf="http://www.w3.org/1999/02/22-rdf-syntax-ns#"
   xmlns:svg="http://www.w3.org/2000/svg"
   xmlns="http://www.w3.org/2000/svg"
   xmlns:sodipodi="http://sodipodi.sourceforge.net/DTD/sodipodi-0.dtd"
   xmlns:inkscape="http://www.inkscape.org/namespaces/inkscape"
   width="171.62914mm"
   height="231.04756mm"
   viewBox="0 0 171.62913 231.04755"
   version="1.1"
   id="svg8"
   inkscape:version="0.92.5 (2060ec1f9f, 2020-04-08)"
   sodipodi:docname="mano.svg">
  <defs
     id="defs2" />
  <sodipodi:namedview
     id="base"
     pagecolor="#ffffff"
     bordercolor="#666666"
     borderopacity="1.0"
     inkscape:pageopacity="0.0"
     inkscape:pageshadow="2"
     inkscape:zoom="0.41570145"
     inkscape:cx="173.34452"
     inkscape:cy="420.33623"
     inkscape:document-units="mm"
     inkscape:current-layer="text819"
     showgrid="false"
     inkscape:window-width="1920"
     inkscape:window-height="1028"
     inkscape:window-x="0"
     inkscape:window-y="0"
     inkscape:window-maximized="1"
     showguides="true"
     inkscape:guide-bbox="true" />
  <metadata
     id="metadata5">
    <rdf:RDF>
      <cc:Work
         rdf:about="">
        <dc:format>image/svg+xml</dc:format>
        <dc:type
           rdf:resource="http://purl.org/dc/dcmitype/StillImage" />
        <dc:title />
      </cc:Work>
    </rdf:RDF>
  </metadata>
  <g
     inkscape:label="Layer 1"
     inkscape:groupmode="layer"
     id="layer1"
     transform="translate(-22.204878,24.881505)">
    <path
       style="fill:#ffffff;stroke:none;stroke-width:0.14295204px;stroke-linecap:butt;stroke-linejoin:miter;stroke-opacity:1"
       d="m 116.6964,76.953222 c -6.30948,0.47832 -12.71524,0.520274 -18.956202,-0.642405 -3.3637,-3.054224 -3.60819,-8.162926 -7.093157,-11.162239 -2.829069,-3.007039 -6.678816,-4.889272 -8.655299,-8.652965 -3.046662,-4.182472 -7.92716,-6.251954 -12.012193,-9.186164 -1.795867,-3.882799 4.674622,-4.816299 7.306813,-3.4196 4.384993,1.332959 7.278359,5.197043 11.220015,7.276126 3.957181,1.34984 7.404201,-2.687056 7.326551,-6.428237 0.27816,-4.789265 -0.23411,-9.56393 -1.38757,-14.220038 -1.260285,-4.931429 -1.101254,-10.035859 -1.74017,-15.050882 -1.421161,-3.431264 3.06462,-7.0151187 5.04574,-3.065461 1.53941,3.95305 1.26015,8.450404 2.679702,12.517875 1.21043,3.654185 1.11251,7.575512 2.17736,11.264098 4.24963,0.296318 1.12913,-5.742954 1.39185,-8.251357 -0.66362,-5.505441 0.154,-11.046705 0.11438,-16.567137 -1.05463,-4.3952821 5.62761,-6.4791736 5.86198,-1.4136355 0.0223,3.4501945 -0.0307,6.8989125 0.4302,10.3355045 0.57197,4.910621 0.6381,9.85625 0.64016,14.787627 0.65217,3.409035 2.16249,1.195174 1.91333,-1.297459 -0.16276,-3.906976 0.16372,-7.791335 0.6569,-11.657897 0.17043,-3.320534 -0.18611,-6.674349 0.39072,-9.968236 3.09044,-3.6194742 6.56048,2.178448 5.29786,5.237217 -0.0448,5.268445 0.81467,10.579204 -0.26126,15.792893 -0.45464,2.580133 -1.61459,10.527208 2.95049,7.796437 1.19678,-3.612616 2.09194,-7.427552 4.27432,-10.634999 0.64677,-2.843883 3.39587,-10.366769 6.63097,-5.616791 0.36417,3.605822 -1.7967,6.930368 -2.6139,10.38762 -1.75908,4.619215 -4.13038,9.221034 -3.8949,14.300644 -0.7778,9.496199 -3.98541,18.739464 -8.75861,26.94815 -0.2233,0.293427 -0.53524,0.598719 -0.93608,0.591311 z"
       id="path826"
       inkscape:connector-curvature="0"
       sodipodi:nodetypes="cccccccccccccccccccccccccccccc" />
    <path
       style="fill:#ffffff;stroke:none;stroke-width:0.14295204px;stroke-linecap:butt;stroke-linejoin:miter;stroke-opacity:1"
       d="m 91.927255,81.883456 c -1.486235,6.150566 -3.417288,12.258476 -6.443828,17.83892 -3.941024,2.260784 -8.877116,0.921524 -12.803207,3.314574 -3.731629,1.76659 -6.707069,4.85044 -10.896315,5.573 -4.91699,1.61197 -8.387744,5.61894 -12.436522,8.60298 -4.247002,0.51406 -3.144326,-5.92976 -1.00549,-8.00451 2.617499,-3.76213 7.18438,-5.3262 10.375402,-8.43693 2.501929,-3.349883 -0.278523,-7.871776 -3.862097,-8.949015 -4.47134,-1.738261 -9.171994,-2.719948 -13.957127,-3.055072 -5.079968,-0.318193 -9.887837,-2.040078 -14.856155,-2.975217 -3.702078,0.296459 -5.731851,-5.074415 -1.364235,-5.744165 4.234934,-0.248424 8.428184,1.401073 12.735112,1.301891 3.849342,-0.02735 7.550307,1.27236 11.387592,1.394101 1.589501,-3.952295 -5.11693,-2.84139 -7.422808,-3.863169 -5.442545,-1.06253 -10.463417,-3.545462 -15.728229,-5.206333 -4.506553,-0.348908 -4.433307,-7.348163 0.458601,-6.012558 3.289679,1.040364 6.554783,2.151921 9.966471,2.770776 4.848382,0.966716 9.574433,2.425502 14.267211,3.940865 3.444318,0.428387 1.802564,-1.689842 -0.645808,-2.21972 -3.767519,-1.047266 -7.362984,-2.553076 -10.890224,-4.212022 -3.107007,-1.183851 -6.407822,-1.876536 -9.364431,-3.438869 -2.492996,-4.054181 4.091343,-5.571935 6.613232,-3.429421 4.999075,1.663662 10.316644,2.479941 14.946353,5.107863 2.315076,1.226457 9.519715,4.775354 8.326041,-0.408488 -3.069124,-2.250277 -6.423559,-4.275819 -8.803913,-7.339219 -2.506916,-1.49042 -8.818984,-6.420853 -3.304039,-8.0375 3.542945,0.762963 6.041336,3.841923 9.079427,5.683233 3.853877,3.095019 7.50283,6.767203 12.40847,8.106081 8.796194,3.661927 16.604104,9.557966 22.94591,16.625316 0.210486,0.302752 0.404988,0.693495 0.274606,1.072608 z"
       id="path826-3"
       inkscape:connector-curvature="0"
       sodipodi:nodetypes="cccccccccccccccccccccccccccccc" />
    <path
       style="fill:#ffffff;stroke:none;stroke-width:0.14295204px;stroke-linecap:butt;stroke-linejoin:miter;stroke-opacity:1"
       d="m 88.909212,107.31957 c 5.413264,3.27641 10.651377,6.96391 15.055468,11.53614 0.96331,4.44014 -1.80579,8.74023 -0.71188,13.20613 0.55557,4.09112 2.59538,7.85974 2.01742,12.07136 0.0498,5.17425 2.81972,9.69413 4.43986,14.45566 -0.79417,4.20365 -6.60294,1.20417 -7.93386,-1.46189 -2.794577,-3.63253 -2.904549,-8.45856 -4.904799,-12.44081 -2.436567,-3.39772 -7.587517,-2.11469 -9.697895,0.97541 -3.00888,3.73645 -5.365954,7.92024 -7.132275,12.38005 -1.839322,4.74596 -4.934364,8.80813 -7.327989,13.26113 -0.836822,3.61843 -6.570027,3.9292 -5.887793,-0.43648 1.043723,-4.11182 3.883912,-7.61003 5.091658,-11.74534 1.137903,-3.67742 3.495784,-6.81216 4.772105,-10.43302 -3.28667,-2.71015 -4.255591,4.01826 -5.92677,5.90725 -2.658453,4.86651 -6.543318,8.9016 -9.718362,13.41777 -1.695222,4.1901 -8.344695,2.00393 -5.59245,-2.25515 1.98637,-2.82111 4.033157,-5.59728 5.654638,-8.66215 2.387471,-4.32912 5.20698,-8.39286 8.07036,-12.40778 1.449795,-3.15356 -1.0657,-2.22914 -2.311089,-0.0556 -2.137422,3.2745 -4.659904,6.24635 -7.307729,9.10687 -2.067899,2.60361 -3.726221,5.54047 -6.109418,7.88628 -4.618213,1.15044 -4.074015,-5.58461 -1.269252,-7.34062 3.097354,-4.26204 5.483293,-9.08387 9.388095,-12.70226 1.86905,-1.83587 7.430292,-7.63019 2.128171,-8.05982 -3.072954,2.24504 -6.017958,4.82999 -9.657711,6.17265 -2.178667,1.9389 -8.786885,6.4647 -8.660311,0.71908 1.798526,-3.14641 5.488799,-4.59687 8.162544,-6.93599 4.115441,-2.73764 8.71906,-5.10543 11.478584,-9.37661 6.150217,-7.27719 14.131141,-12.93684 22.785244,-16.84484 0.352225,-0.1091 0.783485,-0.17634 1.105436,0.0626 z"
       id="path826-3-6"
       inkscape:connector-curvature="0"
       sodipodi:nodetypes="cccccccccccccccccccccccccccccc" />
    <path
       style="fill:#ffffff;stroke:none;stroke-width:0.14295204px;stroke-linecap:butt;stroke-linejoin:miter;stroke-opacity:1"
       d="m 113.053,118.35788 c 4.7849,-4.14043 9.90692,-7.98755 15.61365,-10.76864 4.52094,0.45159 7.75865,4.41088 12.34433,4.74618 4.06327,0.73196 8.27703,-0.0474 12.10569,1.80002 4.93787,1.54686 10.0913,0.30432 15.12037,0.23006 3.75445,2.05072 -0.88885,6.65274 -3.83527,7.09746 -4.31685,1.53941 -8.94198,0.15709 -13.34679,0.83306 -3.98316,1.27116 -4.3496,6.56683 -2.06006,9.52663 2.62761,4.01373 5.88163,7.54521 9.58025,10.59971 3.94837,3.21212 6.8593,7.40819 10.35817,11.05737 3.18456,1.91098 1.71376,7.46103 -2.22934,5.46687 -3.5902,-2.25983 -6.04314,-6.03968 -9.60515,-8.4628 -3.14792,-2.2156 -5.40367,-5.42461 -8.45513,-7.75446 -3.59096,2.29175 2.51159,5.28662 3.79377,7.45852 3.81067,4.02853 6.45249,8.96766 9.77069,13.37971 3.46394,2.90377 -0.66464,8.55617 -3.86852,4.62555 -2.07185,-2.75895 -4.08233,-5.56152 -6.4985,-8.04843 -3.38291,-3.60517 -6.38024,-7.53958 -9.3176,-11.5007 -2.55345,-2.35091 -2.44905,0.32704 -0.76496,2.18152 2.45664,3.04235 4.50672,6.35777 6.41225,9.75813 1.83981,2.7695 4.12285,5.25203 5.62024,8.24204 -0.32844,4.748 -6.56815,2.15515 -7.37456,-1.05421 -3.10037,-4.25984 -6.95249,-8.01536 -9.19175,-12.84506 -1.17069,-2.34377 -4.96964,-9.41974 -7.012,-4.50794 1.189,3.61517 2.74081,7.21335 2.89671,11.08972 1.17332,2.67008 3.44289,10.35125 -1.98422,8.46055 -2.4392,-2.68047 -2.68208,-6.63811 -4.0836,-9.90248 -1.33645,-4.75872 -2.17063,-9.86792 -5.38378,-13.80919 -5.02823,-8.09318 -7.95354,-17.42964 -9.00501,-26.86682 0.005,-0.3687 0.0736,-0.79969 0.40015,-1.03236 z"
       id="path826-3-6-7"
       inkscape:connector-curvature="0"
       sodipodi:nodetypes="cccccccccccccccccccccccccccccc" />
    <path
       style="fill:#ffffff;stroke:none;stroke-width:0.14295204px;stroke-linecap:butt;stroke-linejoin:miter;stroke-opacity:1"
       d="m 130.53328,100.66492 c -2.50027,-5.812657 -4.61905,-11.858007 -5.54491,-18.138457 1.79712,-4.17291 6.54991,-6.06227 8.25575,-10.332051 1.92602,-3.651901 2.45692,-7.904115 5.37529,-10.995185 2.96718,-4.239243 3.34062,-9.527181 4.79009,-14.343412 3.08973,-2.958876 6.0728,2.85835 5.60603,5.801357 0.16243,4.580239 -2.55337,8.571113 -3.24058,12.974185 0.008,4.181071 4.94474,6.131217 8.45818,4.843525 4.62026,-1.291349 8.97019,-3.325582 12.99986,-5.927802 4.25541,-2.792639 9.13512,-4.298932 13.67126,-6.53098 2.78425,-2.457891 7.63002,0.621846 4.53718,3.777643 -3.2394,2.739098 -7.58392,3.934649 -10.97044,6.597514 -3.06355,2.33088 -6.80432,3.511028 -9.94761,5.715426 1.09901,4.11574 5.79853,-0.79597 8.25641,-1.361611 4.992,-2.414584 10.49865,-3.439735 15.70736,-5.268954 3.81504,-2.424085 7.95495,3.220026 3.23971,5.085807 -3.25618,1.140898 -6.53539,2.210118 -9.63634,3.761468 -4.45914,2.13482 -9.11555,3.80257 -13.7793,5.40508 -3.01281,1.72332 -0.42859,2.43333 1.84822,1.38863 3.64264,-1.42202 7.42267,-2.37395 11.23998,-3.16242 3.19609,-0.91653 6.25262,-2.3423 9.5554,-2.86578 4.42657,1.74837 0.0688,6.91235 -3.23418,6.71086 -4.99777,1.66759 -9.74206,4.20422 -15.02271,4.87872 -2.58801,0.40741 -10.48133,1.8896 -6.41672,5.32122 3.80546,-0.0405 7.7044,-0.43203 11.44654,0.59117 2.89985,-0.31127 10.90773,-0.15269 7.4649,4.448964 -3.29242,1.514793 -7.13832,0.54993 -10.67364,0.89908 -4.94008,-0.16461 -10.06241,-0.91394 -14.79061,0.957463 -9.23454,2.34646 -19.01849,2.31255 -28.33201,0.46202 -0.34993,-0.11622 -0.74002,-0.3119 -0.86309,-0.69351 z"
       id="path826-3-6-7-5"
       inkscape:connector-curvature="0"
       sodipodi:nodetypes="cccccccccccccccccccccccccccccc" />
    <g
       aria-label="Servicio"
       style="font-style:normal;font-variant:normal;font-weight:normal;font-stretch:normal;font-size:34.30911636px;line-height:1.25;font-family:'Booster Next FY';-inkscape-font-specification:'Booster Next FY';letter-spacing:0px;word-spacing:0px;fill:#000000;fill-opacity:1;stroke:none;stroke-width:0.85772789"
       id="text819">
      <path
         d="m 46.623215,-7.4524734 q 0.480328,0 0.892037,0.1715455 0.411709,0.1715456 0.78911,0.4460186 0.514636,0.4117094 1.029273,0.8234188 0.548946,0.3774002 1.200819,0.6518732 0.651873,0.2744729 1.440983,0.4460185 0.823419,0.1715456 1.818383,0.1715456 0.823419,0 1.57822,-0.1372365 0.7548,-0.1715456 1.338055,-0.5146368 0.583255,-0.3430911 0.926346,-0.8577279 0.343091,-0.5146367 0.343091,-1.200819 0,-0.7204915 -0.343091,-1.2351282 -0.308782,-0.5489459 -1.029273,-0.9606553 -0.686183,-0.4460181 -1.852693,-0.8234191 -1.1322,-0.3774 -2.779038,-0.789109 -1.372365,-0.343092 -2.607493,-0.857728 -1.235128,-0.548946 -2.161474,-1.338056 -0.926346,-0.789109 -1.475292,-1.92131 -0.514637,-1.132201 -0.514637,-2.74473 0,-1.612528 0.651873,-2.847656 0.686183,-1.269438 1.852693,-2.127165 1.16651,-0.892038 2.71042,-1.338056 1.54391,-0.446019 3.259366,-0.446019 2.161474,0 3.671075,0.514637 1.509601,0.480328 2.676111,1.235128 0.754801,0.480328 1.063583,1.097892 0.343091,0.617564 0.343091,1.200819 0,0.583255 -0.205855,0.994965 -0.205854,0.3774 -0.514636,0.617564 -0.308782,0.240163 -0.686183,0.3774 -0.343091,0.102927 -0.651873,0.102927 -0.583255,0 -0.994964,-0.171545 -0.41171,-0.171546 -0.823419,-0.41171 -0.343091,-0.205854 -0.720491,-0.411709 -0.377401,-0.240164 -0.892037,-0.446019 -0.480328,-0.205854 -1.132201,-0.343091 -0.617564,-0.137236 -1.509601,-0.137236 -1.921311,0 -2.813348,0.789109 -0.857728,0.754801 -0.857728,1.715456 0,1.269438 1.338056,2.024238 1.372364,0.754801 4.357257,1.509601 1.269438,0.343091 2.538875,0.823419 1.303746,0.480328 2.298711,1.269437 0.994964,0.754801 1.612528,1.95562 0.651874,1.1665099 0.651874,2.950584 0,1.4409829 -0.583255,2.7447293 -0.583255,1.2694373 -1.715456,2.2644017 -1.132201,0.9606552 -2.847657,1.5439102 -1.681147,0.54894587 -3.945548,0.54894587 -1.406674,0 -2.573184,-0.24016381 -1.16651,-0.24016386 -2.127165,-0.61756406 -0.926346,-0.3774003 -1.646838,-0.8577279 -0.720491,-0.4803277 -1.235128,-0.9949644 -0.411709,-0.3774003 -0.78911,-0.9263462 -0.3774,-0.5489458 -0.3774,-1.1322008 0,-0.6175641 0.205855,-1.0292735 0.240164,-0.4117094 0.548946,-0.6518732 0.343091,-0.2744729 0.686182,-0.3774003 0.343091,-0.1029273 0.583255,-0.1029273 z"
         style="font-style:normal;font-variant:normal;font-weight:bold;font-stretch:normal;font-family:'Booster Next FY';-inkscape-font-specification:'Booster Next FY Bold';stroke-width:0.85772789;fill:#ffffff"
         id="path852"
         inkscape:connector-curvature="0" />
      <path
         d="m 69.507372,-8.5846743 q 0.274473,2.058547 1.509601,3.1564387 1.269437,1.0978918 3.156438,1.0978918 0.720492,0 1.338056,-0.1372365 0.651873,-0.1715456 1.16651,-0.4117094 0.514637,-0.2401638 0.892037,-0.4803276 0.411709,-0.274473 0.651873,-0.4460185 0.617564,-0.274473 0.926346,-0.274473 0.78911,0 1.303747,0.583255 0.548946,0.583255 0.548946,1.3037464 0,0.5146368 -0.274473,0.9606553 -0.274473,0.4117094 -0.617564,0.6861823 -0.994965,0.8234188 -2.573184,1.4409829 -1.578219,0.58325497 -3.705385,0.58325497 -1.887001,0 -3.46522,-0.65187317 -1.57822,-0.6861824 -2.710421,-1.8870014 -1.1322,-1.2008191 -1.784074,-2.8476567 -0.617564,-1.6468376 -0.617564,-3.6024572 0,-1.8870016 0.651873,-3.5681486 0.651874,-1.681146 1.784074,-2.916274 1.16651,-1.235129 2.74473,-1.95562 1.578219,-0.720491 3.396602,-0.720491 1.784074,0 3.225057,0.651873 1.475292,0.617564 2.504566,1.681146 1.029273,1.029274 1.578219,2.401639 0.583255,1.372364 0.583255,2.847656 0,1.097892 -0.3774,1.8183834 -0.343091,0.6861823 -1.509601,0.6861823 z m 8.096951,-2.5045657 q 0.03431,-0.651873 -0.205855,-1.303746 -0.240163,-0.686183 -0.7548,-1.235128 -0.480328,-0.548946 -1.200819,-0.857728 -0.720492,-0.343091 -1.646838,-0.343091 -1.646837,0 -2.779038,0.994964 -1.132201,0.960655 -1.475292,2.744729 z"
         style="font-style:normal;font-variant:normal;font-weight:bold;font-stretch:normal;font-family:'Booster Next FY';-inkscape-font-specification:'Booster Next FY Bold';stroke-width:0.85772789;fill:#ffffff"
         id="path854"
         inkscape:connector-curvature="0" />
      <path
         d="m 89.784048,-2.889361 q 0,0.9263462 -0.617564,1.475292 -0.617564,0.54894591 -1.475292,0.54894591 -0.892037,0 -1.509601,-0.54894591 -0.583255,-0.5489458 -0.583255,-1.475292 v -13.552101 q 0,-0.78911 0.480327,-1.338055 0.514637,-0.548946 1.475292,-0.548946 1.989929,0 1.989929,1.887001 v 1.16651 q 0.720491,-1.440983 1.989929,-2.401638 1.303746,-0.994964 3.122129,-0.994964 1.200819,0 1.681147,0.548945 0.514637,0.548946 0.514637,1.303747 0,0.857728 -0.480328,1.440983 -0.480327,0.583255 -1.54391,0.583255 -0.960655,0 -1.887001,0.343091 -0.892037,0.308782 -1.612529,0.960655 -0.686182,0.651873 -1.132201,1.681147 -0.411709,0.994964 -0.411709,2.3673288 z"
         style="font-style:normal;font-variant:normal;font-weight:bold;font-stretch:normal;font-family:'Booster Next FY';-inkscape-font-specification:'Booster Next FY Bold';stroke-width:0.85772789;fill:#ffffff"
         id="path856"
         inkscape:connector-curvature="0" />
      <path
         d="m 108.44816,-2.306106 q -0.3774,0.7204915 -0.85773,1.0978917 -0.48033,0.34309121 -1.26944,0.34309121 -0.78911,0 -1.26943,-0.34309121 -0.44602,-0.3774002 -0.82342,-1.1665099 L 98.532823,-15.069097 q -0.137236,-0.240164 -0.240164,-0.583255 -0.102927,-0.377401 -0.102927,-0.686183 0,-0.857727 0.583255,-1.406673 0.583255,-0.583255 1.543913,-0.583255 0.89203,0 1.30374,0.480327 0.44602,0.446019 0.61757,0.857728 l 4.18571,10.0868804 4.18571,-10.0868804 q 0.24017,-0.548946 0.61757,-0.926346 0.41171,-0.411709 1.09789,-0.411709 0.99496,0 1.64684,0.548946 0.65187,0.548945 0.65187,1.54391 0,0.548946 -0.20586,0.994964 z"
         style="font-style:normal;font-variant:normal;font-weight:bold;font-stretch:normal;font-family:'Booster Next FY';-inkscape-font-specification:'Booster Next FY Bold';stroke-width:0.85772789;fill:#ffffff"
         id="path858"
         inkscape:connector-curvature="0" />
      <path
         d="m 118.43208,-20.695792 q -0.61756,-0.548946 -0.61756,-1.646838 0,-1.063583 0.61756,-1.646838 0.61756,-0.617564 1.61253,-0.617564 0.99496,0 1.64684,0.583255 0.65187,0.583255 0.65187,1.681147 0,1.16651 -0.65187,1.681147 -0.65188,0.514637 -1.64684,0.514637 -0.96066,0 -1.61253,-0.548946 z m 3.67107,14.4098285 q 0,0.6861823 0.17155,1.16651 0.20586,0.4460185 0.72049,0.4460185 0.58326,0 0.82342,0.5146367 0.24016,0.5146368 0.24016,1.0978918 0,0.9949643 -0.61756,1.6125284 -0.58325,0.58325501 -1.78407,0.58325501 -1.74977,0 -2.74473,-1.16650991 -0.99497,-1.2008191 -0.99497,-3.9798575 V -16.269916 q 0,-0.857728 0.58326,-1.440983 0.58325,-0.617564 1.5096,-0.617564 0.92634,0 1.5096,0.617564 0.58325,0.583255 0.58325,1.440983 z"
         style="font-style:normal;font-variant:normal;font-weight:bold;font-stretch:normal;font-family:'Booster Next FY';-inkscape-font-specification:'Booster Next FY Bold';stroke-width:0.85772789;fill:#ffffff"
         id="path860"
         inkscape:connector-curvature="0" />
      <path
         d="m 141.45348,-4.9479079 q 0,1.0635826 -0.72049,1.784074 -0.41171,0.4803276 -0.99497,0.9606553 -0.58325,0.4803276 -1.33805,0.8577279 -0.75481,0.37740026 -1.71546,0.58325496 -0.96066,0.24016381 -2.16147,0.24016381 -1.95562,0 -3.53384,-0.68618237 -1.57822,-0.7204914 -2.71042,-1.9213105 -1.0979,-1.2351282 -1.71546,-2.8819657 -0.58325,-1.6811467 -0.58325,-3.6024573 0,-1.9213102 0.65187,-3.5681482 0.65187,-1.646837 1.78407,-2.847657 1.1322,-1.235128 2.67611,-1.92131 1.57822,-0.720491 3.43092,-0.720491 2.05854,0 3.70538,0.720491 1.68115,0.720491 2.77904,2.161474 0.65187,0.857728 0.65187,1.681147 0,0.994964 -0.61756,1.440983 -0.58326,0.411709 -1.20082,0.411709 -0.58326,0 -0.92635,-0.205854 -0.34309,-0.205855 -0.58325,-0.446019 -0.20586,-0.205855 -0.51464,-0.514637 -0.30878,-0.343091 -0.78911,-0.651873 -0.44602,-0.308782 -1.06358,-0.514637 -0.58326,-0.240163 -1.40668,-0.240163 -1.02927,0 -1.81838,0.446018 -0.78911,0.411709 -1.33805,1.16651 -0.54895,0.720491 -0.82342,1.681147 -0.27448,0.926346 -0.27448,1.9556194 0,1.0292734 0.27448,1.9899287 0.27447,0.9263461 0.82342,1.6811467 0.54894,0.7204914 1.30374,1.16651 0.78911,0.4117094 1.81839,0.4117094 1.09789,0 1.98992,-0.4803277 0.89204,-0.5146367 1.71546,-1.3037464 0.41171,-0.3774003 0.7548,-0.4803276 0.3774,-0.1372365 0.61756,-0.1372365 0.61757,0 1.23513,0.4460185 0.61757,0.4460185 0.61757,1.3380556 z"
         style="font-style:normal;font-variant:normal;font-weight:bold;font-stretch:normal;font-family:'Booster Next FY';-inkscape-font-specification:'Booster Next FY Bold';stroke-width:0.85772789;fill:#ffffff"
         id="path862"
         inkscape:connector-curvature="0" />
      <path
         d="m 145.70776,-20.695792 q -0.61756,-0.548946 -0.61756,-1.646838 0,-1.063583 0.61756,-1.646838 0.61756,-0.617564 1.61253,-0.617564 0.99496,0 1.64684,0.583255 0.65187,0.583255 0.65187,1.681147 0,1.16651 -0.65187,1.681147 -0.65188,0.514637 -1.64684,0.514637 -0.96066,0 -1.61253,-0.548946 z m 3.67108,14.4098285 q 0,0.6861823 0.17154,1.16651 0.20586,0.4460185 0.72049,0.4460185 0.58326,0 0.82342,0.5146367 0.24017,0.5146368 0.24017,1.0978918 0,0.9949643 -0.61757,1.6125284 -0.58325,0.58325501 -1.78407,0.58325501 -1.74977,0 -2.74473,-1.16650991 -0.99497,-1.2008191 -0.99497,-3.9798575 V -16.269916 q 0,-0.857728 0.58326,-1.440983 0.58325,-0.617564 1.5096,-0.617564 0.92635,0 1.5096,0.617564 0.58326,0.583255 0.58326,1.440983 z"
         style="font-style:normal;font-variant:normal;font-weight:bold;font-stretch:normal;font-family:'Booster Next FY';-inkscape-font-specification:'Booster Next FY Bold';stroke-width:0.85772789;fill:#ffffff"
         id="path864"
         inkscape:connector-curvature="0" />
      <path
         d="m 158.50504,-1.2082143 q -1.61253,-0.7204914 -2.77904,-1.9213105 -1.1322,-1.2351282 -1.78407,-2.8819657 -0.65188,-1.6468376 -0.65188,-3.5681481 0,-1.9213104 0.65188,-3.5681484 0.65187,-1.681146 1.78407,-2.881966 1.16651,-1.235128 2.77904,-1.92131 1.61253,-0.720491 3.56815,-0.720491 1.92131,0 3.53384,0.720491 1.61253,0.686182 2.77904,1.92131 1.16651,1.20082 1.81838,2.881966 0.65187,1.646838 0.65187,3.5681484 0,1.9213105 -0.65187,3.5681481 -0.65187,1.6468375 -1.81838,2.8819657 -1.16651,1.2008191 -2.77904,1.9213105 -1.61253,0.68618237 -3.53384,0.68618237 -1.95562,0 -3.56815,-0.68618237 z m 0.24016,-4.7003489 q 0.58326,0.7204914 1.40668,1.16651 0.82342,0.4117094 1.92131,0.4117094 1.09789,0 1.92131,-0.4117094 0.82342,-0.4117094 1.37236,-1.1322009 0.58326,-0.7204914 0.85773,-1.6468376 0.30878,-0.9606552 0.30878,-2.0242378 0,-1.0978915 -0.30878,-2.0585475 -0.27447,-0.960655 -0.85773,-1.681146 -0.54894,-0.720492 -1.37236,-1.132201 -0.82342,-0.411709 -1.92131,-0.411709 -1.09789,0 -1.92131,0.411709 -0.82342,0.3774 -1.40668,1.097892 -0.54894,0.686182 -0.85772,1.646837 -0.27448,0.926346 -0.27448,2.0242381 0,1.0635826 0.27448,2.0242379 0.30878,0.9606552 0.85772,1.7154558 z"
         style="font-style:normal;font-variant:normal;font-weight:bold;font-stretch:normal;font-family:'Booster Next FY';-inkscape-font-specification:'Booster Next FY Bold';stroke-width:0.85772789;fill:#ffffff"
         id="path866"
         inkscape:connector-curvature="0" />
    </g>
    <g
       aria-label="Social"
       style="font-style:normal;font-weight:normal;font-size:33.52877426px;line-height:1.25;font-family:sans-serif;letter-spacing:0px;word-spacing:0px;fill:#ffffff;fill-opacity:1;stroke:none;stroke-width:0.83821929"
       id="text823">
      <path
         d="m 62.322098,199.39324 q 0.469402,0 0.871748,0.16764 0.402345,0.16765 0.771162,0.43588 0.502931,0.40234 1.005863,0.80469 0.53646,0.36882 1.173507,0.63705 0.637047,0.26823 1.408208,0.43587 0.804691,0.16764 1.777025,0.16764 0.804691,0 1.542324,-0.13411 0.737633,-0.16765 1.307622,-0.50293 0.569989,-0.33529 0.905277,-0.83822 0.335288,-0.50293 0.335288,-1.17351 0,-0.7041 -0.335288,-1.20704 -0.301759,-0.53646 -1.005863,-0.9388 -0.670576,-0.43588 -1.810554,-0.80469 -1.106449,-0.36882 -2.715831,-0.77116 -1.341151,-0.33529 -2.548186,-0.83822 -1.207036,-0.53646 -2.112313,-1.30763 -0.905277,-0.77116 -1.441737,-1.87761 -0.502932,-1.10645 -0.502932,-2.6823 0,-1.57585 0.637047,-2.78289 0.670575,-1.24056 1.810553,-2.07878 1.139979,-0.87175 2.648774,-1.30762 1.508794,-0.43588 3.185233,-0.43588 2.112313,0 3.587579,0.50293 1.475266,0.46941 2.615244,1.20704 0.737633,0.4694 1.039392,1.07292 0.335288,0.60352 0.335288,1.17351 0,0.56999 -0.201173,0.97233 -0.201172,0.36882 -0.502931,0.60352 -0.301759,0.2347 -0.670576,0.36882 -0.335287,0.10058 -0.637046,0.10058 -0.569989,0 -0.972335,-0.16764 -0.402345,-0.16764 -0.80469,-0.40235 -0.335288,-0.20117 -0.704105,-0.40234 -0.368816,-0.2347 -0.871748,-0.43588 -0.469403,-0.20117 -1.106449,-0.33528 -0.603518,-0.13412 -1.475266,-0.13412 -1.877612,0 -2.74936,0.77116 -0.838219,0.73764 -0.838219,1.67644 0,1.24057 1.307622,1.9782 1.341151,0.73763 4.258154,1.47527 1.240565,0.33528 2.48113,0.80469 1.274093,0.4694 2.246427,1.24056 0.972335,0.73763 1.575853,1.91114 0.637047,1.13998 0.637047,2.88348 0,1.4082 -0.56999,2.6823 -0.569989,1.24056 -1.676438,2.2129 -1.10645,0.9388 -2.782889,1.50879 -1.642909,0.53646 -3.855809,0.53646 -1.374679,0 -2.514658,-0.2347 -1.139978,-0.2347 -2.078784,-0.60352 -0.905277,-0.36881 -1.609381,-0.83822 -0.704104,-0.4694 -1.207036,-0.97233 -0.402345,-0.36882 -0.771162,-0.90528 -0.368816,-0.53646 -0.368816,-1.10645 0,-0.60352 0.201173,-1.00586 0.234701,-0.40235 0.53646,-0.63705 0.335288,-0.26823 0.670575,-0.36881 0.335288,-0.10059 0.56999,-0.10059 z"
         style="font-style:normal;font-variant:normal;font-weight:bold;font-stretch:normal;font-family:'Booster Next FY';-inkscape-font-specification:'Booster Next FY Bold';stroke-width:0.83821929;fill:#ffffff"
         id="path839"
         inkscape:connector-curvature="0" />
      <path
         d="m 85.6581,205.49548 q -1.575852,-0.70411 -2.715831,-1.87761 -1.106449,-1.20704 -1.743496,-2.81642 -0.637047,-1.60938 -0.637047,-3.48699 0,-1.87762 0.637047,-3.487 0.637047,-1.64291 1.743496,-2.81641 1.139979,-1.20704 2.715831,-1.87761 1.575852,-0.70411 3.486993,-0.70411 1.877611,0 3.453463,0.70411 1.575853,0.67057 2.715831,1.87761 1.139978,1.1735 1.777025,2.81641 0.637047,1.60938 0.637047,3.487 0,1.87761 -0.637047,3.48699 -0.637047,1.60938 -1.777025,2.81642 -1.139978,1.1735 -2.715831,1.87761 -1.575852,0.67057 -3.453463,0.67057 -1.911141,0 -3.486993,-0.67057 z m 0.234701,-4.59345 q 0.56999,0.70411 1.37468,1.13998 0.804691,0.40235 1.877612,0.40235 1.07292,0 1.877611,-0.40235 0.80469,-0.40234 1.341151,-1.10645 0.569989,-0.7041 0.838219,-1.60938 0.301759,-0.9388 0.301759,-1.9782 0,-1.07292 -0.301759,-2.01172 -0.26823,-0.93881 -0.838219,-1.64291 -0.536461,-0.70411 -1.341151,-1.10645 -0.804691,-0.40235 -1.877611,-0.40235 -1.072921,0 -1.877612,0.40235 -0.80469,0.36882 -1.37468,1.07292 -0.53646,0.67058 -0.838219,1.60938 -0.26823,0.90528 -0.26823,1.9782 0,1.03939 0.26823,1.9782 0.301759,0.9388 0.838219,1.67643 z"
         style="font-style:normal;font-variant:normal;font-weight:bold;font-stretch:normal;font-family:'Booster Next FY';-inkscape-font-specification:'Booster Next FY Bold';stroke-width:0.83821929;fill:#ffffff"
         id="path841"
         inkscape:connector-curvature="0" />
      <path
         d="m 115.49868,201.84084 q 0,1.03939 -0.7041,1.7435 -0.40235,0.4694 -0.97234,0.9388 -0.56999,0.46941 -1.30762,0.83822 -0.73763,0.36882 -1.67644,0.56999 -0.93881,0.2347 -2.11231,0.2347 -1.91114,0 -3.45347,-0.67057 -1.54232,-0.70411 -2.64877,-1.87761 -1.07292,-1.20704 -1.67644,-2.81642 -0.56999,-1.64291 -0.56999,-3.52052 0,-1.87761 0.63705,-3.487 0.63705,-1.60938 1.7435,-2.78288 1.10644,-1.20704 2.61524,-1.87761 1.54232,-0.70411 3.35288,-0.70411 2.01172,0 3.6211,0.70411 1.64291,0.7041 2.71584,2.11231 0.63704,0.83822 0.63704,1.64291 0,0.97233 -0.60352,1.40821 -0.56998,0.40234 -1.1735,0.40234 -0.56999,0 -0.90528,-0.20117 -0.33529,-0.20117 -0.56999,-0.43587 -0.20117,-0.20118 -0.50293,-0.50294 -0.30176,-0.33528 -0.77116,-0.63704 -0.43588,-0.30176 -1.03939,-0.50293 -0.56999,-0.23471 -1.37468,-0.23471 -1.00587,0 -1.77703,0.43588 -0.77116,0.40234 -1.30762,1.13998 -0.53646,0.7041 -0.80469,1.64291 -0.26823,0.90527 -0.26823,1.91114 0,1.00586 0.26823,1.94467 0.26823,0.90527 0.80469,1.6429 0.53646,0.70411 1.27409,1.13998 0.77116,0.40235 1.77703,0.40235 1.07292,0 1.94467,-0.4694 0.87174,-0.50294 1.67643,-1.2741 0.40235,-0.36881 0.73764,-0.4694 0.36881,-0.13412 0.60352,-0.13412 0.60351,0 1.20703,0.43588 0.60352,0.43587 0.60352,1.30762 z"
         style="font-style:normal;font-variant:normal;font-weight:bold;font-stretch:normal;font-family:'Booster Next FY';-inkscape-font-specification:'Booster Next FY Bold';stroke-width:0.83821929;fill:#ffffff"
         id="path843"
         inkscape:connector-curvature="0" />
      <path
         d="m 119.65621,186.45113 q -0.60352,-0.53646 -0.60352,-1.60938 0,-1.03939 0.60352,-1.60938 0.60352,-0.60352 1.57585,-0.60352 0.97233,0 1.60938,0.56999 0.63705,0.56999 0.63705,1.64291 0,1.13998 -0.63705,1.64291 -0.63705,0.50293 -1.60938,0.50293 -0.93881,0 -1.57585,-0.53646 z m 3.58758,14.08209 q 0,0.67057 0.16764,1.13998 0.20117,0.43587 0.7041,0.43587 0.56999,0 0.80469,0.50293 0.23471,0.50293 0.23471,1.07292 0,0.97234 -0.60352,1.57586 -0.56999,0.56998 -1.7435,0.56998 -1.70997,0 -2.6823,-1.13997 -0.97233,-1.17351 -0.97233,-3.88934 v -10.0251 q 0,-0.83822 0.56998,-1.40821 0.56999,-0.60352 1.47527,-0.60352 0.90528,0 1.47527,0.60352 0.56999,0.56999 0.56999,1.40821 z"
         style="font-style:normal;font-variant:normal;font-weight:bold;font-stretch:normal;font-family:'Booster Next FY';-inkscape-font-specification:'Booster Next FY Bold';stroke-width:0.83821929;fill:#ffffff"
         id="path845"
         inkscape:connector-curvature="0" />
      <path
         d="m 140.10874,202.47789 q -0.80469,1.77702 -2.27996,2.74936 -1.44174,0.9388 -3.41994,0.9388 -1.50879,0 -2.84994,-0.60352 -1.34115,-0.63704 -2.34702,-1.77702 -1.00586,-1.13998 -1.60938,-2.74936 -0.56999,-1.64291 -0.56999,-3.65464 0,-2.01172 0.60352,-3.65463 0.63705,-1.67644 1.67644,-2.84995 1.07292,-1.17351 2.4476,-1.81055 1.40821,-0.63705 2.95053,-0.63705 2.07879,0 3.35288,0.93881 1.30762,0.90527 2.04526,2.48113 v -1.34116 q 0,-0.77116 0.56998,-1.24056 0.56999,-0.50293 1.5088,-0.50293 0.93881,0 1.47527,0.50293 0.56999,0.4694 0.56999,1.24056 v 10.09217 q 0,1.50879 0.83821,1.50879 0.50294,0 0.77117,0.43587 0.30176,0.40235 0.30176,1.17351 0,2.11231 -2.58172,2.11231 -1.67644,0 -2.4476,-0.87174 -0.77116,-0.90528 -0.97234,-2.07879 z m -7.57751,-1.40821 q 0.60352,0.67057 1.40821,1.03939 0.80469,0.33529 1.7435,0.33529 0.90527,0 1.70997,-0.33529 0.83821,-0.36882 1.44173,-1.00586 0.60352,-0.67058 0.93881,-1.60938 0.36881,-0.93881 0.36881,-2.11232 0,-2.34701 -1.24056,-3.75522 -1.20704,-1.44174 -3.21876,-1.44174 -2.07879,0 -3.25229,1.44174 -1.17351,1.44174 -1.17351,3.75522 0,1.17351 0.33529,2.11232 0.33528,0.90527 0.9388,1.57585 z"
         style="font-style:normal;font-variant:normal;font-weight:bold;font-stretch:normal;font-family:'Booster Next FY';-inkscape-font-specification:'Booster Next FY Bold';stroke-width:0.83821929;fill:#ffffff"
         id="path847"
         inkscape:connector-curvature="0" />
      <path
         d="m 153.11789,200.53322 q 0,0.67057 0.16764,1.13998 0.20117,0.43587 0.7041,0.43587 0.56999,0 0.80469,0.50293 0.23471,0.50293 0.23471,1.07292 0,0.97234 -0.60352,1.57586 -0.56999,0.56998 -1.7435,0.56998 -1.70997,0 -2.6823,-1.13997 -0.97233,-1.17351 -0.97233,-3.88934 v -16.09381 q 0,-0.83822 0.56998,-1.40821 0.56999,-0.60352 1.47527,-0.60352 0.90528,0 1.47527,0.60352 0.56999,0.56999 0.56999,1.40821 z"
         style="font-style:normal;font-variant:normal;font-weight:bold;font-stretch:normal;font-family:'Booster Next FY';-inkscape-font-specification:'Booster Next FY Bold';stroke-width:0.83821929;fill:#ffffff"
         id="path849"
         inkscape:connector-curvature="0" />
    </g>
  </g>
</svg>
