<?xml version="1.0" encoding="UTF-8" standalone="no"?>
<!-- Created with Inkscape (http://www.inkscape.org/) -->

<svg
   xmlns:dc="http://purl.org/dc/elements/1.1/"
   xmlns:cc="http://creativecommons.org/ns#"
   xmlns:rdf="http://www.w3.org/1999/02/22-rdf-syntax-ns#"
   xmlns:svg="http://www.w3.org/2000/svg"
   xmlns="http://www.w3.org/2000/svg"
   xmlns:sodipodi="http://sodipodi.sourceforge.net/DTD/sodipodi-0.dtd"
   xmlns:inkscape="http://www.inkscape.org/namespaces/inkscape"
   width="66.277328mm"
   height="81.264931mm"
   viewBox="0 0 66.277329 81.264931"
   version="1.1"
   id="svg8"
   sodipodi:docname="orientacion.svg"
   inkscape:version="0.92.5 (2060ec1f9f, 2020-04-08)">
  <defs
     id="defs2" />
  <sodipodi:namedview
     id="base"
     pagecolor="#ffffff"
     bordercolor="#666666"
     borderopacity="1.0"
     inkscape:pageopacity="0.0"
     inkscape:pageshadow="2"
     inkscape:zoom="1.396497"
     inkscape:cx="94.677702"
     inkscape:cy="138.79855"
     inkscape:document-units="mm"
     inkscape:current-layer="text941"
     showgrid="true"
     showguides="true"
     inkscape:guide-bbox="true"
     inkscape:window-width="1920"
     inkscape:window-height="1028"
     inkscape:window-x="0"
     inkscape:window-y="0"
     inkscape:window-maximized="1">
    <inkscape:grid
       type="xygrid"
       id="grid10"
       originx="-63.300627"
       originy="-422.40353" />
    <sodipodi:guide
       position="39.886874,76.336064"
       orientation="1,0"
       id="guide58"
       inkscape:locked="false" />
    <sodipodi:guide
       position="49.147291,64.429812"
       orientation="1,0"
       id="guide922"
       inkscape:locked="false" />
  </sodipodi:namedview>
  <metadata
     id="metadata5">
    <rdf:RDF>
      <cc:Work
         rdf:about="">
        <dc:format>image/svg+xml</dc:format>
        <dc:type
           rdf:resource="http://purl.org/dc/dcmitype/StillImage" />
      </cc:Work>
    </rdf:RDF>
  </metadata>
  <g
     inkscape:label="Layer 1"
     inkscape:groupmode="layer"
     id="layer1"
     transform="translate(-1.1235416,2.9392954)">
    <path
       style="fill:#ffffff;stroke:none;stroke-width:0.26458332px;stroke-linecap:butt;stroke-linejoin:miter;stroke-opacity:1"
       d="m 1.3229167,20.510417 c 1.3127285,1.392288 1.3127285,9.250715 0,10.583333 3.909856,-1.237652 35.7776433,-1.265781 39.6874993,0 1.336102,0.02813 1.372398,9.260903 0,11.90625 C 42.346518,40.355925 64.83786,25.816147 66.145833,25.802083 64.83786,25.816147 42.422594,12.671879 41.010416,9.9270833 c 1.406423,2.7565887 1.322038,10.5973977 0,10.5833337 -3.96875,1.322901 -35.71875,1.322901 -39.6874993,0 z"
       id="path56"
       inkscape:connector-curvature="0"
       sodipodi:nodetypes="cccccccc" />
    <path
       sodipodi:type="spiral"
       style="display:none;fill:none;fill-rule:evenodd;stroke:#000000;stroke-width:0.43069765"
       id="path62"
       sodipodi:cx="41.010414"
       sodipodi:cy="25.802084"
       sodipodi:expansion="1.618"
       sodipodi:revolution="3"
       sodipodi:radius="75.495049"
       sodipodi:argument="-15.765044"
       sodipodi:t0="0"
       d="m 41.010414,25.802084 c -0.667365,0.03814 -0.263696,-1.137021 -0.07728,-1.352369 1.256081,-1.451011 3.464775,-0.180114 4.228365,1.115163 1.888073,3.202741 -0.644895,6.991409 -3.693956,8.236976 -5.612017,2.292555 -11.49452,-1.934851 -13.19886,-7.271669 C 25.568243,18.074262 31.876129,9.6740295 39.965713,7.5198709 51.670706,4.4029724 62.962934,13.135928 65.565645,24.398924 69.108929,39.732165 57.635929,54.258908 42.811055,57.313211 23.49211,61.293407 5.4113069,46.787424 1.8997757,28.036984 -2.5281984,4.3930354 15.286488,-17.543498 38.306313,-21.519545 66.599198,-26.406369 92.678591,-5.0212275 97.127526,22.595383 102.48439,55.847945 77.278699,86.345132 44.751794,91.276054 6.2402886,97.114213 -28.939172,67.847819 -34.361678,30.109073" />
    <path
       style="fill:#ffffff;stroke:none;stroke-width:0.26458332px;stroke-linecap:butt;stroke-linejoin:miter;stroke-opacity:1"
       d="m 66.145831,44.322898 c -1.31273,1.392288 -1.31273,9.250715 0,10.583333 -3.90986,-1.237652 -35.777644,-1.265781 -39.6875,0 -1.336101,0.02813 -1.372399,9.260903 0,11.90625 C 25.12223,64.168407 2.6308905,49.628628 1.3229105,49.614564 c 1.30798,0.01406 23.7232445,-13.130204 25.1354205,-15.875 -1.406422,2.756589 -1.322038,10.597398 0,10.583334 3.96875,1.322901 35.71875,1.322901 39.6875,0 z"
       id="path56-6"
       inkscape:connector-curvature="0"
       sodipodi:nodetypes="cccccccc" />
    <g
       aria-label="Orientación"
       style="font-style:normal;font-weight:normal;font-size:11.89331245px;line-height:1.25;font-family:sans-serif;letter-spacing:0px;word-spacing:0px;fill:#000000;fill-opacity:1;stroke:none;stroke-width:0.29733279"
       id="text941">
      <path
         d="M 4.6994264,5.6833562 Q 3.9858276,5.37413 3.4744152,4.8151444 2.9630028,4.2561587 2.6775633,3.4830934 2.3921238,2.710028 2.3921238,1.7585631 q 0,-0.95146505 0.2854395,-1.72453035 0.2854395,-0.78495863 0.7968519,-1.33205095 0.5114124,-0.5589857 1.2250112,-0.8563185 0.7135987,-0.3092262 1.5699172,-0.3092262 0.8682118,0 1.5818106,0.3092262 0.7135987,0.2973328 1.2250112,0.8563185 0.5114124,0.54709232 0.7968519,1.33205095 0.2854397,0.7730653 0.2854397,1.72453035 0,0.9514649 -0.2854397,1.7245303 Q 9.5875778,4.2561587 9.0761654,4.8151444 8.5647529,5.37413 7.8511542,5.6833562 7.1375554,5.980689 6.2693436,5.980689 q -0.8563185,0 -1.5699172,-0.2973328 z M 4.5685999,3.7566395 q 0.3092262,0.3567994 0.7373854,0.5589857 0.4281593,0.2021863 0.9633583,0.2021863 0.5351991,0 0.9752516,-0.2021863 Q 7.6846478,4.1134389 7.9819806,3.7566395 8.2912067,3.3879469 8.4577131,2.8765344 8.6242195,2.365122 8.6242195,1.7585631 q 0,-0.6184523 -0.1665064,-1.11797142 Q 8.2912067,0.12917924 7.9819806,-0.22762013 7.6727545,-0.59631281 7.2327019,-0.79849913 6.8045427,-1.0006854 6.2693436,-1.0006854 q -0.535199,0 -0.9752516,0.20218627 -0.4281593,0.20218632 -0.7373854,0.570879 Q 4.2593738,0.12917924 4.0928674,0.64059168 3.9263611,1.1401108 3.9263611,1.7585631 q 0,0.6065589 0.1665063,1.1179713 0.1665064,0.5114125 0.4757325,0.8801051 z"
         style="font-style:normal;font-variant:normal;font-weight:bold;font-stretch:normal;font-family:'Booster Next FY';-inkscape-font-specification:'Booster Next FY Bold';fill:#ffffff;stroke-width:0.29733279"
         id="path846"
         inkscape:connector-curvature="0" />
      <path
         d="m 13.012846,5.1600504 q 0,0.3211194 -0.21408,0.5114124 -0.21408,0.190293 -0.511413,0.190293 -0.309226,0 -0.523305,-0.190293 -0.202187,-0.190293 -0.202187,-0.5114124 V 0.46219199 q 0,-0.27354618 0.166507,-0.46383918 0.178399,-0.190293 0.511412,-0.190293 0.689812,0 0.689812,0.65413218 v 0.40437263 q 0.24976,-0.49951913 0.689812,-0.83253187 0.451946,-0.34490607 1.082292,-0.34490607 0.416266,0 0.582772,0.190293 0.1784,0.190293 0.1784,0.45194588 0,0.29733281 -0.166506,0.49951912 -0.166507,0.20218632 -0.5352,0.20218632 -0.333012,0 -0.654132,0.1189331 -0.309226,0.1070398 -0.558985,0.3330128 -0.237867,0.2259729 -0.39248,0.5827723 -0.142719,0.344906 -0.142719,0.8206385 z"
         style="font-style:normal;font-variant:normal;font-weight:bold;font-stretch:normal;font-family:'Booster Next FY';-inkscape-font-specification:'Booster Next FY Bold';fill:#ffffff;stroke-width:0.29733279"
         id="path848"
         inkscape:connector-curvature="0" />
      <path
         d="m 16.604609,-1.0125788 q -0.21408,-0.1902929 -0.21408,-0.5708789 0,-0.3686927 0.21408,-0.570879 0.214079,-0.2140797 0.558985,-0.2140797 0.344906,0 0.570879,0.2021863 0.225973,0.2021864 0.225973,0.5827724 0,0.4043726 -0.225973,0.5827723 -0.225973,0.17839965 -0.570879,0.17839965 -0.333013,0 -0.558985,-0.19029305 z m 1.272584,4.9951913 q 0,0.2378662 0.05947,0.4043726 0.07136,0.1546131 0.249759,0.1546131 0.202186,0 0.28544,0.1783997 0.08325,0.1783996 0.08325,0.380586 0,0.344906 -0.21408,0.5589856 -0.202186,0.2021863 -0.618452,0.2021863 -0.606559,0 -0.951465,-0.4043726 Q 16.426209,5.0411173 16.426209,4.077759 V 0.52165856 q 0,-0.29733282 0.202186,-0.49951913 0.202186,-0.21407962 0.523306,-0.21407962 0.321119,0 0.523306,0.21407962 0.202186,0.20218631 0.202186,0.49951913 z"
         style="font-style:normal;font-variant:normal;font-weight:bold;font-stretch:normal;font-family:'Booster Next FY';-inkscape-font-specification:'Booster Next FY Bold';fill:#ffffff;stroke-width:0.29733279"
         id="path850"
         inkscape:connector-curvature="0" />
      <path
         d="m 20.6959,3.1857605 q 0.09515,0.7135988 0.523306,1.0941848 0.440053,0.380586 1.094185,0.380586 0.249759,0 0.463839,-0.047573 0.225973,-0.059467 0.404373,-0.1427197 0.178399,-0.083253 0.309226,-0.1665064 0.142719,-0.095147 0.225973,-0.154613 0.214079,-0.095147 0.321119,-0.095147 0.273546,0 0.451946,0.2021863 0.190293,0.2021863 0.190293,0.4519458 0,0.1783997 -0.09515,0.3330128 -0.09515,0.1427197 -0.214079,0.2378662 -0.344906,0.2854395 -0.891999,0.4995192 -0.547092,0.2021863 -1.284477,0.2021863 -0.654133,0 -1.201225,-0.225973 -0.547089,-0.237866 -0.939569,-0.6541319 -0.392479,-0.416266 -0.618452,-0.987145 -0.214079,-0.570879 -0.214079,-1.2487978 0,-0.6541322 0.225972,-1.2369045 0.225973,-0.5827723 0.618453,-1.01093154 0.404372,-0.42815925 0.951465,-0.67791881 0.547092,-0.24975957 1.177438,-0.24975957 0.618452,0 1.117971,0.22597294 0.511412,0.21407962 0.868212,0.58277231 0.356799,0.35679937 0.547092,0.83253187 0.202187,0.4757325 0.202187,0.9871449 0,0.380586 -0.130827,0.6303456 -0.118933,0.2378662 -0.523306,0.2378662 z M 23.502722,2.3175487 Q 23.514615,2.0915758 23.431362,1.8656029 23.348109,1.6277366 23.169709,1.4374436 23.003203,1.2471506 22.753443,1.1401108 22.503684,1.0211777 22.182564,1.0211777 q -0.570879,0 -0.963358,0.344906 -0.392479,0.3330128 -0.511412,0.951465 z"
         style="font-style:normal;font-variant:normal;font-weight:bold;font-stretch:normal;font-family:'Booster Next FY';-inkscape-font-specification:'Booster Next FY Bold';fill:#ffffff;stroke-width:0.29733279"
         id="path852"
         inkscape:connector-curvature="0" />
      <path
         d="m 27.724845,5.1600504 q 0,0.2973328 -0.202186,0.4995191 -0.202186,0.2021863 -0.523306,0.2021863 -0.297332,0 -0.511412,-0.190293 -0.21408,-0.2021863 -0.21408,-0.5114124 V 0.43840537 q 0,-0.22597294 0.1784,-0.42815925 0.1784,-0.20218631 0.558986,-0.20218631 0.380586,0 0.547092,0.190293 0.166506,0.190293 0.166506,0.42815925 v 0.36869268 q 0.225973,-0.53519906 0.701706,-0.82063856 0.475732,-0.2854395 1.082291,-0.2854395 1.034718,0 1.605597,0.65413219 0.570879,0.64223887 0.570879,1.77210353 v 3.044688 q 0,0.2973328 -0.214079,0.4995191 -0.202186,0.2021863 -0.523306,0.2021863 -0.309226,0 -0.523306,-0.2021863 Q 30.222441,5.4573832 30.222441,5.1600504 V 2.6267749 q 0,-0.7849587 -0.333013,-1.1893313 -0.321119,-0.4162659 -0.903891,-0.4162659 -0.594666,0 -0.927679,0.4281592 -0.333013,0.416266 -0.333013,1.2131179 z"
         style="font-style:normal;font-variant:normal;font-weight:bold;font-stretch:normal;font-family:'Booster Next FY';-inkscape-font-specification:'Booster Next FY Bold';fill:#ffffff;stroke-width:0.29733279"
         id="path854"
         inkscape:connector-curvature="0" />
      <path
         d="m 35.181944,3.8161061 q 0,0.8444252 0.630346,0.8444252 0.297332,0 0.440052,-0.07136 0.14272,-0.083253 0.28544,-0.083253 0.249759,0 0.380586,0.190293 0.130826,0.190293 0.130826,0.3686927 0,0.4400526 -0.297333,0.6303456 -0.249759,0.1665063 -0.547092,0.2259729 -0.28544,0.059467 -0.666026,0.059467 -0.523305,0 -0.880105,-0.1665064 Q 34.313732,5.6357829 34.099653,5.3503434 33.897466,5.0649039 33.80232,4.6962112 33.719067,4.3156252 33.719067,3.9231459 v -2.818715 h -0.333013 q -0.28544,0 -0.475733,-0.16650641 -0.178399,-0.17839968 -0.178399,-0.4757325 0,-0.29733281 0.190293,-0.47573249 0.190293,-0.17839969 0.463839,-0.17839969 h 0.333013 V -1.0482587 q 0,-0.2973328 0.202186,-0.4995191 0.21408,-0.2021863 0.535199,-0.2021863 0.309226,0 0.511412,0.2021863 0.21408,0.2021863 0.21408,0.4995191 v 0.85631851 h 0.999038 q 0.273546,0 0.463839,0.17839969 0.190293,0.17839968 0.190293,0.47573249 0,0.29733282 -0.190293,0.4757325 -0.190293,0.16650641 -0.463839,0.16650641 h -0.999038 z"
         style="font-style:normal;font-variant:normal;font-weight:bold;font-stretch:normal;font-family:'Booster Next FY';-inkscape-font-specification:'Booster Next FY Bold';fill:#ffffff;stroke-width:0.29733279"
         id="path856"
         inkscape:connector-curvature="0" />
      <path
         d="m 42.329807,4.6724246 q -0.28544,0.6303456 -0.808745,0.9752516 -0.511413,0.3330128 -1.213118,0.3330128 -0.535199,0 -1.010932,-0.2140797 Q 38.82128,5.5406364 38.46448,5.1362638 38.107681,4.7318912 37.893601,4.1610122 37.691415,3.5782399 37.691415,2.8646411 q 0,-0.7135987 0.21408,-1.296371 0.225973,-0.59466567 0.594665,-1.01093161 0.380586,-0.41626593 0.868212,-0.64223887 0.499519,-0.22597294 1.046612,-0.22597294 0.737385,0 1.189331,0.33301275 0.463839,0.32111944 0.725492,0.88010512 V 0.42651206 q 0,-0.27354619 0.202186,-0.44005256 0.202186,-0.17839969 0.535199,-0.17839969 0.333013,0 0.523306,0.17839969 0.202186,0.16650637 0.202186,0.44005256 V 4.0063991 q 0,0.5351991 0.297333,0.5351991 0.1784,0 0.273546,0.154613 0.10704,0.1427198 0.10704,0.416266 0,0.7492786 -0.915785,0.7492786 -0.594666,0 -0.868212,-0.3092261 Q 42.41306,5.2314103 42.3417,4.8151444 Z M 39.641918,4.1729055 q 0.21408,0.2378662 0.499519,0.3686927 0.28544,0.1189331 0.618453,0.1189331 0.321119,0 0.606559,-0.1189331 0.297332,-0.1308265 0.511412,-0.3567994 0.21408,-0.2378663 0.333013,-0.570879 Q 42.3417,3.280907 42.3417,2.8646411 q 0,-0.8325319 -0.440052,-1.332051 -0.42816,-0.5114124 -1.141758,-0.5114124 -0.737386,0 -1.153652,0.5114124 -0.416266,0.5114125 -0.416266,1.332051 0,0.4162659 0.118933,0.7492787 0.118934,0.3211194 0.333013,0.5589857 z"
         style="font-style:normal;font-variant:normal;font-weight:bold;font-stretch:normal;font-family:'Booster Next FY';-inkscape-font-specification:'Booster Next FY Bold';fill:#ffffff;stroke-width:0.29733279"
         id="path858"
         inkscape:connector-curvature="0" />
      <path
         d="m 50.500505,4.4464517 q 0,0.3686927 -0.24976,0.6184522 -0.14272,0.1665064 -0.344906,0.3330128 -0.202186,0.1665063 -0.463839,0.2973328 -0.261653,0.1308264 -0.594666,0.2021863 -0.333013,0.083253 -0.749279,0.083253 -0.677918,0 -1.225011,-0.2378663 Q 46.325952,5.4930632 45.933473,5.0767972 45.552887,4.648638 45.338807,4.077759 45.136621,3.4949867 45.136621,2.8289612 q 0,-0.6660255 0.225973,-1.2369045 0.225973,-0.570879 0.618452,-0.98714496 0.392479,-0.42815925 0.927678,-0.66602549 0.547093,-0.24975957 1.189331,-0.24975957 0.713599,0 1.284478,0.24975957 0.582773,0.24975956 0.963359,0.74927868 0.225972,0.29733281 0.225972,0.58277227 0,0.3449061 -0.214079,0.4995192 -0.202186,0.1427197 -0.416266,0.1427197 -0.202186,0 -0.32112,-0.07136 -0.118933,-0.07136 -0.202186,-0.154613 -0.07136,-0.07136 -0.1784,-0.1783997 -0.107039,-0.1189331 -0.273546,-0.2259729 -0.154613,-0.1070399 -0.368692,-0.1783997 -0.202187,-0.083253 -0.487626,-0.083253 -0.3568,0 -0.630346,0.154613 -0.273546,0.1427198 -0.463839,0.4043727 -0.190293,0.2497595 -0.285439,0.5827723 -0.09515,0.3211194 -0.09515,0.6779188 0,0.3567994 0.09515,0.6898121 0.09515,0.3211194 0.285439,0.5827723 0.190293,0.2497596 0.451946,0.4043726 0.273546,0.1427198 0.630345,0.1427198 0.380586,0 0.689813,-0.1665064 0.309226,-0.1783997 0.594665,-0.4519459 0.14272,-0.1308264 0.261653,-0.1665063 0.130827,-0.047573 0.21408,-0.047573 0.214079,0 0.428159,0.1546131 0.21408,0.154613 0.21408,0.4638388 z"
         style="font-style:normal;font-variant:normal;font-weight:bold;font-stretch:normal;font-family:'Booster Next FY';-inkscape-font-specification:'Booster Next FY Bold';fill:#ffffff;stroke-width:0.29733279"
         id="path860"
         inkscape:connector-curvature="0" />
      <path
         d="m 51.975264,-1.0125788 q -0.21408,-0.1902929 -0.21408,-0.5708789 0,-0.3686927 0.21408,-0.570879 0.214079,-0.2140797 0.558985,-0.2140797 0.344906,0 0.570879,0.2021863 0.225973,0.2021864 0.225973,0.5827724 0,0.4043726 -0.225973,0.5827723 -0.225973,0.17839965 -0.570879,0.17839965 -0.333012,0 -0.558985,-0.19029305 z m 1.272584,4.9951913 q 0,0.2378662 0.05947,0.4043726 0.07136,0.1546131 0.249759,0.1546131 0.202186,0 0.28544,0.1783997 0.08325,0.1783996 0.08325,0.380586 0,0.344906 -0.21408,0.5589856 -0.202186,0.2021863 -0.618452,0.2021863 -0.606559,0 -0.951465,-0.4043726 Q 51.796864,5.0411173 51.796864,4.077759 V 0.52165856 q 0,-0.29733282 0.202186,-0.49951913 0.202187,-0.21407962 0.523306,-0.21407962 0.321119,0 0.523306,0.21407962 0.202186,0.20218631 0.202186,0.49951913 z"
         style="font-style:normal;font-variant:normal;font-weight:bold;font-stretch:normal;font-family:'Booster Next FY';-inkscape-font-specification:'Booster Next FY Bold';fill:#ffffff;stroke-width:0.29733279"
         id="path862"
         inkscape:connector-curvature="0" />
      <path
         d="M 56.41146,5.7428227 Q 55.852474,5.4930632 55.448101,5.0767972 55.055622,4.648638 54.829649,4.077759 54.603676,3.50688 54.603676,2.8408545 q 0,-0.6660255 0.225973,-1.2369045 0.225973,-0.5827723 0.618452,-0.99903826 0.404373,-0.42815925 0.963359,-0.66602549 0.558985,-0.24975957 1.236904,-0.24975957 0.666025,0 1.225011,0.24975957 0.558986,0.23786624 0.963358,0.66602549 0.404373,0.41626596 0.630346,0.99903826 0.225973,0.570879 0.225973,1.2369045 0,0.6660255 -0.225973,1.2369045 -0.225973,0.570879 -0.630346,0.9990382 -0.404372,0.416266 -0.963358,0.6660255 -0.558986,0.2378663 -1.225011,0.2378663 -0.677919,0 -1.236904,-0.2378663 z m 0.08325,-1.6293838 q 0.202186,0.2497596 0.487626,0.4043726 0.285439,0.1427198 0.666025,0.1427198 0.380586,0 0.666025,-0.1427198 0.28544,-0.1427197 0.475733,-0.3924793 0.202186,-0.2497595 0.297333,-0.570879 0.10704,-0.3330127 0.10704,-0.7017054 0,-0.380586 -0.10704,-0.7135988 Q 58.992308,1.8061363 58.790122,1.5563767 58.599829,1.3066172 58.314389,1.1638974 58.02895,1.0211777 57.648364,1.0211777 q -0.380586,0 -0.666025,0.1427197 -0.28544,0.1308265 -0.487626,0.380586 -0.190293,0.2378663 -0.297333,0.570879 -0.09515,0.3211195 -0.09515,0.7017055 0,0.3686926 0.09515,0.7017054 0.10704,0.3330127 0.297333,0.5946656 z m 0.642239,-4.86436478 q -0.166507,0.11893313 -0.297333,0.11893313 -0.202187,0 -0.32112,-0.14271975 -0.118933,-0.15461306 -0.118933,-0.3211194 0,-0.2140797 0.190293,-0.4043727 l 1.248798,-1.2012245 q 0.09515,-0.095147 0.21408,-0.1665064 0.130826,-0.07136 0.285439,-0.07136 0.24976,0 0.440053,0.190293 0.202186,0.190293 0.202186,0.4281593 0,0.3330127 -0.261653,0.5114124 z"
         style="font-style:normal;font-variant:normal;font-weight:bold;font-stretch:normal;font-family:'Booster Next FY';-inkscape-font-specification:'Booster Next FY Bold';fill:#ffffff;stroke-width:0.29733279"
         id="path864"
         inkscape:connector-curvature="0" />
      <path
         d="m 63.440395,5.1600504 q 0,0.2973328 -0.202186,0.4995191 -0.202187,0.2021863 -0.523306,0.2021863 -0.297333,0 -0.511413,-0.190293 Q 61.989411,5.4692765 61.989411,5.1600504 V 0.43840537 q 0,-0.22597294 0.178399,-0.42815925 0.1784,-0.20218631 0.558986,-0.20218631 0.380586,0 0.547093,0.190293 0.166506,0.190293 0.166506,0.42815925 v 0.36869268 q 0.225973,-0.53519906 0.701705,-0.82063856 0.475733,-0.2854395 1.082292,-0.2854395 1.034718,0 1.605597,0.65413219 0.570879,0.64223887 0.570879,1.77210353 v 3.044688 q 0,0.2973328 -0.21408,0.4995191 -0.202186,0.2021863 -0.523305,0.2021863 -0.309227,0 -0.523306,-0.2021863 Q 65.937991,5.4573832 65.937991,5.1600504 V 2.6267749 q 0,-0.7849587 -0.333013,-1.1893313 -0.32112,-0.4162659 -0.903892,-0.4162659 -0.594666,0 -0.927678,0.4281592 -0.333013,0.416266 -0.333013,1.2131179 z"
         style="font-style:normal;font-variant:normal;font-weight:bold;font-stretch:normal;font-family:'Booster Next FY';-inkscape-font-specification:'Booster Next FY Bold';fill:#ffffff;stroke-width:0.29733279"
         id="path866"
         inkscape:connector-curvature="0" />
    </g>
    <g
       aria-label="Vocacional"
       style="font-style:normal;font-weight:normal;font-size:12.46293259px;line-height:1.25;font-family:sans-serif;letter-spacing:0px;word-spacing:0px;fill:#ffffff;fill-opacity:1;stroke:none;stroke-width:0.3115733"
       id="text945">
      <path
         d="m 5.684975,77.565394 q -0.1121664,0.286648 -0.2991104,0.461129 -0.1744811,0.174481 -0.4985173,0.174481 -0.3115733,0 -0.5109803,-0.174481 Q 4.189423,77.852042 4.0772567,77.565394 L 1.1858563,70.698319 q -0.024926,-0.06231 -0.049852,-0.149556 -0.012463,-0.0997 -0.012463,-0.211869 0,-0.311574 0.2367957,-0.523444 0.2367958,-0.211869 0.5234432,-0.211869 0.5234432,0 0.735313,0.523443 l 2.3181055,5.658171 2.2682537,-5.708023 q 0.062315,-0.174481 0.2118699,-0.324036 0.1620181,-0.149555 0.4237397,-0.149555 0.361425,0 0.5732949,0.174481 0.2243328,0.162018 0.2243328,0.486054 0,0.137092 -0.037389,0.249259 l -0.074778,0.224332 z"
         style="font-style:normal;font-variant:normal;font-weight:bold;font-stretch:normal;font-family:'Booster Next FY';-inkscape-font-specification:'Booster Next FY Bold';fill:#ffffff;stroke-width:0.3115733"
         id="path825"
         inkscape:connector-curvature="0" />
      <path
         d="M 10.582882,78.076375 Q 9.9971239,77.814653 9.5733841,77.37845 9.1621074,76.929785 8.9253116,76.331564 8.6885159,75.733343 8.6885159,75.035419 q 0,-0.697924 0.2367957,-1.296145 0.2367958,-0.610684 0.6480725,-1.046886 0.4237398,-0.448666 1.0094979,-0.697924 0.585758,-0.261722 1.296145,-0.261722 0.697924,0 1.283682,0.261722 0.585758,0.249258 1.009497,0.697924 0.42374,0.436202 0.660536,1.046886 0.236795,0.598221 0.236795,1.296145 0,0.697924 -0.236795,1.296145 -0.236796,0.598221 -0.660536,1.046886 -0.423739,0.436203 -1.009497,0.697925 -0.585758,0.249258 -1.283682,0.249258 -0.710387,0 -1.296145,-0.249258 z m 0.08724,-1.707422 q 0.21187,0.261722 0.51098,0.42374 0.299111,0.149555 0.697925,0.149555 0.398814,0 0.697924,-0.149555 0.29911,-0.149556 0.498517,-0.411277 0.21187,-0.261722 0.311574,-0.598221 0.112166,-0.348962 0.112166,-0.735313 0,-0.398814 -0.112166,-0.747776 -0.0997,-0.348962 -0.311574,-0.610684 -0.199407,-0.261721 -0.498517,-0.411276 -0.29911,-0.149556 -0.697924,-0.149556 -0.398814,0 -0.697925,0.149556 -0.29911,0.137092 -0.51098,0.398813 -0.199407,0.249259 -0.311573,0.598221 -0.0997,0.336499 -0.0997,0.735313 0,0.386351 0.0997,0.735313 0.112166,0.348962 0.311573,0.623147 z"
         style="font-style:normal;font-variant:normal;font-weight:bold;font-stretch:normal;font-family:'Booster Next FY';-inkscape-font-specification:'Booster Next FY Bold';fill:#ffffff;stroke-width:0.3115733"
         id="path827"
         inkscape:connector-curvature="0" />
      <path
         d="m 21.674879,76.717915 q 0,0.386351 -0.261721,0.648073 -0.149556,0.174481 -0.361425,0.348962 -0.21187,0.174481 -0.486055,0.311573 -0.274184,0.137092 -0.623146,0.21187 -0.348962,0.08724 -0.785165,0.08724 -0.710387,0 -1.283682,-0.249258 -0.573295,-0.261722 -0.984572,-0.697925 -0.398814,-0.448665 -0.623146,-1.046886 -0.21187,-0.610684 -0.21187,-1.308608 0,-0.697924 0.236795,-1.296145 0.236796,-0.598221 0.648073,-1.034423 0.411277,-0.448666 0.972109,-0.697924 0.573295,-0.261722 1.246293,-0.261722 0.747776,0 1.345997,0.261722 0.610683,0.261721 1.009497,0.785164 0.236796,0.311574 0.236796,0.610684 0,0.361425 -0.224333,0.523443 -0.21187,0.149555 -0.436203,0.149555 -0.211869,0 -0.336499,-0.07478 -0.124629,-0.07478 -0.21187,-0.162018 -0.07478,-0.07478 -0.186944,-0.186944 -0.112166,-0.12463 -0.286647,-0.236796 -0.162018,-0.112166 -0.386351,-0.186944 -0.21187,-0.08724 -0.51098,-0.08724 -0.373888,0 -0.660536,0.162019 -0.286647,0.149555 -0.486054,0.423739 -0.199407,0.261722 -0.29911,0.610684 -0.0997,0.336499 -0.0997,0.710387 0,0.373888 0.0997,0.72285 0.0997,0.336499 0.29911,0.610684 0.199407,0.261722 0.473591,0.42374 0.286648,0.149555 0.660536,0.149555 0.398814,0 0.72285,-0.174481 0.324036,-0.186944 0.623147,-0.473592 0.149555,-0.137092 0.274184,-0.174481 0.137092,-0.04985 0.224333,-0.04985 0.224333,0 0.448665,0.162018 0.224333,0.162018 0.224333,0.486055 z"
         style="font-style:normal;font-variant:normal;font-weight:bold;font-stretch:normal;font-family:'Booster Next FY';-inkscape-font-specification:'Booster Next FY Bold';fill:#ffffff;stroke-width:0.3115733"
         id="path829"
         inkscape:connector-curvature="0" />
      <path
         d="m 27.519979,76.954711 q -0.29911,0.660535 -0.847479,1.02196 -0.535906,0.348962 -1.271219,0.348962 -0.560832,0 -1.059349,-0.224332 -0.498518,-0.236796 -0.872406,-0.660536 -0.373888,-0.42374 -0.59822,-1.02196 -0.21187,-0.610684 -0.21187,-1.35846 0,-0.747776 0.224332,-1.35846 0.236796,-0.623146 0.623147,-1.059349 0.398814,-0.436203 0.909794,-0.672998 0.523443,-0.236796 1.096738,-0.236796 0.772702,0 1.246294,0.348962 0.486054,0.336499 0.760238,0.922257 v -0.498517 q 0,-0.286648 0.21187,-0.461129 0.21187,-0.186944 0.560832,-0.186944 0.348962,0 0.548369,0.186944 0.21187,0.174481 0.21187,0.461129 v 3.751343 q 0,0.560832 0.311573,0.560832 0.186944,0 0.286648,0.162018 0.112166,0.149555 0.112166,0.436202 0,0.785165 -0.959646,0.785165 -0.623146,0 -0.909794,-0.324036 -0.286647,-0.336499 -0.361425,-0.772702 z m -2.816622,-0.523443 q 0.224332,0.249258 0.523443,0.386351 0.29911,0.124629 0.648072,0.124629 0.336499,0 0.63561,-0.124629 0.311573,-0.137093 0.535906,-0.373888 0.224333,-0.249259 0.348962,-0.598221 0.137092,-0.348962 0.137092,-0.785165 0,-0.872405 -0.461128,-1.395848 -0.448666,-0.535907 -1.196442,-0.535907 -0.772702,0 -1.208904,0.535907 -0.436203,0.535906 -0.436203,1.395848 0,0.436203 0.12463,0.785165 0.124629,0.336499 0.348962,0.585758 z"
         style="font-style:normal;font-variant:normal;font-weight:bold;font-stretch:normal;font-family:'Booster Next FY';-inkscape-font-specification:'Booster Next FY Bold';fill:#ffffff;stroke-width:0.3115733"
         id="path831"
         inkscape:connector-curvature="0" />
      <path
         d="m 36.082007,76.717915 q 0,0.386351 -0.261722,0.648073 -0.149555,0.174481 -0.361425,0.348962 -0.21187,0.174481 -0.486054,0.311573 -0.274185,0.137092 -0.623147,0.21187 -0.348962,0.08724 -0.785165,0.08724 -0.710387,0 -1.283682,-0.249258 -0.573295,-0.261722 -0.984571,-0.697925 -0.398814,-0.448665 -0.623147,-1.046886 -0.21187,-0.610684 -0.21187,-1.308608 0,-0.697924 0.236796,-1.296145 0.236795,-0.598221 0.648072,-1.034423 0.411277,-0.448666 0.972109,-0.697924 0.573295,-0.261722 1.246293,-0.261722 0.747776,0 1.345997,0.261722 0.610684,0.261721 1.009498,0.785164 0.236795,0.311574 0.236795,0.610684 0,0.361425 -0.224333,0.523443 -0.211869,0.149555 -0.436202,0.149555 -0.21187,0 -0.336499,-0.07478 -0.12463,-0.07478 -0.21187,-0.162018 -0.07478,-0.07478 -0.186944,-0.186944 -0.112167,-0.12463 -0.286648,-0.236796 -0.162018,-0.112166 -0.386351,-0.186944 -0.211869,-0.08724 -0.51098,-0.08724 -0.373888,0 -0.660535,0.162019 -0.286648,0.149555 -0.486055,0.423739 -0.199407,0.261722 -0.29911,0.610684 -0.0997,0.336499 -0.0997,0.710387 0,0.373888 0.0997,0.72285 0.0997,0.336499 0.29911,0.610684 0.199407,0.261722 0.473592,0.42374 0.286647,0.149555 0.660535,0.149555 0.398814,0 0.72285,-0.174481 0.324037,-0.186944 0.623147,-0.473592 0.149555,-0.137092 0.274184,-0.174481 0.137093,-0.04985 0.224333,-0.04985 0.224333,0 0.448666,0.162018 0.224333,0.162018 0.224333,0.486055 z"
         style="font-style:normal;font-variant:normal;font-weight:bold;font-stretch:normal;font-family:'Booster Next FY';-inkscape-font-specification:'Booster Next FY Bold';fill:#ffffff;stroke-width:0.3115733"
         id="path833"
         inkscape:connector-curvature="0" />
      <path
         d="m 37.627395,70.997429 q -0.224333,-0.199407 -0.224333,-0.598221 0,-0.386351 0.224333,-0.598221 0.224333,-0.224332 0.585758,-0.224332 0.361425,0 0.598221,0.21187 0.236795,0.211869 0.236795,0.610683 0,0.42374 -0.236795,0.610684 -0.236796,0.186944 -0.598221,0.186944 -0.348962,0 -0.585758,-0.199407 z m 1.333534,5.234432 q 0,0.249258 0.06231,0.423739 0.07478,0.162019 0.261722,0.162019 0.21187,0 0.29911,0.186944 0.08724,0.186943 0.08724,0.398813 0,0.361425 -0.224333,0.585758 -0.21187,0.21187 -0.648072,0.21187 -0.63561,0 -0.997035,-0.42374 -0.361425,-0.436202 -0.361425,-1.4457 v -3.726417 q 0,-0.311573 0.21187,-0.523443 0.21187,-0.224333 0.548369,-0.224333 0.336499,0 0.548369,0.224333 0.21187,0.21187 0.21187,0.523443 z"
         style="font-style:normal;font-variant:normal;font-weight:bold;font-stretch:normal;font-family:'Booster Next FY';-inkscape-font-specification:'Booster Next FY Bold';fill:#ffffff;stroke-width:0.3115733"
         id="path835"
         inkscape:connector-curvature="0" />
      <path
         d="m 42.276061,78.076375 q -0.585758,-0.261722 -1.009497,-0.697925 -0.411277,-0.448665 -0.648073,-1.046886 -0.236795,-0.598221 -0.236795,-1.296145 0,-0.697924 0.236795,-1.296145 0.236796,-0.610684 0.648073,-1.046886 0.423739,-0.448666 1.009497,-0.697924 0.585758,-0.261722 1.296145,-0.261722 0.697925,0 1.283682,0.261722 0.585758,0.249258 1.009498,0.697924 0.42374,0.436202 0.660535,1.046886 0.236796,0.598221 0.236796,1.296145 0,0.697924 -0.236796,1.296145 -0.236795,0.598221 -0.660535,1.046886 -0.42374,0.436203 -1.009498,0.697925 -0.585757,0.249258 -1.283682,0.249258 -0.710387,0 -1.296145,-0.249258 z m 0.08724,-1.707422 q 0.21187,0.261722 0.51098,0.42374 0.29911,0.149555 0.697924,0.149555 0.398814,0 0.697925,-0.149555 0.29911,-0.149556 0.498517,-0.411277 0.21187,-0.261722 0.311573,-0.598221 0.112167,-0.348962 0.112167,-0.735313 0,-0.398814 -0.112167,-0.747776 -0.0997,-0.348962 -0.311573,-0.610684 -0.199407,-0.261721 -0.498517,-0.411276 -0.299111,-0.149556 -0.697925,-0.149556 -0.398814,0 -0.697924,0.149556 -0.29911,0.137092 -0.51098,0.398813 -0.199407,0.249259 -0.311573,0.598221 -0.0997,0.336499 -0.0997,0.735313 0,0.386351 0.0997,0.735313 0.112166,0.348962 0.311573,0.623147 z"
         style="font-style:normal;font-variant:normal;font-weight:bold;font-stretch:normal;font-family:'Booster Next FY';-inkscape-font-specification:'Booster Next FY Bold';fill:#ffffff;stroke-width:0.3115733"
         id="path837"
         inkscape:connector-curvature="0" />
      <path
         d="m 49.641642,77.465691 q 0,0.311573 -0.211869,0.523443 -0.21187,0.21187 -0.548369,0.21187 -0.311574,0 -0.535907,-0.199407 -0.224332,-0.21187 -0.224332,-0.535906 v -4.947784 q 0,-0.236796 0.186944,-0.448666 0.186944,-0.21187 0.585758,-0.21187 0.398813,0 0.573294,0.199407 0.174481,0.199407 0.174481,0.448666 v 0.386351 q 0.236796,-0.560832 0.735314,-0.859943 0.498517,-0.29911 1.134126,-0.29911 1.084276,0 1.682496,0.685461 0.598221,0.672999 0.598221,1.856977 v 3.190511 q 0,0.311573 -0.224333,0.523443 -0.21187,0.21187 -0.548369,0.21187 -0.324036,0 -0.548369,-0.21187 -0.21187,-0.21187 -0.21187,-0.523443 v -2.654605 q 0,-0.822553 -0.348962,-1.246293 -0.336499,-0.436203 -0.947183,-0.436203 -0.623146,0 -0.972108,0.448666 -0.348963,0.436203 -0.348963,1.271219 z"
         style="font-style:normal;font-variant:normal;font-weight:bold;font-stretch:normal;font-family:'Booster Next FY';-inkscape-font-specification:'Booster Next FY Bold';fill:#ffffff;stroke-width:0.3115733"
         id="path839"
         inkscape:connector-curvature="0" />
      <path
         d="m 59.936018,76.954711 q -0.29911,0.660535 -0.847479,1.02196 -0.535907,0.348962 -1.27122,0.348962 -0.560832,0 -1.059349,-0.224332 -0.498517,-0.236796 -0.872405,-0.660536 -0.373888,-0.42374 -0.598221,-1.02196 -0.21187,-0.610684 -0.21187,-1.35846 0,-0.747776 0.224333,-1.35846 0.236796,-0.623146 0.623147,-1.059349 0.398813,-0.436203 0.909794,-0.672998 0.523443,-0.236796 1.096738,-0.236796 0.772702,0 1.246293,0.348962 0.486054,0.336499 0.760239,0.922257 v -0.498517 q 0,-0.286648 0.21187,-0.461129 0.21187,-0.186944 0.560832,-0.186944 0.348962,0 0.548369,0.186944 0.21187,0.174481 0.21187,0.461129 v 3.751343 q 0,0.560832 0.311573,0.560832 0.186944,0 0.286647,0.162018 0.112167,0.149555 0.112167,0.436202 0,0.785165 -0.959646,0.785165 -0.623147,0 -0.909794,-0.324036 -0.286648,-0.336499 -0.361425,-0.772702 z m -2.816623,-0.523443 q 0.224333,0.249258 0.523443,0.386351 0.299111,0.124629 0.648073,0.124629 0.336499,0 0.635609,-0.124629 0.311574,-0.137093 0.535906,-0.373888 0.224333,-0.249259 0.348963,-0.598221 0.137092,-0.348962 0.137092,-0.785165 0,-0.872405 -0.461129,-1.395848 -0.448665,-0.535907 -1.196441,-0.535907 -0.772702,0 -1.208905,0.535907 -0.436202,0.535906 -0.436202,1.395848 0,0.436203 0.124629,0.785165 0.124629,0.336499 0.348962,0.585758 z"
         style="font-style:normal;font-variant:normal;font-weight:bold;font-stretch:normal;font-family:'Booster Next FY';-inkscape-font-specification:'Booster Next FY Bold';fill:#ffffff;stroke-width:0.3115733"
         id="path841"
         inkscape:connector-curvature="0" />
      <path
         d="m 64.771628,76.231861 q 0,0.249258 0.06231,0.423739 0.07478,0.162019 0.261722,0.162019 0.211869,0 0.29911,0.186944 0.08724,0.186943 0.08724,0.398813 0,0.361425 -0.224332,0.585758 -0.21187,0.21187 -0.648073,0.21187 -0.635609,0 -0.997034,-0.42374 -0.361425,-0.436202 -0.361425,-1.4457 v -5.982208 q 0,-0.311573 0.211869,-0.523443 0.21187,-0.224332 0.548369,-0.224332 0.3365,0 0.548369,0.224332 0.21187,0.21187 0.21187,0.523443 z"
         style="font-style:normal;font-variant:normal;font-weight:bold;font-stretch:normal;font-family:'Booster Next FY';-inkscape-font-specification:'Booster Next FY Bold';fill:#ffffff;stroke-width:0.3115733"
         id="path843"
         inkscape:connector-curvature="0" />
    </g>
  </g>
</svg>
