<?xml version="1.0" encoding="UTF-8" standalone="no"?>
<!-- Created with Inkscape (http://www.inkscape.org/) -->

<svg
   xmlns:dc="http://purl.org/dc/elements/1.1/"
   xmlns:cc="http://creativecommons.org/ns#"
   xmlns:rdf="http://www.w3.org/1999/02/22-rdf-syntax-ns#"
   xmlns:svg="http://www.w3.org/2000/svg"
   xmlns="http://www.w3.org/2000/svg"
   xmlns:sodipodi="http://sodipodi.sourceforge.net/DTD/sodipodi-0.dtd"
   xmlns:inkscape="http://www.inkscape.org/namespaces/inkscape"
   width="31.092747mm"
   height="41.272232mm"
   viewBox="0 0 31.092747 41.272232"
   version="1.1"
   id="svg8"
   inkscape:version="0.92.5 (2060ec1f9f, 2020-04-08)"
   sodipodi:docname="prometeo.svg">
  <defs
     id="defs2" />
  <sodipodi:namedview
     id="base"
     pagecolor="#ffffff"
     bordercolor="#666666"
     borderopacity="1.0"
     inkscape:pageopacity="0.0"
     inkscape:pageshadow="2"
     inkscape:zoom="2.3956958"
     inkscape:cx="33.271174"
     inkscape:cy="80.305444"
     inkscape:document-units="mm"
     inkscape:current-layer="svg8"
     showgrid="false"
     inkscape:window-width="1920"
     inkscape:window-height="1028"
     inkscape:window-x="0"
     inkscape:window-y="0"
     inkscape:window-maximized="1"
     inkscape:snap-others="false" />
  <metadata
     id="metadata5">
    <rdf:RDF>
      <cc:Work
         rdf:about="">
        <dc:format>image/svg+xml</dc:format>
        <dc:type
           rdf:resource="http://purl.org/dc/dcmitype/StillImage" />
        <dc:title></dc:title>
      </cc:Work>
    </rdf:RDF>
  </metadata>
  <path
     style="display:inline;fill:#ffffff;stroke:none;stroke-width:0.26458332px;stroke-linecap:butt;stroke-linejoin:miter;stroke-opacity:1"
     d="M 7.377254,4.9e-5 C 7.204132,0.346832 7.042119,0.825765 6.879943,1.156626 6.574221,1.78034 6.280931,2.754681 5.930347,3.242908 5.579766,3.731137 5.286555,2.800733 5.075252,1.966729 4.959879,1.51135 4.892222,1.064568 4.889655,0.58687 4.677673,0.914966 4.455647,1.153945 4.312026,1.587496 4.009465,2.500865 3.960893,3.703157 3.851563,4.133977 3.742233,4.5648 3.045678,3.967606 2.394912,3.572395 2.059082,3.368446 1.829027,3.262878 1.540553,3.132226 1.707656,3.434405 1.870376,3.657034 2.088727,4.034141 2.500873,4.745953 3.070338,5.544047 2.74654,5.698633 2.422745,5.853215 1.645836,5.639193 1.022275,5.571775 0.684858,5.535295 0.328449,5.499525 0,5.488445 0.330026,5.74598 0.672864,5.966566 1.015527,6.266166 1.596395,6.774034 2.277457,7.294079 2.397258,7.66306 2.517059,8.032043 2.296401,8.132751 1.937479,8.246733 1.750234,8.306193 1.313376,8.261703 1.014408,8.282243 1.399876,8.491485 1.807668,8.637926 2.114116,8.966634 2.502866,9.383629 2.681708,9.928007 2.653174,10.496114 3.234702,10.247905 3.802336,9.966223 4.338974,9.665417 4.712675,9.432494 5.101372,9.177355 5.48438,8.907766 6.092445,8.479772 6.678148,8.024961 7.148443,7.60392 7.629022,7.140242 7.977314,6.722599 8.144475,6.430337 l -0.0055,0.01309 C 8.234955,6.253224 8.382188,6.095547 8.563602,5.860475 8.745017,5.625405 8.961643,5.321743 9.187643,4.894891 9.545143,4.219672 9.89313,3.088851 10.156703,1.595867 9.853179,2.035186 9.588521,2.516939 9.270222,2.901604 8.703761,3.586181 8.212325,4.207733 7.966695,4.14258 7.721062,4.07743 7.606629,3.052779 7.469395,1.980953 7.381505,1.294501 7.396075,0.656486 7.377155,0 Z M 8.062622,7.400842 C 7.910217,7.566248 7.753448,7.732034 7.557683,7.910349 c -0.0016,0.0014 -0.0034,0.0028 -0.005,0.0041 C 7.221044,8.237245 6.833028,8.576116 6.391482,8.91938 5.552139,9.571895 4.53379,10.225014 3.417883,10.75528 c 0.415544,0.02449 0.799683,0.02387 1.236739,0.09782 0.800525,0.135457 1.538197,0.32457 1.972628,0.681801 l 0.04897,0.05454 3.410882,5.106765 c 0.03742,0.006 0.06734,0.0116 0.0885,0.0126 l 0.0028,-0.0163 0.0023,-0.0162 c 0.172531,-0.17672 0.29235,-0.38875 0.374316,-0.60782 l -9.6e-5,-5.2e-4 c 0.245904,-0.657642 0.155109,-1.376072 0.155109,-1.376072 l 0.0017,-0.02501 0.003,-0.07202 c 0.04362,-0.178141 0.08767,-0.352814 0.116359,-0.524942 l -2.384278,-3.737264 0.01082,0.01587 c -0.04609,-0.06103 -0.05281,-0.09522 -0.067,-0.137916 -0.01421,-0.04268 -0.02644,-0.08937 -0.03896,-0.142571 C 8.326682,9.961625 8.301872,9.829111 8.276822,9.6746 8.226872,9.36555 8.177082,8.971303 8.137564,8.562597 8.099174,8.165613 8.071594,7.758404 8.062694,7.400862 Z m 2.50323,4.69957 c -0.06065,0.01013 -0.115176,0.02556 -0.181172,0.03767 l 0.196923,0.29784 c 0.513365,0.391734 0.735866,0.824154 0.77429,1.226941 0.01316,0.137901 0.004,0.266131 -0.0115,0.389951 l 9.6e-5,5.2e-4 c -6.8e-5,0.0011 -3.96e-4,0.0022 -4.78e-4,0.0032 -0.01338,0.105246 -0.03245,0.198002 -0.05528,0.292411 -0.02744,0.120332 -0.05657,0.233881 -0.08228,0.336819 0.01685,0.10969 0.195151,1.403305 -0.64245,2.302212 -0.0078,0.0334 0.01353,0.0659 -0.0079,0.0934 -0.0048,0.006 -0.01006,0.01 -0.01502,0.0154 -0.0019,0.004 -0.0029,0.009 -0.0066,0.0128 -0.01147,0.0119 -0.0227,0.019 -0.03417,0.0284 -0.0026,0.002 -0.0051,0.005 -0.0077,0.007 -0.07645,0.059 -0.152373,0.0704 -0.219143,0.0768 -0.158323,0.0141 -0.322133,-0.02 -0.510105,-0.0844 -0.375946,-0.12881 -0.829632,-0.39694 -1.111799,-0.85505 l -0.01532,-0.233651 c 0.08162,-0.18299 0.07737,-0.306018 -0.04404,-0.528414 -0.0929,-0.170195 -0.345996,-0.425815 -0.609121,-0.6857 -0.257906,0.274385 -0.526762,0.612428 -0.697298,0.998565 -0.205536,0.46538 -0.268716,0.93418 -0.199276,1.12568 l 0.0063,0.0225 c 0.376369,1.49175 2.225499,2.4605 2.965059,2.80489 l 2.39936,0.20409 0.0991,0.05 0.06351,0.0308 c 0,0 1.207729,1.31816 2.492298,2.65524 0.642283,0.66854 1.303864,1.34188 1.840466,1.85499 0.2683,0.25656 0.505774,0.47315 0.69016,0.62659 0.0922,0.0767 0.17165,0.13754 0.231014,0.17803 0.05937,0.0405 0.108057,0.058 0.08649,0.0529 l 0.133922,0.0877 9.6e-5,5.2e-4 c 0.02497,0.0319 0.07556,0.0832 0.114711,0.12595 0.03409,0.0372 0.05618,0.0651 0.100152,0.10972 0.0013,10e-4 0.0016,0.002 0.0026,0.003 0.09309,0.0944 0.206232,0.20349 0.337699,0.32596 0.133553,0.1244 0.285252,0.26166 0.45062,0.40809 0.138191,0.12236 0.29089,0.25412 0.446263,0.38734 0.03056,0.0262 0.05656,0.0498 0.08767,0.0763 0.01447,0.0123 0.02665,0.0231 0.04124,0.0355 0.778734,0.66248 1.735241,1.44017 2.663254,2.18117 1.803212,1.43983 3.402045,2.66508 3.49715,2.73811 0.206821,-0.0241 0.693882,-0.22507 1.261145,-0.61192 0.59353,-0.40475 1.275562,-0.96659 1.903631,-1.57724 0.628061,-0.61065 1.203699,-1.27314 1.591944,-1.87331 0.382437,-0.5912 0.54695,-1.11428 0.489078,-1.41729 -0.0029,0.001 -0.003,0.002 -0.04716,-0.0391 -0.06223,-0.0573 -0.155327,-0.13612 -0.274279,-0.22732 -0.237908,-0.18239 -0.575873,-0.41896 -0.977097,-0.68918 -0.802443,-0.54042 -1.863922,-1.2128 -2.940457,-1.86405 -1.076535,-0.65123 -2.167995,-1.28261 -3.028658,-1.73844 -0.430332,-0.22791 -0.803788,-0.411 -1.082906,-0.53089 -0.139558,-0.0599 -0.255173,-0.10405 -0.337458,-0.12841 -0.0823,-0.0245 -0.143642,-0.0149 -0.09062,-0.0269 l -0.292008,-0.17254 c 0.01207,0.04 -0.04373,-0.0614 -0.167373,-0.16352 -0.123644,-0.1021 -0.305075,-0.22728 -0.523939,-0.36406 -0.437727,-0.27354 -1.026413,-0.59345 -1.648416,-0.90093 -1.244007,-0.61501 -2.655445,-1.18962 -3.184301,-1.29243 l -0.200821,-0.23931 c -0.0083,-0.36675 -0.122058,-1.48159 -0.277848,-2.524725 -0.07786,-0.521576 -0.167659,-1.028958 -0.257689,-1.42592 -0.04502,-0.198483 -0.09066,-0.369492 -0.133101,-0.495665 -0.04244,-0.126166 -0.09477,-0.214048 -0.08809,-0.206539 l -0.06047,-0.13387 c 0.0039,0.03111 -0.02167,-0.0433 -0.106736,-0.11691 -0.08507,-0.07361 -0.212248,-0.154633 -0.343991,-0.214959 -0.131741,-0.06033 -0.270885,-0.100829 -0.371885,-0.109961 -0.101006,-0.0092 -0.141508,0.01455 -0.143561,0.01654 l -0.393962,-0.05595 c -0.08085,-0.144499 -0.312753,-0.28956 -0.559495,-0.351714 -0.123371,-0.03108 -0.247257,-0.0433 -0.342838,-0.03807 -0.09558,0.0052 -0.157693,0.03648 -0.159587,0.03788 l -0.374251,-0.08009 c 0.0061,0.01134 -0.119792,-0.08453 -0.297797,-0.0958 -0.178004,-0.01126 -0.373404,0.04037 -0.469388,0.124569 l -0.336829,-0.0056 c -0.159253,-0.150689 -0.474989,-0.260757 -0.7846,-0.290149 -0.09042,-0.0086 -0.157259,-0.0035 -0.217912,0.0066 z m 2.804168,9.510734 9.14675,13.69532 c 0.270252,0.20481 0.686741,0.21898 0.980189,0.0575 0.295443,-0.16261 0.474834,-0.44067 0.310198,-0.94911 l -4.524807,-7.0939 c -0.542301,-0.46291 -0.982142,-0.85589 -1.279807,-1.16139 -0.102196,-0.10417 -0.188897,-0.1987 -0.256548,-0.28209 -0.05086,-0.0239 -0.103188,-0.0434 -0.154232,-0.0782 -0.05774,-0.0394 -0.126028,-0.0949 -0.193631,-0.1492 -0.02671,-0.0212 -0.04821,-0.0349 -0.07648,-0.0584 -0.19982,-0.16628 -0.442651,-0.38704 -0.71569,-0.64814 -0.5066,-0.48444 -1.115513,-1.1059 -1.715726,-1.7288 -0.04652,-0.0483 -0.09241,-0.0942 -0.138791,-0.14252 -3.56e-4,-4.7e-4 -3.46e-4,-4.7e-4 -7.13e-4,-9.4e-4 -0.439092,-0.45706 -0.692705,-0.72746 -0.926111,-0.97923 -0.151218,-0.16048 -0.320433,-0.3375 -0.454618,-0.48092 z"
     id="path21-5"
     inkscape:connector-curvature="0"
     sodipodi:nodetypes="cccccccscccccccccccccccccsccccccccsccccccccccccccccccccccccccccccccccccccccccccccccccccccccccccscccccccccccccsccccccccccccccccccccccccccsccccccccccccccccccccc" />
  <g
     inkscape:label="Layer 1"
     inkscape:groupmode="layer"
     id="layer1"
     style="display:inline"
     transform="translate(-44.255223,-83.812254)" />
  <g
     aria-label="Prometeo"
     style="font-style:normal;font-weight:normal;font-size:6.99495649px;line-height:1.25;font-family:sans-serif;letter-spacing:0px;word-spacing:0px;fill:#ffffff;fill-opacity:1;stroke:none;stroke-width:0.17487392"
     id="text975">
    <path
       d="m 0.91276663,40.7616 q 0,0.195858 -0.12590921,0.321768 -0.11891426,0.118914 -0.31477304,0.118914 -0.19585879,0 -0.321768,-0.118914 Q 0.03140212,40.957458 0.03140212,40.7616 v -3.945156 q 0,-0.195859 0.11891426,-0.314773 0.12590921,-0.125909 0.321768,-0.125909 H 1.7871362 q 0.4196974,0 0.7484603,0.118914 0.335758,0.118914 0.5665915,0.335758 0.2378285,0.216844 0.3637378,0.524622 0.1259092,0.307778 0.1259092,0.692501 0,0.391717 -0.1329042,0.70649 -0.1259092,0.307778 -0.3707327,0.524622 -0.2378285,0.209849 -0.5735864,0.328763 -0.3357579,0.111919 -0.7554553,0.111919 H 0.91276663 Z m 0,-1.825684 H 1.7591564 q 0.4616671,0 0.6925007,-0.237828 0.2378285,-0.244824 0.2378285,-0.650531 0,-0.433688 -0.2448235,-0.657526 Q 2.2068336,37.159197 1.7451665,37.159197 H 0.91276663 Z"
       style="font-style:normal;font-variant:normal;font-weight:bold;font-stretch:normal;font-family:'Booster Next FY';-inkscape-font-specification:'Booster Next FY Bold';stroke-width:0.17487392;fill:#ffffff"
       id="path977"
       inkscape:connector-curvature="0" />
    <path
       d="m 5.2006655,40.78958 q 0,0.188863 -0.1259092,0.300783 -0.1259093,0.111919 -0.3007832,0.111919 -0.1818688,0 -0.307778,-0.111919 -0.1189143,-0.11192 -0.1189143,-0.300783 v -2.763008 q 0,-0.160884 0.097929,-0.272804 0.1049243,-0.111919 0.3007831,-0.111919 0.4057075,0 0.4057075,0.384723 V 38.2644 Q 5.2985949,37.970612 5.5574083,37.774753 5.8232166,37.5719 6.1939493,37.5719 q 0.2448235,0 0.3427529,0.111919 0.1049243,0.111919 0.1049243,0.265808 0,0.174874 -0.097929,0.293788 -0.097929,0.118915 -0.314773,0.118915 -0.1958588,0 -0.3847226,0.06995 -0.1818689,0.06296 -0.328763,0.195859 -0.1398991,0.132904 -0.2308335,0.342753 -0.083939,0.202854 -0.083939,0.482652 z"
       style="font-style:normal;font-variant:normal;font-weight:bold;font-stretch:normal;font-family:'Booster Next FY';-inkscape-font-specification:'Booster Next FY Bold';stroke-width:0.17487392;fill:#ffffff"
       id="path979"
       inkscape:connector-curvature="0" />
    <path
       d="M 7.8377469,41.132332 Q 7.5089839,40.985438 7.2711554,40.740615 7.0403218,40.488796 6.9074176,40.153038 6.7745135,39.817281 6.7745135,39.425563 q 0,-0.391718 0.1329041,-0.727475 0.1329042,-0.342753 0.3637378,-0.587577 0.2378285,-0.251818 0.5665915,-0.391717 0.3287629,-0.146894 0.7274754,-0.146894 0.3917176,0 0.7204806,0.146894 0.3287629,0.139899 0.5665914,0.391717 0.2378287,0.244824 0.3707327,0.587577 0.132904,0.335757 0.132904,0.727475 0,0.391718 -0.132904,0.727475 -0.132904,0.335758 -0.3707327,0.587577 -0.2378285,0.244823 -0.5665914,0.391717 -0.328763,0.1399 -0.7204806,0.1399 -0.3987125,0 -0.7274754,-0.1399 z m 0.048965,-0.958309 q 0.1189142,0.146894 0.2867932,0.237829 0.1678789,0.08394 0.3917175,0.08394 0.2238386,0 0.3917176,-0.08394 0.167879,-0.08394 0.2797983,-0.230834 0.1189142,-0.146894 0.1748739,-0.335758 0.062955,-0.195858 0.062955,-0.412702 0,-0.223839 -0.062955,-0.419697 -0.05596,-0.195859 -0.1748739,-0.342753 -0.1119193,-0.146894 -0.2797983,-0.230834 -0.167879,-0.08394 -0.3917176,-0.08394 -0.2238386,0 -0.3917175,0.08394 -0.167879,0.07695 -0.2867932,0.223839 -0.1119193,0.139899 -0.174874,0.335758 -0.05596,0.188863 -0.05596,0.412702 0,0.216844 0.05596,0.412703 0.062955,0.195858 0.174874,0.349747 z"
       style="font-style:normal;font-variant:normal;font-weight:bold;font-stretch:normal;font-family:'Booster Next FY';-inkscape-font-specification:'Booster Next FY Bold';stroke-width:0.17487392;fill:#ffffff"
       id="path981"
       inkscape:connector-curvature="0" />
    <path
       d="m 11.971759,40.78958 q 0,0.174873 -0.118914,0.293788 -0.118915,0.118914 -0.307778,0.118914 -0.181869,0 -0.307779,-0.111919 -0.118914,-0.118915 -0.118914,-0.300783 v -2.728034 q 0,-0.188863 0.118914,-0.300783 0.118915,-0.118914 0.328763,-0.118914 0.174874,0 0.286794,0.09793 0.118914,0.09793 0.118914,0.286794 v 0.195858 q 0.111919,-0.265808 0.335758,-0.454672 0.223838,-0.195858 0.601566,-0.195858 0.356743,0 0.608561,0.181868 0.251819,0.174874 0.370733,0.510632 0.118914,-0.321768 0.335758,-0.503637 0.223838,-0.188863 0.594571,-0.188863 0.580582,0 0.895355,0.370732 0.314773,0.363738 0.314773,1.021264 v 1.825684 q 0,0.174873 -0.12591,0.293788 -0.118914,0.118914 -0.307778,0.118914 -0.188864,0 -0.307778,-0.118914 -0.118914,-0.118915 -0.118914,-0.293788 v -1.74874 q 0,-0.328763 -0.160884,-0.503636 -0.153889,-0.181869 -0.426692,-0.181869 -0.272804,0 -0.426693,0.181869 -0.153889,0.174873 -0.153889,0.503636 v 1.741745 q 0,0.181868 -0.118914,0.300783 -0.118914,0.118914 -0.307778,0.118914 -0.188864,0 -0.314773,-0.118914 -0.118914,-0.118915 -0.118914,-0.300783 V 39.04084 q 0,-0.328763 -0.153889,-0.503636 -0.15389,-0.181869 -0.433688,-0.181869 -0.272803,0 -0.426692,0.181869 -0.153889,0.174873 -0.153889,0.503636 z"
       style="font-style:normal;font-variant:normal;font-weight:bold;font-stretch:normal;font-family:'Booster Next FY';-inkscape-font-specification:'Booster Next FY Bold';stroke-width:0.17487392;fill:#ffffff"
       id="path983"
       inkscape:connector-curvature="0" />
    <path
       d="m 17.609692,39.628417 q 0.05596,0.419697 0.307778,0.643536 0.258813,0.223838 0.643536,0.223838 0.146894,0 0.272803,-0.02798 0.132904,-0.03498 0.237829,-0.08394 0.104924,-0.04896 0.181869,-0.09793 0.08394,-0.05596 0.132904,-0.09094 0.125909,-0.05596 0.188864,-0.05596 0.160884,0 0.265808,0.118914 0.111919,0.118914 0.111919,0.265808 0,0.104925 -0.05596,0.195859 -0.05596,0.08394 -0.12591,0.139899 -0.202853,0.167879 -0.524621,0.293788 -0.321768,0.118915 -0.755456,0.118915 -0.384722,0 -0.70649,-0.132905 -0.321768,-0.139899 -0.552602,-0.384722 -0.230833,-0.244824 -0.363738,-0.580582 -0.125909,-0.335758 -0.125909,-0.73447 0,-0.384723 0.132904,-0.727476 0.132905,-0.342752 0.363738,-0.594571 0.237829,-0.251818 0.559597,-0.398712 0.321768,-0.146894 0.6925,-0.146894 0.363738,0 0.657526,0.132904 0.300783,0.125909 0.510632,0.342753 0.209849,0.209848 0.321768,0.489647 0.118914,0.279798 0.118914,0.580581 0,0.223839 -0.07694,0.370733 -0.06995,0.139899 -0.307778,0.139899 z m 1.65081,-0.510632 q 0.007,-0.132904 -0.04197,-0.265808 -0.04896,-0.1399 -0.153889,-0.251819 -0.09793,-0.111919 -0.244824,-0.174874 -0.146894,-0.06995 -0.335758,-0.06995 -0.335758,0 -0.566591,0.202853 -0.230834,0.195859 -0.300783,0.559597 z"
       style="font-style:normal;font-variant:normal;font-weight:bold;font-stretch:normal;font-family:'Booster Next FY';-inkscape-font-specification:'Booster Next FY Bold';stroke-width:0.17487392;fill:#ffffff"
       id="path985"
       inkscape:connector-curvature="0" />
    <path
       d="m 22.016512,39.999149 q 0,0.496642 0.370733,0.496642 0.174874,0 0.258813,-0.04197 0.08394,-0.04897 0.167879,-0.04897 0.146894,0 0.223839,0.111919 0.07694,0.11192 0.07694,0.216844 0,0.258813 -0.174874,0.370733 -0.146894,0.09793 -0.321768,0.132904 -0.167879,0.03498 -0.391717,0.03498 -0.307778,0 -0.517627,-0.09793 -0.202854,-0.104924 -0.328763,-0.272803 -0.118914,-0.167879 -0.174874,-0.384723 -0.04896,-0.223838 -0.04896,-0.454672 v -1.657805 h -0.195859 q -0.167878,0 -0.279798,-0.09793 -0.104924,-0.104924 -0.104924,-0.279798 0,-0.174874 0.111919,-0.279799 0.111919,-0.104924 0.272803,-0.104924 h 0.195859 V 37.13821 q 0,-0.174874 0.118915,-0.293788 0.125909,-0.118914 0.314773,-0.118914 0.181868,0 0.300783,0.118914 0.125909,0.118914 0.125909,0.293788 v 0.503637 h 0.587576 q 0.160884,0 0.272804,0.104924 0.111919,0.104925 0.111919,0.279799 0,0.174874 -0.111919,0.279798 -0.11192,0.09793 -0.272804,0.09793 h -0.587576 z"
       style="font-style:normal;font-variant:normal;font-weight:bold;font-stretch:normal;font-family:'Booster Next FY';-inkscape-font-specification:'Booster Next FY Bold';stroke-width:0.17487392;fill:#ffffff"
       id="path987"
       inkscape:connector-curvature="0" />
    <path
       d="m 24.359812,39.628417 q 0.05596,0.419697 0.307778,0.643536 0.258813,0.223838 0.643536,0.223838 0.146894,0 0.272803,-0.02798 0.132905,-0.03498 0.237829,-0.08394 0.104924,-0.04896 0.181869,-0.09793 0.08394,-0.05596 0.132904,-0.09094 0.125909,-0.05596 0.188864,-0.05596 0.160884,0 0.265808,0.118914 0.111919,0.118914 0.111919,0.265808 0,0.104925 -0.05596,0.195859 -0.05596,0.08394 -0.125909,0.139899 -0.202854,0.167879 -0.524622,0.293788 -0.321768,0.118915 -0.755456,0.118915 -0.384722,0 -0.70649,-0.132905 -0.321768,-0.139899 -0.552602,-0.384722 -0.230833,-0.244824 -0.363737,-0.580582 -0.12591,-0.335758 -0.12591,-0.73447 0,-0.384723 0.132905,-0.727476 0.132904,-0.342752 0.363737,-0.594571 0.237829,-0.251818 0.559597,-0.398712 0.321768,-0.146894 0.6925,-0.146894 0.363738,0 0.657526,0.132904 0.300784,0.125909 0.510632,0.342753 0.209849,0.209848 0.321768,0.489647 0.118914,0.279798 0.118914,0.580581 0,0.223839 -0.07694,0.370733 -0.06995,0.139899 -0.307778,0.139899 z m 1.65081,-0.510632 q 0.007,-0.132904 -0.04197,-0.265808 -0.04896,-0.1399 -0.153889,-0.251819 -0.09793,-0.111919 -0.244824,-0.174874 -0.146894,-0.06995 -0.335757,-0.06995 -0.335758,0 -0.566592,0.202853 -0.230834,0.195859 -0.300783,0.559597 z"
       style="font-style:normal;font-variant:normal;font-weight:bold;font-stretch:normal;font-family:'Booster Next FY';-inkscape-font-specification:'Booster Next FY Bold';stroke-width:0.17487392;fill:#ffffff"
       id="path989"
       inkscape:connector-curvature="0" />
    <path
       d="m 28.500826,41.132332 q -0.328763,-0.146894 -0.566592,-0.391717 -0.230833,-0.251819 -0.363738,-0.587577 -0.132904,-0.335757 -0.132904,-0.727475 0,-0.391718 0.132904,-0.727475 0.132905,-0.342753 0.363738,-0.587577 0.237829,-0.251818 0.566592,-0.391717 0.328763,-0.146894 0.727475,-0.146894 0.391718,0 0.720481,0.146894 0.328763,0.139899 0.566591,0.391717 0.237829,0.244824 0.370733,0.587577 0.132904,0.335757 0.132904,0.727475 0,0.391718 -0.132904,0.727475 -0.132904,0.335758 -0.370733,0.587577 -0.237828,0.244823 -0.566591,0.391717 -0.328763,0.1399 -0.720481,0.1399 -0.398712,0 -0.727475,-0.1399 z m 0.04896,-0.958309 q 0.118915,0.146894 0.286794,0.237829 0.167879,0.08394 0.391717,0.08394 0.223839,0 0.391718,-0.08394 0.167879,-0.08394 0.279798,-0.230834 0.118914,-0.146894 0.174874,-0.335758 0.06295,-0.195858 0.06295,-0.412702 0,-0.223839 -0.06295,-0.419697 -0.05596,-0.195859 -0.174874,-0.342753 -0.111919,-0.146894 -0.279798,-0.230834 -0.167879,-0.08394 -0.391718,-0.08394 -0.223838,0 -0.391717,0.08394 -0.167879,0.07695 -0.286794,0.223839 -0.111919,0.139899 -0.174874,0.335758 -0.05596,0.188863 -0.05596,0.412702 0,0.216844 0.05596,0.412703 0.06296,0.195858 0.174874,0.349747 z"
       style="font-style:normal;font-variant:normal;font-weight:bold;font-stretch:normal;font-family:'Booster Next FY';-inkscape-font-specification:'Booster Next FY Bold';stroke-width:0.17487392;fill:#ffffff"
       id="path991"
       inkscape:connector-curvature="0" />
  </g>
</svg>
