<?xml version="1.0" encoding="UTF-8" standalone="no"?>
<!-- Created with Inkscape (http://www.inkscape.org/) -->

<svg
   xmlns:dc="http://purl.org/dc/elements/1.1/"
   xmlns:cc="http://creativecommons.org/ns#"
   xmlns:rdf="http://www.w3.org/1999/02/22-rdf-syntax-ns#"
   xmlns:svg="http://www.w3.org/2000/svg"
   xmlns="http://www.w3.org/2000/svg"
   xmlns:sodipodi="http://sodipodi.sourceforge.net/DTD/sodipodi-0.dtd"
   xmlns:inkscape="http://www.inkscape.org/namespaces/inkscape"
   width="201.1259mm"
   height="309.38635mm"
   viewBox="0 0 201.1259 309.38635"
   version="1.1"
   id="svg8"
   inkscape:version="0.92.5 (2060ec1f9f, 2020-04-08)"
   sodipodi:docname="prometeo2.svg">
  <defs
     id="defs2" />
  <sodipodi:namedview
     id="base"
     pagecolor="#ffffff"
     bordercolor="#666666"
     borderopacity="1.0"
     inkscape:pageopacity="0.0"
     inkscape:pageshadow="2"
     inkscape:zoom="0.41632552"
     inkscape:cx="156.26556"
     inkscape:cy="587.90069"
     inkscape:document-units="mm"
     inkscape:current-layer="layer1"
     showgrid="false"
     inkscape:window-width="1920"
     inkscape:window-height="1028"
     inkscape:window-x="0"
     inkscape:window-y="0"
     inkscape:window-maximized="1" />
  <metadata
     id="metadata5">
    <rdf:RDF>
      <cc:Work
         rdf:about="">
        <dc:format>image/svg+xml</dc:format>
        <dc:type
           rdf:resource="http://purl.org/dc/dcmitype/StillImage" />
        <dc:title></dc:title>
      </cc:Work>
    </rdf:RDF>
  </metadata>
  <g
     inkscape:label="Layer 1"
     inkscape:groupmode="layer"
     id="layer1"
     transform="translate(93.538128,25.730862)"
     style="display:inline">
    <path
       style="display:inline;fill:#ffffff;fill-opacity:1;stroke:none;stroke-width:0.49388888;stroke-linecap:round;stroke-linejoin:bevel;stroke-miterlimit:4;stroke-dasharray:none;stroke-opacity:1"
       d="M 80.590558,-25.730862 C 62.452003,-8.1373454 45.112984,10.614009 31.52759,32.01624 c -5.097375,13.758907 -3.732953,29.010654 -2.685811,43.368689 1.673801,14.281023 4.281958,29.274511 0.0537,43.325111 -5.05007,2.51411 -7.520738,9.13985 -0.42206,10.86009 11.600624,3.77317 10.67935,18.78081 4.088373,26.61323 -0.679085,3.48408 -1.28351,8.49757 0.316931,12.73149 5.160939,13.07348 16.108587,-1.23904 22.093126,-7.28029 11.874413,-13.6424 11.400915,-33.15532 12.011131,-50.1773 C 66.429088,90.039173 68.27207,68.342049 73.195127,47.471518 77.369228,27.945765 94.325368,11.597505 91.448254,-9.432068 90.234777,-16.090372 85.857085,-21.694202 80.590558,-25.730862 Z m -6.841442,4.182173 C 53.379271,-3.0886467 35.118515,17.641851 17.755652,38.900629 9.551135,48.612528 9.9633479,62.345403 14.97962,73.392289 c 2.900715,9.086082 4.849408,18.106487 7.748847,27.134541 0.742749,6.06068 -0.974524,17.67378 2.432521,20.37754 C 31.558552,112.0823 28.90436,99.968031 28.741412,89.706304 26.598276,71.16197 23.944349,51.930821 28.922466,33.60212 40.525165,12.916392 57.241428,-4.6508197 73.749116,-21.548689 Z M -86.2375,62.443082 c -2.935601,1.835443 3.032659,12.570933 -3.602363,5.695767 -7.713307,-11.016136 0.522998,7.134789 4.551144,8.689919 11.194342,1.579917 2.794626,16.509156 6.611483,24.521502 2.628503,6.35372 4.633422,12.92083 5.674251,20.122 2.3965,11.38338 9.7436,21.52403 16.464448,31.26867 0.828376,6.08524 6.230564,15.70804 12.08007,20.73955 9.562463,11.42325 19.165057,22.86241 27.96503,34.88341 11.2353694,0.56493 21.4907251,7.58596 32.731924,7.32033 8.404785,-2.91246 20.480345,-5.93771 21.03692,-16.74225 2.987299,-9.77538 7.041628,-18.67006 -3.208624,-25.54759 -2.822376,-2.17607 -4.11036,-6.20001 -4.304646,-9.58598 2.149276,-1.55771 1.680408,-5.291 -0.990219,-5.94342 0.145232,-4.14216 1.097325,-6.20848 -1.898609,-11.5318 0.321165,-5.73784 0.09666,-12.81674 -3.261594,-17.99796 -3.401544,-4.10706 -0.915495,-9.61178 -2.106327,-14.56393 -0.636968,-3.47306 -0.665332,-4.97814 -0.119639,-8.1814 C 20.497222,91.275116 11.870494,78.696454 4.2870723,67.177263 c -10.1084378,1.609 -21.6771643,-0.985422 -31.5272733,4.521687 -3.001719,2.883122 -15.159656,-7.770069 -7.935976,-0.344458 1.201542,7.967083 -15.504308,-5.58146 -6.454875,3.359782 3.668225,8.54841 -19.727704,-3.478215 -8.746239,3.799253 12.336698,7.913536 -22.880255,-0.488725 -4.648589,5.546243 11.200463,0.967219 -1.360424,2.331966 -2.818172,6.48662 6.882881,-0.439129 12.924671,-3.480506 19.89854,-4.527349 10.012574,-0.168679 20.212843,-0.761611 29.9087691,2.193674 3.9979784,-0.468556 1.3103886,15.159375 5.8683736,19.267545 0.9625356,4.03334 -4.6139206,7.19751 -5.6162654,11.30369 -1.4404842,1.4744 -4.5717993,2.77779 -5.3857633,-0.0997 -2.194615,-3.9461 1.667984,-8.37362 -0.926473,-12.60741 -2.613273,-5.4775 -9.539518,-5.55992 -13.119682,-9.905133 -1.606169,-0.07877 -3.475728,1.887305 -3.475262,2.978266 -1.020474,1.871757 -5.019572,1.959177 -7.059041,3.803417 -3.305019,2.44244 -3.408479,8.12711 -2.160016,11.43394 2.146446,3.16166 8.344429,2.60135 8.169201,7.59493 -0.833967,4.57837 -6.320541,3.14093 -9.251664,1.58096 -11.387352,1.5426 -7.891359,-12.46041 -14.166392,-18.55826 -5.984505,-6.566962 -5.396018,-16.188135 -9.996787,-23.700754 -0.679214,-4.795869 18.414516,-6.681017 12.462807,-9.265584 -4.43593,3.403423 -14.683441,1.904937 -13.443911,-5.096899 -1.389406,-6.693886 -0.232732,11.609554 -7.731169,4.456385 -1.670564,-3.191695 -4.301308,-14.071031 -3.582582,-4.146274 0.253305,11.206686 -8.942465,-0.0842 -8.786131,-4.808752 z m -7.19801,1.965256 c -0.240855,-0.660977 0.02058,0.298339 0,0 z m 13.76195,15.877066 -0.01447,0.07441 z m 21.743891,10.285161 c -0.493077,0.124431 0.132697,0.04931 0,0 z m 13.186119,0.929452 c -4.560158,0.754993 -7.340285,3.826337 -6.707369,4.347108 0.647926,0.53312 4.670038,-4.181713 6.35406,-0.797765 1.417778,5.36916 1.550033,16.89457 6.358771,6.44302 3.673266,-2.628059 10.228935,-2.751408 3.084955,-5.584209 -2.348032,-2.308373 -5.539809,-4.747765 -9.090417,-4.408154 z m -2.560821,3.345969 c -6.472505,1.208002 5.664132,2.296909 0,0 z m 35.754819,14.183404 c 1.125553,3.35889 -2.452383,7.03986 0.699127,9.60202 3.0003006,-4.50602 9.3850589,-7.65315 -0.699127,-9.60202 z m -64.622413,0.20308 c -0.183603,-0.11866 -0.09001,0.20557 0,0 z m 33.308411,-0.0198 c -9.18836,-0.51605 2.924596,6.63519 0,0 z m -7.507403,1.0234 c 2.647291,5.69723 10.872459,16.82915 16.852725,11.22101 -1.180846,-4.64413 -8.188986,-2.23313 -8.765008,-7.75932 -2.909972,-0.48349 -5.48232,-2.21039 -8.087717,-3.46169 z m 76.982899,20.52691 c 4.042219,6.1296 0.09952,13.66733 3.408063,19.8619 -0.375412,12.9888 9.38675,-9.20275 4.361117,-13.9581 -1.471065,-3.10498 -4.650904,-4.85629 -7.76918,-5.9038 z m -74.888452,41.37474 c -9.784815,0.9701 -21.826293,9.7254 -18.24419,20.78932 9.960681,15.45485 22.244791,29.49977 33.220019,44.31731 11.261731,7.65945 6.975473,-12.712 0.962777,-15.74427 -8.093819,-3.91517 -11.889431,-12.96677 -17.550765,-19.6255 -6.791595,-3.94447 -10.646214,-15.83285 -4.332007,-22.59803 1.5806,-4.93788 13.860002,-2.04934 5.944166,-7.13883 z m 2.544548,4.90771 c -11.497762,-0.002 -13.07511,18.08961 -3.902604,22.10459 5.842733,7.53881 9.96728,17.20246 19.035014,21.4514 4.551264,2.96857 5.259615,17.68004 8.713771,5.57583 10.279751,-9.15417 1.194523,-22.15882 -6.298784,-29.90386 -5.893279,-5.94207 -10.152491,-15.8083 -17.547397,-19.22796 z"
       id="path826-9"
       inkscape:connector-curvature="0"
       sodipodi:nodetypes="cccccccccccccccccccccccccccccccccccccccccccccccccccccccccccccccccccccccscccccccccccccccccccccccccccccccccc" />
    <path
       style="display:inline;fill:#ffffff;fill-opacity:1;stroke:none;stroke-width:0.26458332px;stroke-linecap:butt;stroke-linejoin:miter;stroke-opacity:1"
       d="m 107.58777,14.032426 c -5.37695,1.227372 -18.387471,0.861421 -18.797525,3.755474 6.27215,-1.220222 12.519155,-2.566828 18.797525,-3.755474 z m -75.841247,4.069715 c -31.79333204,1.814445 -65.321613,3.631478 -93.379856,20.367625 -8.635622,6.512492 -21.044414,13.071767 -20.653929,25.519026 2.706506,4.326973 3.933854,-9.884268 7.501774,-1.964421 2.992701,8.045108 6.571755,-0.567529 10.137385,-1.014967 1.347328,3.757251 3.272964,11.046144 6.52122,3.616224 17.474994,-19.14662 43.603791,-26.409993 68.276752,-30.811002 9.8157,0.947249 16.030094,-7.455629 20.72795,-14.692319 z M -83.119528,79.668322 c 1.237919,33.179508 12.201161,64.918588 15.800855,97.786318 0.292278,-12.99645 -1.916099,-25.89696 -2.592218,-38.85294 -2.671556,-7.81779 -4.196467,-15.90873 -6.314612,-23.9291 -2.068324,-8.40671 -5.854204,-16.640553 -4.331708,-25.482281 0.09485,-3.338443 -0.655944,-6.737182 -2.562317,-9.521997 z"
       id="path1033"
       inkscape:connector-curvature="0" />
    <g
       aria-label="Prometeo"
       style="font-style:normal;font-weight:normal;font-size:44.67156982px;line-height:1.25;font-family:sans-serif;letter-spacing:0px;word-spacing:0px;fill:#ffffff;fill-opacity:1;stroke:none;stroke-width:1.1167891"
       id="text1163">
      <path
         d="m -84.896631,280.39446 q 0,1.25081 -0.804088,2.05489 -0.759417,0.75942 -2.010221,0.75942 -1.250804,0 -2.054892,-0.75942 -0.759417,-0.80408 -0.759417,-2.05489 V 255.1997 q 0,-1.25081 0.759417,-2.01022 0.804088,-0.80409 2.054892,-0.80409 h 8.398255 q 2.680294,0 4.779858,0.75941 2.144236,0.75942 3.618397,2.14424 1.518834,1.38482 2.322922,3.35037 0.804088,1.96555 0.804088,4.42248 0,2.50161 -0.84876,4.51183 -0.804088,1.96555 -2.367593,3.35037 -1.518833,1.34015 -3.663068,2.09956 -2.144236,0.71475 -4.82453,0.71475 h -5.40526 z m 0,-11.65928 h 5.40526 q 2.948324,0 4.422485,-1.51883 1.518834,-1.56351 1.518834,-4.15446 0,-2.76963 -1.563505,-4.19912 -1.518834,-1.47417 -4.467157,-1.47417 h -5.315917 z"
         style="font-style:normal;font-variant:normal;font-weight:bold;font-stretch:normal;line-height:0;font-family:'Booster Next FY';-inkscape-font-specification:'Booster Next FY Bold';writing-mode:lr-tb;direction:ltr;fill:#ffffff;fill-opacity:1;stroke-width:1.1167891"
         id="path1179"
         inkscape:connector-curvature="0" />
      <path
         d="m -57.51302,280.57315 q 0,1.20613 -0.804088,1.92088 -0.804089,0.71474 -1.920878,0.71474 -1.161461,0 -1.965549,-0.71474 -0.759417,-0.71475 -0.759417,-1.92088 v -17.64527 q 0,-1.02745 0.625402,-1.74219 0.670074,-0.71475 1.920878,-0.71475 2.590951,0 2.590951,2.45694 v 1.51883 q 0.938103,-1.8762 2.590951,-3.12701 1.69752,-1.29547 4.065113,-1.29547 1.563505,0 2.188907,0.71474 0.670073,0.71475 0.670073,1.69752 0,1.11679 -0.625402,1.87621 -0.625402,0.75941 -2.01022,0.75941 -1.250804,0 -2.456937,0.44672 -1.161461,0.40204 -2.099564,1.2508 -0.893431,0.84876 -1.474161,2.18891 -0.536059,1.29548 -0.536059,3.08234 z"
         style="font-style:normal;font-variant:normal;font-weight:bold;font-stretch:normal;line-height:0;font-family:'Booster Next FY';-inkscape-font-specification:'Booster Next FY Bold';writing-mode:lr-tb;direction:ltr;fill:#ffffff;fill-opacity:1;stroke-width:1.1167891"
         id="path1181"
         inkscape:connector-curvature="0" />
      <path
         d="m -40.671949,282.76206 q -2.099563,-0.93811 -3.618397,-2.50161 -1.474161,-1.60818 -2.322921,-3.75241 -0.84876,-2.14424 -0.84876,-4.64585 0,-2.50161 0.84876,-4.64584 0.84876,-2.18891 2.322921,-3.75241 1.518834,-1.60818 3.618397,-2.50161 2.099564,-0.9381 4.645844,-0.9381 2.501608,0 4.601171,0.9381 2.099564,0.89343 3.618398,2.50161 1.518833,1.5635 2.367593,3.75241 0.84876,2.14423 0.84876,4.64584 0,2.50161 -0.84876,4.64585 -0.84876,2.14423 -2.367593,3.75241 -1.518834,1.5635 -3.618398,2.50161 -2.099563,0.89343 -4.601171,0.89343 -2.54628,0 -4.645844,-0.89343 z m 0.312701,-6.12001 q 0.759417,0.9381 1.831535,1.51883 1.072118,0.53606 2.501608,0.53606 1.42949,0 2.501608,-0.53606 1.072117,-0.53606 1.786862,-1.47416 0.759417,-0.9381 1.11679,-2.14423 0.402044,-1.25081 0.402044,-2.63563 0,-1.42949 -0.402044,-2.68029 -0.357373,-1.2508 -1.11679,-2.18891 -0.714745,-0.9381 -1.786862,-1.47416 -1.072118,-0.53606 -2.501608,-0.53606 -1.42949,0 -2.501608,0.53606 -1.072118,0.49139 -1.831535,1.42949 -0.714745,0.89343 -1.116789,2.14424 -0.357372,1.20613 -0.357372,2.63562 0,1.38482 0.357372,2.63562 0.402044,1.25081 1.116789,2.23358 z"
         style="font-style:normal;font-variant:normal;font-weight:bold;font-stretch:normal;line-height:0;font-family:'Booster Next FY';-inkscape-font-specification:'Booster Next FY Bold';writing-mode:lr-tb;direction:ltr;fill:#ffffff;fill-opacity:1;stroke-width:1.1167891"
         id="path1183"
         inkscape:connector-curvature="0" />
      <path
         d="m -14.27109,280.57315 q 0,1.11679 -0.759417,1.8762 -0.759417,0.75942 -1.965549,0.75942 -1.161461,0 -1.965549,-0.71474 -0.759417,-0.75942 -0.759417,-1.92088 v -17.42191 q 0,-1.20614 0.759417,-1.92088 0.759417,-0.75942 2.099564,-0.75942 1.116789,0 1.831534,0.6254 0.759417,0.62541 0.759417,1.83154 v 1.2508 q 0.714745,-1.69752 2.144235,-2.90365 1.42949,-1.2508 3.8417552,-1.2508 2.2782501,0 3.8864266,1.16146 1.6081765,1.11679 2.3675932,3.26102 0.7594167,-2.05489 2.14423533,-3.21635 1.42949027,-1.20613 3.79708347,-1.20613 3.7077403,0 5.7179609,2.36759 2.0102203,2.32292 2.0102203,6.52205 v 11.65928 q 0,1.11679 -0.804088,1.8762 -0.759417,0.75942 -1.965549,0.75942 -1.2061324,0 -1.9655491,-0.75942 -0.7594166,-0.75941 -0.7594166,-1.8762 v -11.16789 q 0,-2.09957 -1.0274461,-3.21636 -0.9827746,-1.16146 -2.7249658,-1.16146 -1.74219123,0 -2.72496576,1.16146 -0.98277454,1.11679 -0.98277454,3.21636 v 11.12322 q 0,1.16146 -0.7594167,1.92087 -0.7594167,0.75942 -1.9655491,0.75942 -1.2061323,0 -2.0102206,-0.75942 -0.7594167,-0.75941 -0.7594167,-1.92087 v -11.12322 q 0,-2.09957 -0.9827745,-3.21636 -0.9827746,-1.16146 -2.7696375,-1.16146 -1.742191,0 -2.724966,1.16146 -0.982774,1.11679 -0.982774,3.21636 z"
         style="font-style:normal;font-variant:normal;font-weight:bold;font-stretch:normal;line-height:0;font-family:'Booster Next FY';-inkscape-font-specification:'Booster Next FY Bold';writing-mode:lr-tb;direction:ltr;fill:#ffffff;fill-opacity:1;stroke-width:1.1167891"
         id="path1185"
         inkscape:connector-curvature="0" />
      <path
         d="m 21.734179,273.15767 q 0.357372,2.68029 1.965549,4.10978 1.652848,1.42949 4.109784,1.42949 0.938103,0 1.742192,-0.17868 0.848759,-0.22336 1.518833,-0.53606 0.670074,-0.3127 1.161461,-0.6254 0.536059,-0.35738 0.84876,-0.58074 0.804088,-0.35737 1.206132,-0.35737 1.027446,0 1.69752,0.75942 0.714745,0.75942 0.714745,1.69752 0,0.67007 -0.357373,1.2508 -0.357372,0.53606 -0.804088,0.89343 -1.295476,1.07212 -3.350368,1.87621 -2.054892,0.75942 -4.824529,0.75942 -2.456937,0 -4.511829,-0.84876 -2.054892,-0.89343 -3.529054,-2.45694 -1.474162,-1.5635 -2.322922,-3.70774 -0.804088,-2.14424 -0.804088,-4.69051 0,-2.45694 0.84876,-4.64585 0.84876,-2.18891 2.322922,-3.79708 1.518833,-1.60818 3.573725,-2.54628 2.054892,-0.9381 4.422486,-0.9381 2.322921,0 4.199127,0.84876 1.920878,0.80408 3.261025,2.1889 1.340147,1.34015 2.054892,3.12701 0.759417,1.78687 0.759417,3.70774 0,1.42949 -0.491388,2.3676 -0.446715,0.89343 -1.965549,0.89343 z m 10.54249,-3.26103 q 0.04467,-0.84876 -0.268029,-1.69752 -0.312701,-0.89343 -0.982775,-1.60817 -0.625402,-0.71475 -1.563505,-1.11679 -0.938102,-0.44672 -2.144235,-0.44672 -2.144235,0 -3.618397,1.29548 -1.474162,1.2508 -1.920878,3.57372 z"
         style="font-style:normal;font-variant:normal;font-weight:bold;font-stretch:normal;line-height:0;font-family:'Booster Next FY';-inkscape-font-specification:'Booster Next FY Bold';writing-mode:lr-tb;direction:ltr;fill:#ffffff;fill-opacity:1;stroke-width:1.1167891"
         id="path1187"
         inkscape:connector-curvature="0" />
      <path
         d="m 49.877244,275.52526 q 0,3.17168 2.367593,3.17168 1.11679,0 1.652849,-0.26803 0.536058,-0.3127 1.072117,-0.3127 0.938103,0 1.42949,0.71475 0.491388,0.71474 0.491388,1.38482 0,1.65284 -1.11679,2.36759 -0.938102,0.6254 -2.054892,0.84876 -1.072117,0.22336 -2.501608,0.22336 -1.965549,0 -3.305696,-0.62541 -1.295475,-0.67007 -2.099564,-1.74219 -0.759416,-1.07211 -1.116789,-2.45693 -0.312701,-1.42949 -0.312701,-2.90366 v -10.58716 h -1.250804 q -1.072117,0 -1.786863,-0.6254 -0.670073,-0.67007 -0.670073,-1.78686 0,-1.11679 0.714745,-1.78686 0.714745,-0.67008 1.742191,-0.67008 h 1.250804 v -3.21635 q 0,-1.11679 0.759417,-1.87621 0.804088,-0.75941 2.010221,-0.75941 1.16146,0 1.920877,0.75941 0.804088,0.75942 0.804088,1.87621 v 3.21635 h 3.752412 q 1.027446,0 1.742191,0.67008 0.714745,0.67007 0.714745,1.78686 0,1.11679 -0.714745,1.78686 -0.714745,0.6254 -1.742191,0.6254 h -3.752412 z"
         style="font-style:normal;font-variant:normal;font-weight:bold;font-stretch:normal;line-height:0;font-family:'Booster Next FY';-inkscape-font-specification:'Booster Next FY Bold';writing-mode:lr-tb;direction:ltr;fill:#ffffff;fill-opacity:1;stroke-width:1.1167891"
         id="path1189"
         inkscape:connector-curvature="0" />
      <path
         d="m 64.842165,273.15767 q 0.357373,2.68029 1.965549,4.10978 1.652848,1.42949 4.109785,1.42949 0.938103,0 1.742191,-0.17868 0.84876,-0.22336 1.518833,-0.53606 0.670074,-0.3127 1.161461,-0.6254 0.536059,-0.35738 0.84876,-0.58074 0.804088,-0.35737 1.206132,-0.35737 1.027447,0 1.69752,0.75942 0.714745,0.75942 0.714745,1.69752 0,0.67007 -0.357372,1.2508 -0.357373,0.53606 -0.804089,0.89343 -1.295475,1.07212 -3.350367,1.87621 -2.054893,0.75942 -4.82453,0.75942 -2.456936,0 -4.511828,-0.84876 -2.054893,-0.89343 -3.529054,-2.45694 -1.474162,-1.5635 -2.322922,-3.70774 -0.804088,-2.14424 -0.804088,-4.69051 0,-2.45694 0.84876,-4.64585 0.848759,-2.18891 2.322921,-3.79708 1.518834,-1.60818 3.573726,-2.54628 2.054892,-0.9381 4.422485,-0.9381 2.322922,0 4.199128,0.84876 1.920877,0.80408 3.261024,2.1889 1.340147,1.34015 2.054893,3.12701 0.759416,1.78687 0.759416,3.70774 0,1.42949 -0.491387,2.3676 -0.446716,0.89343 -1.965549,0.89343 z m 10.542491,-3.26103 q 0.04467,-0.84876 -0.26803,-1.69752 -0.312701,-0.89343 -0.982774,-1.60817 -0.625402,-0.71475 -1.563505,-1.11679 -0.938103,-0.44672 -2.144235,-0.44672 -2.144236,0 -3.618398,1.29548 -1.474161,1.2508 -1.920877,3.57372 z"
         style="font-style:normal;font-variant:normal;font-weight:bold;font-stretch:normal;line-height:0;font-family:'Booster Next FY';-inkscape-font-specification:'Booster Next FY Bold';writing-mode:lr-tb;direction:ltr;fill:#ffffff;fill-opacity:1;stroke-width:1.1167891"
         id="path1191"
         inkscape:connector-curvature="0" />
      <path
         d="m 91.287726,282.76206 q -2.099563,-0.93811 -3.618397,-2.50161 -1.474162,-1.60818 -2.322921,-3.75241 -0.84876,-2.14424 -0.84876,-4.64585 0,-2.50161 0.84876,-4.64584 0.848759,-2.18891 2.322921,-3.75241 1.518834,-1.60818 3.618397,-2.50161 2.099564,-0.9381 4.645844,-0.9381 2.501607,0 4.60117,0.9381 2.09957,0.89343 3.6184,2.50161 1.51883,1.5635 2.36759,3.75241 0.84876,2.14423 0.84876,4.64584 0,2.50161 -0.84876,4.64585 -0.84876,2.14423 -2.36759,3.75241 -1.51883,1.5635 -3.6184,2.50161 -2.099563,0.89343 -4.60117,0.89343 -2.54628,0 -4.645844,-0.89343 z m 0.312701,-6.12001 q 0.759417,0.9381 1.831535,1.51883 1.072117,0.53606 2.501608,0.53606 1.42949,0 2.501607,-0.53606 1.072118,-0.53606 1.786863,-1.47416 0.75942,-0.9381 1.11679,-2.14423 0.40204,-1.25081 0.40204,-2.63563 0,-1.42949 -0.40204,-2.68029 -0.35737,-1.2508 -1.11679,-2.18891 -0.714745,-0.9381 -1.786863,-1.47416 -1.072117,-0.53606 -2.501607,-0.53606 -1.429491,0 -2.501608,0.53606 -1.072118,0.49139 -1.831535,1.42949 -0.714745,0.89343 -1.116789,2.14424 -0.357372,1.20613 -0.357372,2.63562 0,1.38482 0.357372,2.63562 0.402044,1.25081 1.116789,2.23358 z"
         style="font-style:normal;font-variant:normal;font-weight:bold;font-stretch:normal;line-height:0;font-family:'Booster Next FY';-inkscape-font-specification:'Booster Next FY Bold';writing-mode:lr-tb;direction:ltr;fill:#ffffff;fill-opacity:1;stroke-width:1.1167891"
         id="path1193"
         inkscape:connector-curvature="0" />
    </g>
  </g>
</svg>
